G04 #@! TF.FileFunction,Copper,L2,Bot,Signal*
%FSLAX46Y46*%
G04 Gerber Fmt 4.6, Leading zero omitted, Abs format (unit mm)*
G04 Created by KiCad (PCBNEW 4.0.7) date Wednesday, 28. February 2018 'u13' 15:13:27*
%MOMM*%
%LPD*%
G01*
G04 APERTURE LIST*
%ADD10C,0.100000*%
%ADD11C,1.200000*%
%ADD12C,1.600000*%
%ADD13R,1.700000X1.700000*%
%ADD14O,1.700000X1.700000*%
%ADD15O,1.998980X1.998980*%
%ADD16R,1.998980X1.998980*%
%ADD17C,0.600000*%
%ADD18C,0.610000*%
%ADD19C,0.250000*%
%ADD20C,0.254000*%
G04 APERTURE END LIST*
D10*
D11*
X141732000Y-82804000D03*
D12*
X138139898Y-79211898D03*
X145324102Y-79211898D03*
X138139898Y-86396102D03*
X145324102Y-86396102D03*
D13*
X111360000Y-73893680D03*
D14*
X111360000Y-71353680D03*
X113900000Y-73893680D03*
X113900000Y-71353680D03*
X116440000Y-73893680D03*
X116440000Y-71353680D03*
X118980000Y-73893680D03*
X118980000Y-71353680D03*
X121520000Y-73893680D03*
X121520000Y-71353680D03*
X124060000Y-73893680D03*
X124060000Y-71353680D03*
X126600000Y-73893680D03*
X126600000Y-71353680D03*
X129140000Y-73893680D03*
X129140000Y-71353680D03*
X131680000Y-73893680D03*
X131680000Y-71353680D03*
X134220000Y-73893680D03*
X134220000Y-71353680D03*
X136760000Y-73893680D03*
X136760000Y-71353680D03*
X139300000Y-73893680D03*
X139300000Y-71353680D03*
X141840000Y-73893680D03*
X141840000Y-71353680D03*
X144380000Y-73893680D03*
X144380000Y-71353680D03*
X146920000Y-73893680D03*
X146920000Y-71353680D03*
X149460000Y-73893680D03*
X149460000Y-71353680D03*
X152000000Y-73893680D03*
X152000000Y-71353680D03*
X154540000Y-73893680D03*
X154540000Y-71353680D03*
X157080000Y-73893680D03*
X157080000Y-71353680D03*
X159620000Y-73893680D03*
X159620000Y-71353680D03*
D11*
X115316000Y-82804000D03*
D12*
X111723898Y-79211898D03*
X118908102Y-79211898D03*
X111723898Y-86396102D03*
X118908102Y-86396102D03*
D11*
X128524000Y-82804000D03*
D12*
X124931898Y-79211898D03*
X132116102Y-79211898D03*
X124931898Y-86396102D03*
X132116102Y-86396102D03*
D11*
X121920000Y-94742000D03*
D12*
X118327898Y-91149898D03*
X125512102Y-91149898D03*
X118327898Y-98334102D03*
X125512102Y-98334102D03*
D11*
X154940000Y-82804000D03*
D12*
X151347898Y-79211898D03*
X158532102Y-79211898D03*
X151347898Y-86396102D03*
X158532102Y-86396102D03*
D11*
X148336000Y-94742000D03*
D12*
X144743898Y-91149898D03*
X151928102Y-91149898D03*
X144743898Y-98334102D03*
X151928102Y-98334102D03*
D15*
X163500000Y-93720000D03*
D16*
X163500000Y-98800000D03*
D15*
X163500000Y-96260000D03*
X107010000Y-98850000D03*
D16*
X107010000Y-93770000D03*
D15*
X107010000Y-96310000D03*
D17*
X111560000Y-93350000D03*
X129670000Y-89990000D03*
X156160000Y-80100000D03*
X142380000Y-76670000D03*
X155320000Y-93150000D03*
X146550000Y-93210000D03*
X149200000Y-88180000D03*
X148860000Y-81050000D03*
X148860000Y-77620000D03*
D18*
X163500000Y-98800000D02*
X158870000Y-98800000D01*
X158870000Y-98800000D02*
X156490000Y-96420000D01*
X151347898Y-86396102D02*
X151347898Y-90569694D01*
X151347898Y-90569694D02*
X151928102Y-91149898D01*
X151928102Y-98334102D02*
X151928102Y-91149898D01*
X144743898Y-98334102D02*
X151928102Y-98334102D01*
X138139898Y-86396102D02*
X138139898Y-95520102D01*
X138139898Y-95520102D02*
X137240000Y-96420000D01*
X138139898Y-86396102D02*
X145324102Y-86396102D01*
X138139898Y-79211898D02*
X138139898Y-86396102D01*
X151347898Y-79211898D02*
X145324102Y-79211898D01*
X151347898Y-79211898D02*
X151347898Y-86396102D01*
X158532102Y-79211898D02*
X158532102Y-86396102D01*
X151347898Y-79211898D02*
X158532102Y-79211898D01*
X144743898Y-91149898D02*
X144743898Y-95626102D01*
X144743898Y-95626102D02*
X143950000Y-96420000D01*
X144743898Y-98334102D02*
X144825898Y-98334102D01*
X144825898Y-98334102D02*
X146740000Y-96420000D01*
X111560000Y-93350000D02*
X114630000Y-96420000D01*
X114630000Y-96420000D02*
X137240000Y-96420000D01*
X137240000Y-96420000D02*
X143950000Y-96420000D01*
X143950000Y-96420000D02*
X146740000Y-96420000D01*
X146740000Y-96420000D02*
X156490000Y-96420000D01*
X130060000Y-74813680D02*
X129140000Y-73893680D01*
X130060000Y-89600000D02*
X130060000Y-74813680D01*
X129670000Y-89990000D02*
X130060000Y-89600000D01*
D19*
X129140000Y-71353680D02*
X129140000Y-71480000D01*
D18*
X129140000Y-71353680D02*
X129266320Y-71353680D01*
D19*
X131680000Y-71353680D02*
X131680000Y-71670000D01*
X131680000Y-71670000D02*
X132970000Y-72960000D01*
X154940000Y-81320000D02*
X154940000Y-82804000D01*
X156160000Y-80100000D02*
X154940000Y-81320000D01*
X134030000Y-76670000D02*
X142380000Y-76670000D01*
X132970000Y-75610000D02*
X134030000Y-76670000D01*
X132970000Y-72960000D02*
X132970000Y-75610000D01*
D18*
X154940000Y-82804000D02*
X154940000Y-82610000D01*
D19*
X161940000Y-78120000D02*
X161940000Y-86530000D01*
X137910000Y-72620000D02*
X157780000Y-72620000D01*
X157780000Y-72620000D02*
X158340000Y-73180000D01*
X158340000Y-73180000D02*
X158340000Y-74520000D01*
X158340000Y-74520000D02*
X161940000Y-78120000D01*
X136760000Y-71470000D02*
X137910000Y-72620000D01*
X161940000Y-86530000D02*
X155320000Y-93150000D01*
X136760000Y-71353680D02*
X136760000Y-71470000D01*
D18*
X146920000Y-73893680D02*
X146920000Y-74280000D01*
X146920000Y-74280000D02*
X143440000Y-77760000D01*
X143440000Y-77760000D02*
X143440000Y-81690000D01*
X143440000Y-81690000D02*
X147710000Y-85960000D01*
X147710000Y-85960000D02*
X147710000Y-92050000D01*
X147710000Y-92050000D02*
X146550000Y-93210000D01*
X149460000Y-73893680D02*
X149460000Y-77020000D01*
X149200000Y-81390000D02*
X149200000Y-88180000D01*
X148860000Y-81050000D02*
X149200000Y-81390000D01*
X149460000Y-77020000D02*
X148860000Y-77620000D01*
D20*
G36*
X167010713Y-63767867D02*
X167155434Y-63864566D01*
X167252133Y-64009287D01*
X167299981Y-64249834D01*
X167290025Y-100308403D01*
X167241794Y-100550878D01*
X167145095Y-100695599D01*
X167000374Y-100792298D01*
X166760559Y-100840000D01*
X104239931Y-100840000D01*
X103999287Y-100792133D01*
X103854566Y-100695434D01*
X103757867Y-100550713D01*
X103710000Y-100310069D01*
X103710000Y-99230355D01*
X105420373Y-99230355D01*
X105686932Y-99809726D01*
X106154916Y-100242987D01*
X106629646Y-100439619D01*
X106883000Y-100320265D01*
X106883000Y-98977000D01*
X107137000Y-98977000D01*
X107137000Y-100320265D01*
X107390354Y-100439619D01*
X107865084Y-100242987D01*
X108333068Y-99809726D01*
X108599627Y-99230355D01*
X108480807Y-98977000D01*
X107137000Y-98977000D01*
X106883000Y-98977000D01*
X105539193Y-98977000D01*
X105420373Y-99230355D01*
X103710000Y-99230355D01*
X103710000Y-92770510D01*
X105363070Y-92770510D01*
X105363070Y-94769490D01*
X105407348Y-95004807D01*
X105546420Y-95220931D01*
X105712473Y-95334390D01*
X105499928Y-95652486D01*
X105375510Y-96277978D01*
X105375510Y-96342022D01*
X105499928Y-96967514D01*
X105854241Y-97497781D01*
X106003300Y-97597379D01*
X105686932Y-97890274D01*
X105420373Y-98469645D01*
X105539193Y-98723000D01*
X106883000Y-98723000D01*
X106883000Y-98703000D01*
X107137000Y-98703000D01*
X107137000Y-98723000D01*
X108480807Y-98723000D01*
X108497429Y-98687556D01*
X116908120Y-98687556D01*
X117151455Y-99203976D01*
X117573893Y-99587966D01*
X117974444Y-99753880D01*
X118200898Y-99632268D01*
X118200898Y-98461102D01*
X118454898Y-98461102D01*
X118454898Y-99632268D01*
X118681352Y-99753880D01*
X119197772Y-99510545D01*
X119581762Y-99088107D01*
X119747676Y-98687556D01*
X124092324Y-98687556D01*
X124335659Y-99203976D01*
X124758097Y-99587966D01*
X125158648Y-99753880D01*
X125385102Y-99632268D01*
X125385102Y-98461102D01*
X125639102Y-98461102D01*
X125639102Y-99632268D01*
X125865556Y-99753880D01*
X126381976Y-99510545D01*
X126765966Y-99088107D01*
X126931880Y-98687556D01*
X126810268Y-98461102D01*
X125639102Y-98461102D01*
X125385102Y-98461102D01*
X124213936Y-98461102D01*
X124092324Y-98687556D01*
X119747676Y-98687556D01*
X119626064Y-98461102D01*
X118454898Y-98461102D01*
X118200898Y-98461102D01*
X117029732Y-98461102D01*
X116908120Y-98687556D01*
X108497429Y-98687556D01*
X108599627Y-98469645D01*
X108333068Y-97890274D01*
X108016700Y-97597379D01*
X108165759Y-97497781D01*
X108520072Y-96967514D01*
X108644490Y-96342022D01*
X108644490Y-96277978D01*
X108520072Y-95652486D01*
X108306547Y-95332923D01*
X108460931Y-95233580D01*
X108605921Y-95021380D01*
X108656930Y-94769490D01*
X108656930Y-92770510D01*
X108612652Y-92535193D01*
X108473580Y-92319069D01*
X108261380Y-92174079D01*
X108009490Y-92123070D01*
X106010510Y-92123070D01*
X105775193Y-92167348D01*
X105559069Y-92306420D01*
X105414079Y-92518620D01*
X105363070Y-92770510D01*
X103710000Y-92770510D01*
X103710000Y-91503352D01*
X116908120Y-91503352D01*
X117151455Y-92019772D01*
X117573893Y-92403762D01*
X117974444Y-92569676D01*
X118200898Y-92448064D01*
X118200898Y-91276898D01*
X118454898Y-91276898D01*
X118454898Y-92448064D01*
X118681352Y-92569676D01*
X119197772Y-92326341D01*
X119581762Y-91903903D01*
X119747676Y-91503352D01*
X124092324Y-91503352D01*
X124335659Y-92019772D01*
X124758097Y-92403762D01*
X125158648Y-92569676D01*
X125385102Y-92448064D01*
X125385102Y-91276898D01*
X125639102Y-91276898D01*
X125639102Y-92448064D01*
X125865556Y-92569676D01*
X126381976Y-92326341D01*
X126765966Y-91903903D01*
X126931880Y-91503352D01*
X126810268Y-91276898D01*
X125639102Y-91276898D01*
X125385102Y-91276898D01*
X124213936Y-91276898D01*
X124092324Y-91503352D01*
X119747676Y-91503352D01*
X119626064Y-91276898D01*
X118454898Y-91276898D01*
X118200898Y-91276898D01*
X117029732Y-91276898D01*
X116908120Y-91503352D01*
X103710000Y-91503352D01*
X103710000Y-90796444D01*
X116908120Y-90796444D01*
X117029732Y-91022898D01*
X118200898Y-91022898D01*
X118200898Y-89851732D01*
X118454898Y-89851732D01*
X118454898Y-91022898D01*
X119626064Y-91022898D01*
X119747676Y-90796444D01*
X124092324Y-90796444D01*
X124213936Y-91022898D01*
X125385102Y-91022898D01*
X125385102Y-89851732D01*
X125639102Y-89851732D01*
X125639102Y-91022898D01*
X126810268Y-91022898D01*
X126931880Y-90796444D01*
X126688545Y-90280024D01*
X126266107Y-89896034D01*
X125865556Y-89730120D01*
X125639102Y-89851732D01*
X125385102Y-89851732D01*
X125158648Y-89730120D01*
X124642228Y-89973455D01*
X124258238Y-90395893D01*
X124092324Y-90796444D01*
X119747676Y-90796444D01*
X119504341Y-90280024D01*
X119081903Y-89896034D01*
X118681352Y-89730120D01*
X118454898Y-89851732D01*
X118200898Y-89851732D01*
X117974444Y-89730120D01*
X117458024Y-89973455D01*
X117074034Y-90395893D01*
X116908120Y-90796444D01*
X103710000Y-90796444D01*
X103710000Y-86749556D01*
X110304120Y-86749556D01*
X110547455Y-87265976D01*
X110969893Y-87649966D01*
X111370444Y-87815880D01*
X111596898Y-87694268D01*
X111596898Y-86523102D01*
X111850898Y-86523102D01*
X111850898Y-87694268D01*
X112077352Y-87815880D01*
X112593772Y-87572545D01*
X112977762Y-87150107D01*
X113143676Y-86749556D01*
X117488324Y-86749556D01*
X117731659Y-87265976D01*
X118154097Y-87649966D01*
X118554648Y-87815880D01*
X118781102Y-87694268D01*
X118781102Y-86523102D01*
X119035102Y-86523102D01*
X119035102Y-87694268D01*
X119261556Y-87815880D01*
X119777976Y-87572545D01*
X120161966Y-87150107D01*
X120327880Y-86749556D01*
X123512120Y-86749556D01*
X123755455Y-87265976D01*
X124177893Y-87649966D01*
X124578444Y-87815880D01*
X124804898Y-87694268D01*
X124804898Y-86523102D01*
X125058898Y-86523102D01*
X125058898Y-87694268D01*
X125285352Y-87815880D01*
X125801772Y-87572545D01*
X126185762Y-87150107D01*
X126351676Y-86749556D01*
X126230064Y-86523102D01*
X125058898Y-86523102D01*
X124804898Y-86523102D01*
X123633732Y-86523102D01*
X123512120Y-86749556D01*
X120327880Y-86749556D01*
X120206268Y-86523102D01*
X119035102Y-86523102D01*
X118781102Y-86523102D01*
X117609936Y-86523102D01*
X117488324Y-86749556D01*
X113143676Y-86749556D01*
X113022064Y-86523102D01*
X111850898Y-86523102D01*
X111596898Y-86523102D01*
X110425732Y-86523102D01*
X110304120Y-86749556D01*
X103710000Y-86749556D01*
X103710000Y-86042648D01*
X110304120Y-86042648D01*
X110425732Y-86269102D01*
X111596898Y-86269102D01*
X111596898Y-85097936D01*
X111850898Y-85097936D01*
X111850898Y-86269102D01*
X113022064Y-86269102D01*
X113143676Y-86042648D01*
X117488324Y-86042648D01*
X117609936Y-86269102D01*
X118781102Y-86269102D01*
X118781102Y-85097936D01*
X119035102Y-85097936D01*
X119035102Y-86269102D01*
X120206268Y-86269102D01*
X120327880Y-86042648D01*
X123512120Y-86042648D01*
X123633732Y-86269102D01*
X124804898Y-86269102D01*
X124804898Y-85097936D01*
X125058898Y-85097936D01*
X125058898Y-86269102D01*
X126230064Y-86269102D01*
X126351676Y-86042648D01*
X126108341Y-85526228D01*
X125685903Y-85142238D01*
X125285352Y-84976324D01*
X125058898Y-85097936D01*
X124804898Y-85097936D01*
X124578444Y-84976324D01*
X124062024Y-85219659D01*
X123678034Y-85642097D01*
X123512120Y-86042648D01*
X120327880Y-86042648D01*
X120084545Y-85526228D01*
X119662107Y-85142238D01*
X119261556Y-84976324D01*
X119035102Y-85097936D01*
X118781102Y-85097936D01*
X118554648Y-84976324D01*
X118038228Y-85219659D01*
X117654238Y-85642097D01*
X117488324Y-86042648D01*
X113143676Y-86042648D01*
X112900341Y-85526228D01*
X112477903Y-85142238D01*
X112077352Y-84976324D01*
X111850898Y-85097936D01*
X111596898Y-85097936D01*
X111370444Y-84976324D01*
X110854024Y-85219659D01*
X110470034Y-85642097D01*
X110304120Y-86042648D01*
X103710000Y-86042648D01*
X103710000Y-83048579D01*
X114080786Y-83048579D01*
X114268408Y-83502657D01*
X114615515Y-83850371D01*
X115069266Y-84038785D01*
X115560579Y-84039214D01*
X116014657Y-83851592D01*
X116362371Y-83504485D01*
X116550785Y-83050734D01*
X116551214Y-82559421D01*
X116363592Y-82105343D01*
X116016485Y-81757629D01*
X115562734Y-81569215D01*
X115071421Y-81568786D01*
X114617343Y-81756408D01*
X114269629Y-82103515D01*
X114081215Y-82557266D01*
X114080786Y-83048579D01*
X103710000Y-83048579D01*
X103710000Y-79565352D01*
X110304120Y-79565352D01*
X110547455Y-80081772D01*
X110969893Y-80465762D01*
X111370444Y-80631676D01*
X111596898Y-80510064D01*
X111596898Y-79338898D01*
X111850898Y-79338898D01*
X111850898Y-80510064D01*
X112077352Y-80631676D01*
X112593772Y-80388341D01*
X112977762Y-79965903D01*
X113143676Y-79565352D01*
X117488324Y-79565352D01*
X117731659Y-80081772D01*
X118154097Y-80465762D01*
X118554648Y-80631676D01*
X118781102Y-80510064D01*
X118781102Y-79338898D01*
X119035102Y-79338898D01*
X119035102Y-80510064D01*
X119261556Y-80631676D01*
X119777976Y-80388341D01*
X120161966Y-79965903D01*
X120327880Y-79565352D01*
X123512120Y-79565352D01*
X123755455Y-80081772D01*
X124177893Y-80465762D01*
X124578444Y-80631676D01*
X124804898Y-80510064D01*
X124804898Y-79338898D01*
X125058898Y-79338898D01*
X125058898Y-80510064D01*
X125285352Y-80631676D01*
X125801772Y-80388341D01*
X126185762Y-79965903D01*
X126351676Y-79565352D01*
X126230064Y-79338898D01*
X125058898Y-79338898D01*
X124804898Y-79338898D01*
X123633732Y-79338898D01*
X123512120Y-79565352D01*
X120327880Y-79565352D01*
X120206268Y-79338898D01*
X119035102Y-79338898D01*
X118781102Y-79338898D01*
X117609936Y-79338898D01*
X117488324Y-79565352D01*
X113143676Y-79565352D01*
X113022064Y-79338898D01*
X111850898Y-79338898D01*
X111596898Y-79338898D01*
X110425732Y-79338898D01*
X110304120Y-79565352D01*
X103710000Y-79565352D01*
X103710000Y-78858444D01*
X110304120Y-78858444D01*
X110425732Y-79084898D01*
X111596898Y-79084898D01*
X111596898Y-77913732D01*
X111850898Y-77913732D01*
X111850898Y-79084898D01*
X113022064Y-79084898D01*
X113143676Y-78858444D01*
X117488324Y-78858444D01*
X117609936Y-79084898D01*
X118781102Y-79084898D01*
X118781102Y-77913732D01*
X119035102Y-77913732D01*
X119035102Y-79084898D01*
X120206268Y-79084898D01*
X120327880Y-78858444D01*
X123512120Y-78858444D01*
X123633732Y-79084898D01*
X124804898Y-79084898D01*
X124804898Y-77913732D01*
X125058898Y-77913732D01*
X125058898Y-79084898D01*
X126230064Y-79084898D01*
X126351676Y-78858444D01*
X126108341Y-78342024D01*
X125685903Y-77958034D01*
X125285352Y-77792120D01*
X125058898Y-77913732D01*
X124804898Y-77913732D01*
X124578444Y-77792120D01*
X124062024Y-78035455D01*
X123678034Y-78457893D01*
X123512120Y-78858444D01*
X120327880Y-78858444D01*
X120084545Y-78342024D01*
X119662107Y-77958034D01*
X119261556Y-77792120D01*
X119035102Y-77913732D01*
X118781102Y-77913732D01*
X118554648Y-77792120D01*
X118038228Y-78035455D01*
X117654238Y-78457893D01*
X117488324Y-78858444D01*
X113143676Y-78858444D01*
X112900341Y-78342024D01*
X112477903Y-77958034D01*
X112077352Y-77792120D01*
X111850898Y-77913732D01*
X111596898Y-77913732D01*
X111370444Y-77792120D01*
X110854024Y-78035455D01*
X110470034Y-78457893D01*
X110304120Y-78858444D01*
X103710000Y-78858444D01*
X103710000Y-73161815D01*
X104290630Y-73161815D01*
X104614980Y-73946800D01*
X105215041Y-74547909D01*
X105999459Y-74873628D01*
X106848815Y-74874370D01*
X107633800Y-74550020D01*
X108234909Y-73949959D01*
X108560628Y-73165541D01*
X108560734Y-73043680D01*
X109862560Y-73043680D01*
X109862560Y-74743680D01*
X109906838Y-74978997D01*
X110045910Y-75195121D01*
X110258110Y-75340111D01*
X110510000Y-75391120D01*
X112210000Y-75391120D01*
X112445317Y-75346842D01*
X112661441Y-75207770D01*
X112806431Y-74995570D01*
X112820086Y-74928139D01*
X112849946Y-74972827D01*
X113331715Y-75294734D01*
X113900000Y-75407773D01*
X114468285Y-75294734D01*
X114950054Y-74972827D01*
X115170000Y-74643654D01*
X115389946Y-74972827D01*
X115871715Y-75294734D01*
X116440000Y-75407773D01*
X117008285Y-75294734D01*
X117490054Y-74972827D01*
X117710000Y-74643654D01*
X117929946Y-74972827D01*
X118411715Y-75294734D01*
X118980000Y-75407773D01*
X119548285Y-75294734D01*
X120030054Y-74972827D01*
X120257702Y-74632127D01*
X120324817Y-74775038D01*
X120753076Y-75165325D01*
X121163110Y-75335156D01*
X121393000Y-75213835D01*
X121393000Y-74020680D01*
X121373000Y-74020680D01*
X121373000Y-73766680D01*
X121393000Y-73766680D01*
X121393000Y-73746680D01*
X121647000Y-73746680D01*
X121647000Y-73766680D01*
X121667000Y-73766680D01*
X121667000Y-74020680D01*
X121647000Y-74020680D01*
X121647000Y-75213835D01*
X121876890Y-75335156D01*
X122286924Y-75165325D01*
X122715183Y-74775038D01*
X122782298Y-74632127D01*
X123009946Y-74972827D01*
X123491715Y-75294734D01*
X124060000Y-75407773D01*
X124628285Y-75294734D01*
X125110054Y-74972827D01*
X125330000Y-74643654D01*
X125549946Y-74972827D01*
X126031715Y-75294734D01*
X126600000Y-75407773D01*
X127168285Y-75294734D01*
X127650054Y-74972827D01*
X127870000Y-74643654D01*
X128089946Y-74972827D01*
X128571715Y-75294734D01*
X129120000Y-75403795D01*
X129120000Y-81714243D01*
X128770734Y-81569215D01*
X128279421Y-81568786D01*
X127825343Y-81756408D01*
X127477629Y-82103515D01*
X127289215Y-82557266D01*
X127288786Y-83048579D01*
X127476408Y-83502657D01*
X127823515Y-83850371D01*
X128277266Y-84038785D01*
X128768579Y-84039214D01*
X129120000Y-83894009D01*
X129120000Y-89210640D01*
X129005320Y-89325320D01*
X128991146Y-89346532D01*
X128877808Y-89459673D01*
X128815854Y-89608874D01*
X128801553Y-89630277D01*
X128796575Y-89655302D01*
X128735162Y-89803201D01*
X128735021Y-89964761D01*
X128730001Y-89990000D01*
X128734977Y-90015019D01*
X128734838Y-90175167D01*
X128796531Y-90324476D01*
X128801553Y-90349723D01*
X128815729Y-90370939D01*
X128876883Y-90518943D01*
X128991021Y-90633281D01*
X129005320Y-90654680D01*
X129026532Y-90668854D01*
X129139673Y-90782192D01*
X129288874Y-90844146D01*
X129310277Y-90858447D01*
X129335302Y-90863425D01*
X129483201Y-90924838D01*
X129644761Y-90924979D01*
X129670000Y-90929999D01*
X129695019Y-90925023D01*
X129855167Y-90925162D01*
X130004476Y-90863469D01*
X130029723Y-90858447D01*
X130050939Y-90844271D01*
X130198943Y-90783117D01*
X130313281Y-90668979D01*
X130334680Y-90654680D01*
X130724680Y-90264681D01*
X130928446Y-89959723D01*
X130928447Y-89959722D01*
X131000000Y-89600000D01*
X131000000Y-87320825D01*
X131362097Y-87649966D01*
X131762648Y-87815880D01*
X131989102Y-87694268D01*
X131989102Y-86523102D01*
X132243102Y-86523102D01*
X132243102Y-87694268D01*
X132469556Y-87815880D01*
X132985976Y-87572545D01*
X133369966Y-87150107D01*
X133535880Y-86749556D01*
X133414268Y-86523102D01*
X132243102Y-86523102D01*
X131989102Y-86523102D01*
X131000000Y-86523102D01*
X131000000Y-86269102D01*
X131989102Y-86269102D01*
X131989102Y-85097936D01*
X132243102Y-85097936D01*
X132243102Y-86269102D01*
X133414268Y-86269102D01*
X133535880Y-86042648D01*
X133292545Y-85526228D01*
X132870107Y-85142238D01*
X132469556Y-84976324D01*
X132243102Y-85097936D01*
X131989102Y-85097936D01*
X131762648Y-84976324D01*
X131246228Y-85219659D01*
X131000000Y-85490541D01*
X131000000Y-80136621D01*
X131362097Y-80465762D01*
X131762648Y-80631676D01*
X131989102Y-80510064D01*
X131989102Y-79338898D01*
X132243102Y-79338898D01*
X132243102Y-80510064D01*
X132469556Y-80631676D01*
X132985976Y-80388341D01*
X133369966Y-79965903D01*
X133535880Y-79565352D01*
X133414268Y-79338898D01*
X132243102Y-79338898D01*
X131989102Y-79338898D01*
X131000000Y-79338898D01*
X131000000Y-79084898D01*
X131989102Y-79084898D01*
X131989102Y-77913732D01*
X132243102Y-77913732D01*
X132243102Y-79084898D01*
X133414268Y-79084898D01*
X133535880Y-78858444D01*
X133292545Y-78342024D01*
X132870107Y-77958034D01*
X132469556Y-77792120D01*
X132243102Y-77913732D01*
X131989102Y-77913732D01*
X131762648Y-77792120D01*
X131246228Y-78035455D01*
X131000000Y-78306337D01*
X131000000Y-75220089D01*
X131111715Y-75294734D01*
X131680000Y-75407773D01*
X132210000Y-75302349D01*
X132210000Y-75610000D01*
X132267852Y-75900839D01*
X132432599Y-76147401D01*
X133492599Y-77207401D01*
X133739160Y-77372148D01*
X134030000Y-77430000D01*
X141817537Y-77430000D01*
X141849673Y-77462192D01*
X142193201Y-77604838D01*
X142530805Y-77605132D01*
X142500000Y-77760000D01*
X142500000Y-81690000D01*
X142530273Y-81842192D01*
X142533601Y-81858922D01*
X142432485Y-81757629D01*
X141978734Y-81569215D01*
X141487421Y-81568786D01*
X141033343Y-81756408D01*
X140685629Y-82103515D01*
X140497215Y-82557266D01*
X140496786Y-83048579D01*
X140684408Y-83502657D01*
X141031515Y-83850371D01*
X141485266Y-84038785D01*
X141976579Y-84039214D01*
X142430657Y-83851592D01*
X142778371Y-83504485D01*
X142966785Y-83050734D01*
X142967214Y-82559421D01*
X142958168Y-82537528D01*
X145381792Y-84961152D01*
X145039915Y-84960854D01*
X144512302Y-85178859D01*
X144234575Y-85456102D01*
X139229164Y-85456102D01*
X139079898Y-85306575D01*
X139079898Y-80301164D01*
X139355722Y-80025821D01*
X139574648Y-79498589D01*
X139575146Y-78927711D01*
X139357141Y-78400098D01*
X138953821Y-77996074D01*
X138426589Y-77777148D01*
X137855711Y-77776650D01*
X137328098Y-77994655D01*
X136924074Y-78397975D01*
X136705148Y-78925207D01*
X136704650Y-79496085D01*
X136922655Y-80023698D01*
X137199898Y-80301425D01*
X137199898Y-85306836D01*
X136924074Y-85582179D01*
X136705148Y-86109411D01*
X136704650Y-86680289D01*
X136922655Y-87207902D01*
X137199898Y-87485629D01*
X137199898Y-95130742D01*
X136850640Y-95480000D01*
X122928790Y-95480000D01*
X122966371Y-95442485D01*
X123154785Y-94988734D01*
X123155214Y-94497421D01*
X122967592Y-94043343D01*
X122620485Y-93695629D01*
X122166734Y-93507215D01*
X121675421Y-93506786D01*
X121221343Y-93694408D01*
X120873629Y-94041515D01*
X120685215Y-94495266D01*
X120684786Y-94986579D01*
X120872408Y-95440657D01*
X120911682Y-95480000D01*
X115019361Y-95480000D01*
X112224680Y-92685320D01*
X112203468Y-92671146D01*
X112090327Y-92557808D01*
X111941126Y-92495854D01*
X111919723Y-92481553D01*
X111894698Y-92476575D01*
X111746799Y-92415162D01*
X111585239Y-92415021D01*
X111560000Y-92410001D01*
X111534981Y-92414977D01*
X111374833Y-92414838D01*
X111225524Y-92476531D01*
X111200277Y-92481553D01*
X111179061Y-92495729D01*
X111031057Y-92556883D01*
X110916719Y-92671021D01*
X110895320Y-92685320D01*
X110881146Y-92706532D01*
X110767808Y-92819673D01*
X110705854Y-92968874D01*
X110691553Y-92990277D01*
X110686575Y-93015302D01*
X110625162Y-93163201D01*
X110625021Y-93324761D01*
X110620001Y-93350000D01*
X110624977Y-93375019D01*
X110624838Y-93535167D01*
X110686531Y-93684476D01*
X110691553Y-93709723D01*
X110705729Y-93730939D01*
X110766883Y-93878943D01*
X110881021Y-93993281D01*
X110895320Y-94014680D01*
X113965320Y-97084681D01*
X114270277Y-97288447D01*
X114630000Y-97360000D01*
X117236364Y-97360000D01*
X117205276Y-97391088D01*
X117226525Y-97412337D01*
X117074034Y-97580097D01*
X116908120Y-97980648D01*
X117029732Y-98207102D01*
X118021290Y-98207102D01*
X118134149Y-98319961D01*
X118313757Y-98140353D01*
X118200898Y-98027494D01*
X118200898Y-97360000D01*
X118454898Y-97360000D01*
X118454898Y-98027494D01*
X118342039Y-98140353D01*
X118521647Y-98319961D01*
X118634506Y-98207102D01*
X119626064Y-98207102D01*
X119747676Y-97980648D01*
X119504341Y-97464228D01*
X119437834Y-97403774D01*
X119450520Y-97391088D01*
X119419432Y-97360000D01*
X124420568Y-97360000D01*
X124389480Y-97391088D01*
X124410729Y-97412337D01*
X124258238Y-97580097D01*
X124092324Y-97980648D01*
X124213936Y-98207102D01*
X125205494Y-98207102D01*
X125318353Y-98319961D01*
X125497961Y-98140353D01*
X125385102Y-98027494D01*
X125385102Y-97360000D01*
X125639102Y-97360000D01*
X125639102Y-98027494D01*
X125526243Y-98140353D01*
X125705851Y-98319961D01*
X125818710Y-98207102D01*
X126810268Y-98207102D01*
X126931880Y-97980648D01*
X126688545Y-97464228D01*
X126622038Y-97403774D01*
X126634724Y-97391088D01*
X126603636Y-97360000D01*
X143688533Y-97360000D01*
X143528074Y-97520179D01*
X143309148Y-98047411D01*
X143308650Y-98618289D01*
X143526655Y-99145902D01*
X143929975Y-99549926D01*
X144457207Y-99768852D01*
X145028085Y-99769350D01*
X145555698Y-99551345D01*
X145833425Y-99274102D01*
X150838836Y-99274102D01*
X151114179Y-99549926D01*
X151641411Y-99768852D01*
X152212289Y-99769350D01*
X152739902Y-99551345D01*
X153143926Y-99148025D01*
X153362852Y-98620793D01*
X153363350Y-98049915D01*
X153145345Y-97522302D01*
X152983326Y-97360000D01*
X156100640Y-97360000D01*
X158205319Y-99464680D01*
X158332899Y-99549926D01*
X158510278Y-99668447D01*
X158870000Y-99740000D01*
X161853070Y-99740000D01*
X161853070Y-99799490D01*
X161897348Y-100034807D01*
X162036420Y-100250931D01*
X162248620Y-100395921D01*
X162500510Y-100446930D01*
X164499490Y-100446930D01*
X164734807Y-100402652D01*
X164950931Y-100263580D01*
X165095921Y-100051380D01*
X165146930Y-99799490D01*
X165146930Y-97800510D01*
X165102652Y-97565193D01*
X164963580Y-97349069D01*
X164797527Y-97235610D01*
X165010072Y-96917514D01*
X165134490Y-96292022D01*
X165134490Y-96227978D01*
X165010072Y-95602486D01*
X164655759Y-95072219D01*
X164506700Y-94972621D01*
X164823068Y-94679726D01*
X165089627Y-94100355D01*
X164970807Y-93847000D01*
X163627000Y-93847000D01*
X163627000Y-93867000D01*
X163373000Y-93867000D01*
X163373000Y-93847000D01*
X162029193Y-93847000D01*
X161910373Y-94100355D01*
X162176932Y-94679726D01*
X162493300Y-94972621D01*
X162344241Y-95072219D01*
X161989928Y-95602486D01*
X161865510Y-96227978D01*
X161865510Y-96292022D01*
X161989928Y-96917514D01*
X162203453Y-97237077D01*
X162049069Y-97336420D01*
X161904079Y-97548620D01*
X161853070Y-97800510D01*
X161853070Y-97860000D01*
X159259361Y-97860000D01*
X157154680Y-95755320D01*
X156849723Y-95551553D01*
X156790041Y-95539682D01*
X156490000Y-95480000D01*
X152868102Y-95480000D01*
X152868102Y-92239164D01*
X153143926Y-91963821D01*
X153362852Y-91436589D01*
X153363350Y-90865711D01*
X153145345Y-90338098D01*
X152742025Y-89934074D01*
X152287898Y-89745504D01*
X152287898Y-87485368D01*
X152563722Y-87210025D01*
X152782648Y-86682793D01*
X152783146Y-86111915D01*
X152565141Y-85584302D01*
X152287898Y-85306575D01*
X152287898Y-80301164D01*
X152437425Y-80151898D01*
X155033300Y-80151898D01*
X154402599Y-80782599D01*
X154237852Y-81029161D01*
X154180000Y-81320000D01*
X154180000Y-81817644D01*
X153893629Y-82103515D01*
X153705215Y-82557266D01*
X153704786Y-83048579D01*
X153892408Y-83502657D01*
X154239515Y-83850371D01*
X154693266Y-84038785D01*
X155184579Y-84039214D01*
X155638657Y-83851592D01*
X155986371Y-83504485D01*
X156174785Y-83050734D01*
X156175214Y-82559421D01*
X155987592Y-82105343D01*
X155700000Y-81817248D01*
X155700000Y-81634802D01*
X156299680Y-81035122D01*
X156345167Y-81035162D01*
X156688943Y-80893117D01*
X156952192Y-80630327D01*
X157094838Y-80286799D01*
X157094956Y-80151898D01*
X157442836Y-80151898D01*
X157592102Y-80301425D01*
X157592102Y-85306836D01*
X157316278Y-85582179D01*
X157097352Y-86109411D01*
X157096854Y-86680289D01*
X157314859Y-87207902D01*
X157718179Y-87611926D01*
X158245411Y-87830852D01*
X158816289Y-87831350D01*
X159343902Y-87613345D01*
X159747926Y-87210025D01*
X159966852Y-86682793D01*
X159967350Y-86111915D01*
X159749345Y-85584302D01*
X159472102Y-85306575D01*
X159472102Y-80301164D01*
X159747926Y-80025821D01*
X159966852Y-79498589D01*
X159967350Y-78927711D01*
X159749345Y-78400098D01*
X159346025Y-77996074D01*
X158818793Y-77777148D01*
X158247915Y-77776650D01*
X157720302Y-77994655D01*
X157442575Y-78271898D01*
X152437164Y-78271898D01*
X152161821Y-77996074D01*
X151634589Y-77777148D01*
X151063711Y-77776650D01*
X150536098Y-77994655D01*
X150258371Y-78271898D01*
X149537462Y-78271898D01*
X150124680Y-77684680D01*
X150328447Y-77379723D01*
X150352206Y-77260277D01*
X150400000Y-77020000D01*
X150400000Y-75046363D01*
X150510054Y-74972827D01*
X150730000Y-74643654D01*
X150949946Y-74972827D01*
X151431715Y-75294734D01*
X152000000Y-75407773D01*
X152568285Y-75294734D01*
X153050054Y-74972827D01*
X153270000Y-74643654D01*
X153489946Y-74972827D01*
X153971715Y-75294734D01*
X154540000Y-75407773D01*
X155108285Y-75294734D01*
X155590054Y-74972827D01*
X155810000Y-74643654D01*
X156029946Y-74972827D01*
X156511715Y-75294734D01*
X157080000Y-75407773D01*
X157648285Y-75294734D01*
X157883060Y-75137862D01*
X161180000Y-78434802D01*
X161180000Y-86215198D01*
X155180320Y-92214878D01*
X155134833Y-92214838D01*
X154791057Y-92356883D01*
X154527808Y-92619673D01*
X154385162Y-92963201D01*
X154384838Y-93335167D01*
X154526883Y-93678943D01*
X154789673Y-93942192D01*
X155133201Y-94084838D01*
X155505167Y-94085162D01*
X155848943Y-93943117D01*
X156112192Y-93680327D01*
X156253656Y-93339645D01*
X161910373Y-93339645D01*
X162029193Y-93593000D01*
X163373000Y-93593000D01*
X163373000Y-92249735D01*
X163627000Y-92249735D01*
X163627000Y-93593000D01*
X164970807Y-93593000D01*
X165089627Y-93339645D01*
X164823068Y-92760274D01*
X164355084Y-92327013D01*
X163880354Y-92130381D01*
X163627000Y-92249735D01*
X163373000Y-92249735D01*
X163119646Y-92130381D01*
X162644916Y-92327013D01*
X162176932Y-92760274D01*
X161910373Y-93339645D01*
X156253656Y-93339645D01*
X156254838Y-93336799D01*
X156254879Y-93289923D01*
X162477401Y-87067401D01*
X162642148Y-86820839D01*
X162700000Y-86530000D01*
X162700000Y-78120000D01*
X162642148Y-77829161D01*
X162477401Y-77582599D01*
X160155839Y-75261037D01*
X160386924Y-75165325D01*
X160815183Y-74775038D01*
X161061486Y-74250572D01*
X160940819Y-74020680D01*
X159747000Y-74020680D01*
X159747000Y-74040680D01*
X159493000Y-74040680D01*
X159493000Y-74020680D01*
X159473000Y-74020680D01*
X159473000Y-73766680D01*
X159493000Y-73766680D01*
X159493000Y-73746680D01*
X159747000Y-73746680D01*
X159747000Y-73766680D01*
X160940819Y-73766680D01*
X161061486Y-73536788D01*
X160885389Y-73161815D01*
X162456630Y-73161815D01*
X162780980Y-73946800D01*
X163381041Y-74547909D01*
X164165459Y-74873628D01*
X165014815Y-74874370D01*
X165799800Y-74550020D01*
X166400909Y-73949959D01*
X166726628Y-73165541D01*
X166727370Y-72316185D01*
X166403020Y-71531200D01*
X165802959Y-70930091D01*
X165018541Y-70604372D01*
X164169185Y-70603630D01*
X163384200Y-70927980D01*
X162783091Y-71528041D01*
X162457372Y-72312459D01*
X162456630Y-73161815D01*
X160885389Y-73161815D01*
X160815183Y-73012322D01*
X160386924Y-72622035D01*
X160386899Y-72622025D01*
X160670054Y-72432827D01*
X160991961Y-71951058D01*
X161105000Y-71382773D01*
X161105000Y-71324587D01*
X160991961Y-70756302D01*
X160670054Y-70274533D01*
X160188285Y-69952626D01*
X159620000Y-69839587D01*
X159051715Y-69952626D01*
X158569946Y-70274533D01*
X158350000Y-70603706D01*
X158130054Y-70274533D01*
X157648285Y-69952626D01*
X157080000Y-69839587D01*
X156511715Y-69952626D01*
X156029946Y-70274533D01*
X155810000Y-70603706D01*
X155590054Y-70274533D01*
X155108285Y-69952626D01*
X154540000Y-69839587D01*
X153971715Y-69952626D01*
X153489946Y-70274533D01*
X153262298Y-70615233D01*
X153195183Y-70472322D01*
X152766924Y-70082035D01*
X152356890Y-69912204D01*
X152127000Y-70033525D01*
X152127000Y-71226680D01*
X152147000Y-71226680D01*
X152147000Y-71480680D01*
X152127000Y-71480680D01*
X152127000Y-71500680D01*
X151873000Y-71500680D01*
X151873000Y-71480680D01*
X151853000Y-71480680D01*
X151853000Y-71226680D01*
X151873000Y-71226680D01*
X151873000Y-70033525D01*
X151643110Y-69912204D01*
X151233076Y-70082035D01*
X150804817Y-70472322D01*
X150737702Y-70615233D01*
X150510054Y-70274533D01*
X150028285Y-69952626D01*
X149460000Y-69839587D01*
X148891715Y-69952626D01*
X148409946Y-70274533D01*
X148182298Y-70615233D01*
X148115183Y-70472322D01*
X147686924Y-70082035D01*
X147276890Y-69912204D01*
X147047000Y-70033525D01*
X147047000Y-71226680D01*
X147067000Y-71226680D01*
X147067000Y-71480680D01*
X147047000Y-71480680D01*
X147047000Y-71500680D01*
X146793000Y-71500680D01*
X146793000Y-71480680D01*
X146773000Y-71480680D01*
X146773000Y-71226680D01*
X146793000Y-71226680D01*
X146793000Y-70033525D01*
X146563110Y-69912204D01*
X146153076Y-70082035D01*
X145724817Y-70472322D01*
X145657702Y-70615233D01*
X145430054Y-70274533D01*
X144948285Y-69952626D01*
X144380000Y-69839587D01*
X143811715Y-69952626D01*
X143329946Y-70274533D01*
X143110000Y-70603706D01*
X142890054Y-70274533D01*
X142408285Y-69952626D01*
X141840000Y-69839587D01*
X141271715Y-69952626D01*
X140789946Y-70274533D01*
X140570000Y-70603706D01*
X140350054Y-70274533D01*
X139868285Y-69952626D01*
X139300000Y-69839587D01*
X138731715Y-69952626D01*
X138249946Y-70274533D01*
X138030000Y-70603706D01*
X137810054Y-70274533D01*
X137328285Y-69952626D01*
X136760000Y-69839587D01*
X136191715Y-69952626D01*
X135709946Y-70274533D01*
X135482298Y-70615233D01*
X135415183Y-70472322D01*
X134986924Y-70082035D01*
X134576890Y-69912204D01*
X134347000Y-70033525D01*
X134347000Y-71226680D01*
X134367000Y-71226680D01*
X134367000Y-71480680D01*
X134347000Y-71480680D01*
X134347000Y-71500680D01*
X134093000Y-71500680D01*
X134093000Y-71480680D01*
X134073000Y-71480680D01*
X134073000Y-71226680D01*
X134093000Y-71226680D01*
X134093000Y-70033525D01*
X133863110Y-69912204D01*
X133453076Y-70082035D01*
X133024817Y-70472322D01*
X132957702Y-70615233D01*
X132730054Y-70274533D01*
X132248285Y-69952626D01*
X131680000Y-69839587D01*
X131111715Y-69952626D01*
X130629946Y-70274533D01*
X130410000Y-70603706D01*
X130190054Y-70274533D01*
X129708285Y-69952626D01*
X129140000Y-69839587D01*
X128571715Y-69952626D01*
X128089946Y-70274533D01*
X127862298Y-70615233D01*
X127795183Y-70472322D01*
X127366924Y-70082035D01*
X126956890Y-69912204D01*
X126727000Y-70033525D01*
X126727000Y-71226680D01*
X126747000Y-71226680D01*
X126747000Y-71480680D01*
X126727000Y-71480680D01*
X126727000Y-71500680D01*
X126473000Y-71500680D01*
X126473000Y-71480680D01*
X126453000Y-71480680D01*
X126453000Y-71226680D01*
X126473000Y-71226680D01*
X126473000Y-70033525D01*
X126243110Y-69912204D01*
X125833076Y-70082035D01*
X125404817Y-70472322D01*
X125337702Y-70615233D01*
X125110054Y-70274533D01*
X124628285Y-69952626D01*
X124060000Y-69839587D01*
X123491715Y-69952626D01*
X123009946Y-70274533D01*
X122790000Y-70603706D01*
X122570054Y-70274533D01*
X122088285Y-69952626D01*
X121520000Y-69839587D01*
X120951715Y-69952626D01*
X120469946Y-70274533D01*
X120250000Y-70603706D01*
X120030054Y-70274533D01*
X119548285Y-69952626D01*
X118980000Y-69839587D01*
X118411715Y-69952626D01*
X117929946Y-70274533D01*
X117702298Y-70615233D01*
X117635183Y-70472322D01*
X117206924Y-70082035D01*
X116796890Y-69912204D01*
X116567000Y-70033525D01*
X116567000Y-71226680D01*
X116587000Y-71226680D01*
X116587000Y-71480680D01*
X116567000Y-71480680D01*
X116567000Y-71500680D01*
X116313000Y-71500680D01*
X116313000Y-71480680D01*
X116293000Y-71480680D01*
X116293000Y-71226680D01*
X116313000Y-71226680D01*
X116313000Y-70033525D01*
X116083110Y-69912204D01*
X115673076Y-70082035D01*
X115244817Y-70472322D01*
X115177702Y-70615233D01*
X114950054Y-70274533D01*
X114468285Y-69952626D01*
X113900000Y-69839587D01*
X113331715Y-69952626D01*
X112849946Y-70274533D01*
X112630000Y-70603706D01*
X112410054Y-70274533D01*
X111928285Y-69952626D01*
X111360000Y-69839587D01*
X110791715Y-69952626D01*
X110309946Y-70274533D01*
X109988039Y-70756302D01*
X109875000Y-71324587D01*
X109875000Y-71382773D01*
X109988039Y-71951058D01*
X110309946Y-72432827D01*
X110311179Y-72433651D01*
X110274683Y-72440518D01*
X110058559Y-72579590D01*
X109913569Y-72791790D01*
X109862560Y-73043680D01*
X108560734Y-73043680D01*
X108561370Y-72316185D01*
X108237020Y-71531200D01*
X107636959Y-70930091D01*
X106852541Y-70604372D01*
X106003185Y-70603630D01*
X105218200Y-70927980D01*
X104617091Y-71528041D01*
X104291372Y-72312459D01*
X104290630Y-73161815D01*
X103710000Y-73161815D01*
X103710000Y-68240815D01*
X104290630Y-68240815D01*
X104614980Y-69025800D01*
X105215041Y-69626909D01*
X105999459Y-69952628D01*
X106848815Y-69953370D01*
X107633800Y-69629020D01*
X108234909Y-69028959D01*
X108560628Y-68244541D01*
X108560631Y-68240815D01*
X162456630Y-68240815D01*
X162780980Y-69025800D01*
X163381041Y-69626909D01*
X164165459Y-69952628D01*
X165014815Y-69953370D01*
X165799800Y-69629020D01*
X166400909Y-69028959D01*
X166726628Y-68244541D01*
X166727370Y-67395185D01*
X166403020Y-66610200D01*
X165802959Y-66009091D01*
X165018541Y-65683372D01*
X164169185Y-65682630D01*
X163384200Y-66006980D01*
X162783091Y-66607041D01*
X162457372Y-67391459D01*
X162456630Y-68240815D01*
X108560631Y-68240815D01*
X108561370Y-67395185D01*
X108237020Y-66610200D01*
X107636959Y-66009091D01*
X106852541Y-65683372D01*
X106003185Y-65682630D01*
X105218200Y-66006980D01*
X104617091Y-66607041D01*
X104291372Y-67391459D01*
X104290630Y-68240815D01*
X103710000Y-68240815D01*
X103710000Y-64251470D01*
X103758206Y-64009122D01*
X103854905Y-63864401D01*
X103999626Y-63767702D01*
X104239441Y-63720000D01*
X166770069Y-63720000D01*
X167010713Y-63767867D01*
X167010713Y-63767867D01*
G37*
X167010713Y-63767867D02*
X167155434Y-63864566D01*
X167252133Y-64009287D01*
X167299981Y-64249834D01*
X167290025Y-100308403D01*
X167241794Y-100550878D01*
X167145095Y-100695599D01*
X167000374Y-100792298D01*
X166760559Y-100840000D01*
X104239931Y-100840000D01*
X103999287Y-100792133D01*
X103854566Y-100695434D01*
X103757867Y-100550713D01*
X103710000Y-100310069D01*
X103710000Y-99230355D01*
X105420373Y-99230355D01*
X105686932Y-99809726D01*
X106154916Y-100242987D01*
X106629646Y-100439619D01*
X106883000Y-100320265D01*
X106883000Y-98977000D01*
X107137000Y-98977000D01*
X107137000Y-100320265D01*
X107390354Y-100439619D01*
X107865084Y-100242987D01*
X108333068Y-99809726D01*
X108599627Y-99230355D01*
X108480807Y-98977000D01*
X107137000Y-98977000D01*
X106883000Y-98977000D01*
X105539193Y-98977000D01*
X105420373Y-99230355D01*
X103710000Y-99230355D01*
X103710000Y-92770510D01*
X105363070Y-92770510D01*
X105363070Y-94769490D01*
X105407348Y-95004807D01*
X105546420Y-95220931D01*
X105712473Y-95334390D01*
X105499928Y-95652486D01*
X105375510Y-96277978D01*
X105375510Y-96342022D01*
X105499928Y-96967514D01*
X105854241Y-97497781D01*
X106003300Y-97597379D01*
X105686932Y-97890274D01*
X105420373Y-98469645D01*
X105539193Y-98723000D01*
X106883000Y-98723000D01*
X106883000Y-98703000D01*
X107137000Y-98703000D01*
X107137000Y-98723000D01*
X108480807Y-98723000D01*
X108497429Y-98687556D01*
X116908120Y-98687556D01*
X117151455Y-99203976D01*
X117573893Y-99587966D01*
X117974444Y-99753880D01*
X118200898Y-99632268D01*
X118200898Y-98461102D01*
X118454898Y-98461102D01*
X118454898Y-99632268D01*
X118681352Y-99753880D01*
X119197772Y-99510545D01*
X119581762Y-99088107D01*
X119747676Y-98687556D01*
X124092324Y-98687556D01*
X124335659Y-99203976D01*
X124758097Y-99587966D01*
X125158648Y-99753880D01*
X125385102Y-99632268D01*
X125385102Y-98461102D01*
X125639102Y-98461102D01*
X125639102Y-99632268D01*
X125865556Y-99753880D01*
X126381976Y-99510545D01*
X126765966Y-99088107D01*
X126931880Y-98687556D01*
X126810268Y-98461102D01*
X125639102Y-98461102D01*
X125385102Y-98461102D01*
X124213936Y-98461102D01*
X124092324Y-98687556D01*
X119747676Y-98687556D01*
X119626064Y-98461102D01*
X118454898Y-98461102D01*
X118200898Y-98461102D01*
X117029732Y-98461102D01*
X116908120Y-98687556D01*
X108497429Y-98687556D01*
X108599627Y-98469645D01*
X108333068Y-97890274D01*
X108016700Y-97597379D01*
X108165759Y-97497781D01*
X108520072Y-96967514D01*
X108644490Y-96342022D01*
X108644490Y-96277978D01*
X108520072Y-95652486D01*
X108306547Y-95332923D01*
X108460931Y-95233580D01*
X108605921Y-95021380D01*
X108656930Y-94769490D01*
X108656930Y-92770510D01*
X108612652Y-92535193D01*
X108473580Y-92319069D01*
X108261380Y-92174079D01*
X108009490Y-92123070D01*
X106010510Y-92123070D01*
X105775193Y-92167348D01*
X105559069Y-92306420D01*
X105414079Y-92518620D01*
X105363070Y-92770510D01*
X103710000Y-92770510D01*
X103710000Y-91503352D01*
X116908120Y-91503352D01*
X117151455Y-92019772D01*
X117573893Y-92403762D01*
X117974444Y-92569676D01*
X118200898Y-92448064D01*
X118200898Y-91276898D01*
X118454898Y-91276898D01*
X118454898Y-92448064D01*
X118681352Y-92569676D01*
X119197772Y-92326341D01*
X119581762Y-91903903D01*
X119747676Y-91503352D01*
X124092324Y-91503352D01*
X124335659Y-92019772D01*
X124758097Y-92403762D01*
X125158648Y-92569676D01*
X125385102Y-92448064D01*
X125385102Y-91276898D01*
X125639102Y-91276898D01*
X125639102Y-92448064D01*
X125865556Y-92569676D01*
X126381976Y-92326341D01*
X126765966Y-91903903D01*
X126931880Y-91503352D01*
X126810268Y-91276898D01*
X125639102Y-91276898D01*
X125385102Y-91276898D01*
X124213936Y-91276898D01*
X124092324Y-91503352D01*
X119747676Y-91503352D01*
X119626064Y-91276898D01*
X118454898Y-91276898D01*
X118200898Y-91276898D01*
X117029732Y-91276898D01*
X116908120Y-91503352D01*
X103710000Y-91503352D01*
X103710000Y-90796444D01*
X116908120Y-90796444D01*
X117029732Y-91022898D01*
X118200898Y-91022898D01*
X118200898Y-89851732D01*
X118454898Y-89851732D01*
X118454898Y-91022898D01*
X119626064Y-91022898D01*
X119747676Y-90796444D01*
X124092324Y-90796444D01*
X124213936Y-91022898D01*
X125385102Y-91022898D01*
X125385102Y-89851732D01*
X125639102Y-89851732D01*
X125639102Y-91022898D01*
X126810268Y-91022898D01*
X126931880Y-90796444D01*
X126688545Y-90280024D01*
X126266107Y-89896034D01*
X125865556Y-89730120D01*
X125639102Y-89851732D01*
X125385102Y-89851732D01*
X125158648Y-89730120D01*
X124642228Y-89973455D01*
X124258238Y-90395893D01*
X124092324Y-90796444D01*
X119747676Y-90796444D01*
X119504341Y-90280024D01*
X119081903Y-89896034D01*
X118681352Y-89730120D01*
X118454898Y-89851732D01*
X118200898Y-89851732D01*
X117974444Y-89730120D01*
X117458024Y-89973455D01*
X117074034Y-90395893D01*
X116908120Y-90796444D01*
X103710000Y-90796444D01*
X103710000Y-86749556D01*
X110304120Y-86749556D01*
X110547455Y-87265976D01*
X110969893Y-87649966D01*
X111370444Y-87815880D01*
X111596898Y-87694268D01*
X111596898Y-86523102D01*
X111850898Y-86523102D01*
X111850898Y-87694268D01*
X112077352Y-87815880D01*
X112593772Y-87572545D01*
X112977762Y-87150107D01*
X113143676Y-86749556D01*
X117488324Y-86749556D01*
X117731659Y-87265976D01*
X118154097Y-87649966D01*
X118554648Y-87815880D01*
X118781102Y-87694268D01*
X118781102Y-86523102D01*
X119035102Y-86523102D01*
X119035102Y-87694268D01*
X119261556Y-87815880D01*
X119777976Y-87572545D01*
X120161966Y-87150107D01*
X120327880Y-86749556D01*
X123512120Y-86749556D01*
X123755455Y-87265976D01*
X124177893Y-87649966D01*
X124578444Y-87815880D01*
X124804898Y-87694268D01*
X124804898Y-86523102D01*
X125058898Y-86523102D01*
X125058898Y-87694268D01*
X125285352Y-87815880D01*
X125801772Y-87572545D01*
X126185762Y-87150107D01*
X126351676Y-86749556D01*
X126230064Y-86523102D01*
X125058898Y-86523102D01*
X124804898Y-86523102D01*
X123633732Y-86523102D01*
X123512120Y-86749556D01*
X120327880Y-86749556D01*
X120206268Y-86523102D01*
X119035102Y-86523102D01*
X118781102Y-86523102D01*
X117609936Y-86523102D01*
X117488324Y-86749556D01*
X113143676Y-86749556D01*
X113022064Y-86523102D01*
X111850898Y-86523102D01*
X111596898Y-86523102D01*
X110425732Y-86523102D01*
X110304120Y-86749556D01*
X103710000Y-86749556D01*
X103710000Y-86042648D01*
X110304120Y-86042648D01*
X110425732Y-86269102D01*
X111596898Y-86269102D01*
X111596898Y-85097936D01*
X111850898Y-85097936D01*
X111850898Y-86269102D01*
X113022064Y-86269102D01*
X113143676Y-86042648D01*
X117488324Y-86042648D01*
X117609936Y-86269102D01*
X118781102Y-86269102D01*
X118781102Y-85097936D01*
X119035102Y-85097936D01*
X119035102Y-86269102D01*
X120206268Y-86269102D01*
X120327880Y-86042648D01*
X123512120Y-86042648D01*
X123633732Y-86269102D01*
X124804898Y-86269102D01*
X124804898Y-85097936D01*
X125058898Y-85097936D01*
X125058898Y-86269102D01*
X126230064Y-86269102D01*
X126351676Y-86042648D01*
X126108341Y-85526228D01*
X125685903Y-85142238D01*
X125285352Y-84976324D01*
X125058898Y-85097936D01*
X124804898Y-85097936D01*
X124578444Y-84976324D01*
X124062024Y-85219659D01*
X123678034Y-85642097D01*
X123512120Y-86042648D01*
X120327880Y-86042648D01*
X120084545Y-85526228D01*
X119662107Y-85142238D01*
X119261556Y-84976324D01*
X119035102Y-85097936D01*
X118781102Y-85097936D01*
X118554648Y-84976324D01*
X118038228Y-85219659D01*
X117654238Y-85642097D01*
X117488324Y-86042648D01*
X113143676Y-86042648D01*
X112900341Y-85526228D01*
X112477903Y-85142238D01*
X112077352Y-84976324D01*
X111850898Y-85097936D01*
X111596898Y-85097936D01*
X111370444Y-84976324D01*
X110854024Y-85219659D01*
X110470034Y-85642097D01*
X110304120Y-86042648D01*
X103710000Y-86042648D01*
X103710000Y-83048579D01*
X114080786Y-83048579D01*
X114268408Y-83502657D01*
X114615515Y-83850371D01*
X115069266Y-84038785D01*
X115560579Y-84039214D01*
X116014657Y-83851592D01*
X116362371Y-83504485D01*
X116550785Y-83050734D01*
X116551214Y-82559421D01*
X116363592Y-82105343D01*
X116016485Y-81757629D01*
X115562734Y-81569215D01*
X115071421Y-81568786D01*
X114617343Y-81756408D01*
X114269629Y-82103515D01*
X114081215Y-82557266D01*
X114080786Y-83048579D01*
X103710000Y-83048579D01*
X103710000Y-79565352D01*
X110304120Y-79565352D01*
X110547455Y-80081772D01*
X110969893Y-80465762D01*
X111370444Y-80631676D01*
X111596898Y-80510064D01*
X111596898Y-79338898D01*
X111850898Y-79338898D01*
X111850898Y-80510064D01*
X112077352Y-80631676D01*
X112593772Y-80388341D01*
X112977762Y-79965903D01*
X113143676Y-79565352D01*
X117488324Y-79565352D01*
X117731659Y-80081772D01*
X118154097Y-80465762D01*
X118554648Y-80631676D01*
X118781102Y-80510064D01*
X118781102Y-79338898D01*
X119035102Y-79338898D01*
X119035102Y-80510064D01*
X119261556Y-80631676D01*
X119777976Y-80388341D01*
X120161966Y-79965903D01*
X120327880Y-79565352D01*
X123512120Y-79565352D01*
X123755455Y-80081772D01*
X124177893Y-80465762D01*
X124578444Y-80631676D01*
X124804898Y-80510064D01*
X124804898Y-79338898D01*
X125058898Y-79338898D01*
X125058898Y-80510064D01*
X125285352Y-80631676D01*
X125801772Y-80388341D01*
X126185762Y-79965903D01*
X126351676Y-79565352D01*
X126230064Y-79338898D01*
X125058898Y-79338898D01*
X124804898Y-79338898D01*
X123633732Y-79338898D01*
X123512120Y-79565352D01*
X120327880Y-79565352D01*
X120206268Y-79338898D01*
X119035102Y-79338898D01*
X118781102Y-79338898D01*
X117609936Y-79338898D01*
X117488324Y-79565352D01*
X113143676Y-79565352D01*
X113022064Y-79338898D01*
X111850898Y-79338898D01*
X111596898Y-79338898D01*
X110425732Y-79338898D01*
X110304120Y-79565352D01*
X103710000Y-79565352D01*
X103710000Y-78858444D01*
X110304120Y-78858444D01*
X110425732Y-79084898D01*
X111596898Y-79084898D01*
X111596898Y-77913732D01*
X111850898Y-77913732D01*
X111850898Y-79084898D01*
X113022064Y-79084898D01*
X113143676Y-78858444D01*
X117488324Y-78858444D01*
X117609936Y-79084898D01*
X118781102Y-79084898D01*
X118781102Y-77913732D01*
X119035102Y-77913732D01*
X119035102Y-79084898D01*
X120206268Y-79084898D01*
X120327880Y-78858444D01*
X123512120Y-78858444D01*
X123633732Y-79084898D01*
X124804898Y-79084898D01*
X124804898Y-77913732D01*
X125058898Y-77913732D01*
X125058898Y-79084898D01*
X126230064Y-79084898D01*
X126351676Y-78858444D01*
X126108341Y-78342024D01*
X125685903Y-77958034D01*
X125285352Y-77792120D01*
X125058898Y-77913732D01*
X124804898Y-77913732D01*
X124578444Y-77792120D01*
X124062024Y-78035455D01*
X123678034Y-78457893D01*
X123512120Y-78858444D01*
X120327880Y-78858444D01*
X120084545Y-78342024D01*
X119662107Y-77958034D01*
X119261556Y-77792120D01*
X119035102Y-77913732D01*
X118781102Y-77913732D01*
X118554648Y-77792120D01*
X118038228Y-78035455D01*
X117654238Y-78457893D01*
X117488324Y-78858444D01*
X113143676Y-78858444D01*
X112900341Y-78342024D01*
X112477903Y-77958034D01*
X112077352Y-77792120D01*
X111850898Y-77913732D01*
X111596898Y-77913732D01*
X111370444Y-77792120D01*
X110854024Y-78035455D01*
X110470034Y-78457893D01*
X110304120Y-78858444D01*
X103710000Y-78858444D01*
X103710000Y-73161815D01*
X104290630Y-73161815D01*
X104614980Y-73946800D01*
X105215041Y-74547909D01*
X105999459Y-74873628D01*
X106848815Y-74874370D01*
X107633800Y-74550020D01*
X108234909Y-73949959D01*
X108560628Y-73165541D01*
X108560734Y-73043680D01*
X109862560Y-73043680D01*
X109862560Y-74743680D01*
X109906838Y-74978997D01*
X110045910Y-75195121D01*
X110258110Y-75340111D01*
X110510000Y-75391120D01*
X112210000Y-75391120D01*
X112445317Y-75346842D01*
X112661441Y-75207770D01*
X112806431Y-74995570D01*
X112820086Y-74928139D01*
X112849946Y-74972827D01*
X113331715Y-75294734D01*
X113900000Y-75407773D01*
X114468285Y-75294734D01*
X114950054Y-74972827D01*
X115170000Y-74643654D01*
X115389946Y-74972827D01*
X115871715Y-75294734D01*
X116440000Y-75407773D01*
X117008285Y-75294734D01*
X117490054Y-74972827D01*
X117710000Y-74643654D01*
X117929946Y-74972827D01*
X118411715Y-75294734D01*
X118980000Y-75407773D01*
X119548285Y-75294734D01*
X120030054Y-74972827D01*
X120257702Y-74632127D01*
X120324817Y-74775038D01*
X120753076Y-75165325D01*
X121163110Y-75335156D01*
X121393000Y-75213835D01*
X121393000Y-74020680D01*
X121373000Y-74020680D01*
X121373000Y-73766680D01*
X121393000Y-73766680D01*
X121393000Y-73746680D01*
X121647000Y-73746680D01*
X121647000Y-73766680D01*
X121667000Y-73766680D01*
X121667000Y-74020680D01*
X121647000Y-74020680D01*
X121647000Y-75213835D01*
X121876890Y-75335156D01*
X122286924Y-75165325D01*
X122715183Y-74775038D01*
X122782298Y-74632127D01*
X123009946Y-74972827D01*
X123491715Y-75294734D01*
X124060000Y-75407773D01*
X124628285Y-75294734D01*
X125110054Y-74972827D01*
X125330000Y-74643654D01*
X125549946Y-74972827D01*
X126031715Y-75294734D01*
X126600000Y-75407773D01*
X127168285Y-75294734D01*
X127650054Y-74972827D01*
X127870000Y-74643654D01*
X128089946Y-74972827D01*
X128571715Y-75294734D01*
X129120000Y-75403795D01*
X129120000Y-81714243D01*
X128770734Y-81569215D01*
X128279421Y-81568786D01*
X127825343Y-81756408D01*
X127477629Y-82103515D01*
X127289215Y-82557266D01*
X127288786Y-83048579D01*
X127476408Y-83502657D01*
X127823515Y-83850371D01*
X128277266Y-84038785D01*
X128768579Y-84039214D01*
X129120000Y-83894009D01*
X129120000Y-89210640D01*
X129005320Y-89325320D01*
X128991146Y-89346532D01*
X128877808Y-89459673D01*
X128815854Y-89608874D01*
X128801553Y-89630277D01*
X128796575Y-89655302D01*
X128735162Y-89803201D01*
X128735021Y-89964761D01*
X128730001Y-89990000D01*
X128734977Y-90015019D01*
X128734838Y-90175167D01*
X128796531Y-90324476D01*
X128801553Y-90349723D01*
X128815729Y-90370939D01*
X128876883Y-90518943D01*
X128991021Y-90633281D01*
X129005320Y-90654680D01*
X129026532Y-90668854D01*
X129139673Y-90782192D01*
X129288874Y-90844146D01*
X129310277Y-90858447D01*
X129335302Y-90863425D01*
X129483201Y-90924838D01*
X129644761Y-90924979D01*
X129670000Y-90929999D01*
X129695019Y-90925023D01*
X129855167Y-90925162D01*
X130004476Y-90863469D01*
X130029723Y-90858447D01*
X130050939Y-90844271D01*
X130198943Y-90783117D01*
X130313281Y-90668979D01*
X130334680Y-90654680D01*
X130724680Y-90264681D01*
X130928446Y-89959723D01*
X130928447Y-89959722D01*
X131000000Y-89600000D01*
X131000000Y-87320825D01*
X131362097Y-87649966D01*
X131762648Y-87815880D01*
X131989102Y-87694268D01*
X131989102Y-86523102D01*
X132243102Y-86523102D01*
X132243102Y-87694268D01*
X132469556Y-87815880D01*
X132985976Y-87572545D01*
X133369966Y-87150107D01*
X133535880Y-86749556D01*
X133414268Y-86523102D01*
X132243102Y-86523102D01*
X131989102Y-86523102D01*
X131000000Y-86523102D01*
X131000000Y-86269102D01*
X131989102Y-86269102D01*
X131989102Y-85097936D01*
X132243102Y-85097936D01*
X132243102Y-86269102D01*
X133414268Y-86269102D01*
X133535880Y-86042648D01*
X133292545Y-85526228D01*
X132870107Y-85142238D01*
X132469556Y-84976324D01*
X132243102Y-85097936D01*
X131989102Y-85097936D01*
X131762648Y-84976324D01*
X131246228Y-85219659D01*
X131000000Y-85490541D01*
X131000000Y-80136621D01*
X131362097Y-80465762D01*
X131762648Y-80631676D01*
X131989102Y-80510064D01*
X131989102Y-79338898D01*
X132243102Y-79338898D01*
X132243102Y-80510064D01*
X132469556Y-80631676D01*
X132985976Y-80388341D01*
X133369966Y-79965903D01*
X133535880Y-79565352D01*
X133414268Y-79338898D01*
X132243102Y-79338898D01*
X131989102Y-79338898D01*
X131000000Y-79338898D01*
X131000000Y-79084898D01*
X131989102Y-79084898D01*
X131989102Y-77913732D01*
X132243102Y-77913732D01*
X132243102Y-79084898D01*
X133414268Y-79084898D01*
X133535880Y-78858444D01*
X133292545Y-78342024D01*
X132870107Y-77958034D01*
X132469556Y-77792120D01*
X132243102Y-77913732D01*
X131989102Y-77913732D01*
X131762648Y-77792120D01*
X131246228Y-78035455D01*
X131000000Y-78306337D01*
X131000000Y-75220089D01*
X131111715Y-75294734D01*
X131680000Y-75407773D01*
X132210000Y-75302349D01*
X132210000Y-75610000D01*
X132267852Y-75900839D01*
X132432599Y-76147401D01*
X133492599Y-77207401D01*
X133739160Y-77372148D01*
X134030000Y-77430000D01*
X141817537Y-77430000D01*
X141849673Y-77462192D01*
X142193201Y-77604838D01*
X142530805Y-77605132D01*
X142500000Y-77760000D01*
X142500000Y-81690000D01*
X142530273Y-81842192D01*
X142533601Y-81858922D01*
X142432485Y-81757629D01*
X141978734Y-81569215D01*
X141487421Y-81568786D01*
X141033343Y-81756408D01*
X140685629Y-82103515D01*
X140497215Y-82557266D01*
X140496786Y-83048579D01*
X140684408Y-83502657D01*
X141031515Y-83850371D01*
X141485266Y-84038785D01*
X141976579Y-84039214D01*
X142430657Y-83851592D01*
X142778371Y-83504485D01*
X142966785Y-83050734D01*
X142967214Y-82559421D01*
X142958168Y-82537528D01*
X145381792Y-84961152D01*
X145039915Y-84960854D01*
X144512302Y-85178859D01*
X144234575Y-85456102D01*
X139229164Y-85456102D01*
X139079898Y-85306575D01*
X139079898Y-80301164D01*
X139355722Y-80025821D01*
X139574648Y-79498589D01*
X139575146Y-78927711D01*
X139357141Y-78400098D01*
X138953821Y-77996074D01*
X138426589Y-77777148D01*
X137855711Y-77776650D01*
X137328098Y-77994655D01*
X136924074Y-78397975D01*
X136705148Y-78925207D01*
X136704650Y-79496085D01*
X136922655Y-80023698D01*
X137199898Y-80301425D01*
X137199898Y-85306836D01*
X136924074Y-85582179D01*
X136705148Y-86109411D01*
X136704650Y-86680289D01*
X136922655Y-87207902D01*
X137199898Y-87485629D01*
X137199898Y-95130742D01*
X136850640Y-95480000D01*
X122928790Y-95480000D01*
X122966371Y-95442485D01*
X123154785Y-94988734D01*
X123155214Y-94497421D01*
X122967592Y-94043343D01*
X122620485Y-93695629D01*
X122166734Y-93507215D01*
X121675421Y-93506786D01*
X121221343Y-93694408D01*
X120873629Y-94041515D01*
X120685215Y-94495266D01*
X120684786Y-94986579D01*
X120872408Y-95440657D01*
X120911682Y-95480000D01*
X115019361Y-95480000D01*
X112224680Y-92685320D01*
X112203468Y-92671146D01*
X112090327Y-92557808D01*
X111941126Y-92495854D01*
X111919723Y-92481553D01*
X111894698Y-92476575D01*
X111746799Y-92415162D01*
X111585239Y-92415021D01*
X111560000Y-92410001D01*
X111534981Y-92414977D01*
X111374833Y-92414838D01*
X111225524Y-92476531D01*
X111200277Y-92481553D01*
X111179061Y-92495729D01*
X111031057Y-92556883D01*
X110916719Y-92671021D01*
X110895320Y-92685320D01*
X110881146Y-92706532D01*
X110767808Y-92819673D01*
X110705854Y-92968874D01*
X110691553Y-92990277D01*
X110686575Y-93015302D01*
X110625162Y-93163201D01*
X110625021Y-93324761D01*
X110620001Y-93350000D01*
X110624977Y-93375019D01*
X110624838Y-93535167D01*
X110686531Y-93684476D01*
X110691553Y-93709723D01*
X110705729Y-93730939D01*
X110766883Y-93878943D01*
X110881021Y-93993281D01*
X110895320Y-94014680D01*
X113965320Y-97084681D01*
X114270277Y-97288447D01*
X114630000Y-97360000D01*
X117236364Y-97360000D01*
X117205276Y-97391088D01*
X117226525Y-97412337D01*
X117074034Y-97580097D01*
X116908120Y-97980648D01*
X117029732Y-98207102D01*
X118021290Y-98207102D01*
X118134149Y-98319961D01*
X118313757Y-98140353D01*
X118200898Y-98027494D01*
X118200898Y-97360000D01*
X118454898Y-97360000D01*
X118454898Y-98027494D01*
X118342039Y-98140353D01*
X118521647Y-98319961D01*
X118634506Y-98207102D01*
X119626064Y-98207102D01*
X119747676Y-97980648D01*
X119504341Y-97464228D01*
X119437834Y-97403774D01*
X119450520Y-97391088D01*
X119419432Y-97360000D01*
X124420568Y-97360000D01*
X124389480Y-97391088D01*
X124410729Y-97412337D01*
X124258238Y-97580097D01*
X124092324Y-97980648D01*
X124213936Y-98207102D01*
X125205494Y-98207102D01*
X125318353Y-98319961D01*
X125497961Y-98140353D01*
X125385102Y-98027494D01*
X125385102Y-97360000D01*
X125639102Y-97360000D01*
X125639102Y-98027494D01*
X125526243Y-98140353D01*
X125705851Y-98319961D01*
X125818710Y-98207102D01*
X126810268Y-98207102D01*
X126931880Y-97980648D01*
X126688545Y-97464228D01*
X126622038Y-97403774D01*
X126634724Y-97391088D01*
X126603636Y-97360000D01*
X143688533Y-97360000D01*
X143528074Y-97520179D01*
X143309148Y-98047411D01*
X143308650Y-98618289D01*
X143526655Y-99145902D01*
X143929975Y-99549926D01*
X144457207Y-99768852D01*
X145028085Y-99769350D01*
X145555698Y-99551345D01*
X145833425Y-99274102D01*
X150838836Y-99274102D01*
X151114179Y-99549926D01*
X151641411Y-99768852D01*
X152212289Y-99769350D01*
X152739902Y-99551345D01*
X153143926Y-99148025D01*
X153362852Y-98620793D01*
X153363350Y-98049915D01*
X153145345Y-97522302D01*
X152983326Y-97360000D01*
X156100640Y-97360000D01*
X158205319Y-99464680D01*
X158332899Y-99549926D01*
X158510278Y-99668447D01*
X158870000Y-99740000D01*
X161853070Y-99740000D01*
X161853070Y-99799490D01*
X161897348Y-100034807D01*
X162036420Y-100250931D01*
X162248620Y-100395921D01*
X162500510Y-100446930D01*
X164499490Y-100446930D01*
X164734807Y-100402652D01*
X164950931Y-100263580D01*
X165095921Y-100051380D01*
X165146930Y-99799490D01*
X165146930Y-97800510D01*
X165102652Y-97565193D01*
X164963580Y-97349069D01*
X164797527Y-97235610D01*
X165010072Y-96917514D01*
X165134490Y-96292022D01*
X165134490Y-96227978D01*
X165010072Y-95602486D01*
X164655759Y-95072219D01*
X164506700Y-94972621D01*
X164823068Y-94679726D01*
X165089627Y-94100355D01*
X164970807Y-93847000D01*
X163627000Y-93847000D01*
X163627000Y-93867000D01*
X163373000Y-93867000D01*
X163373000Y-93847000D01*
X162029193Y-93847000D01*
X161910373Y-94100355D01*
X162176932Y-94679726D01*
X162493300Y-94972621D01*
X162344241Y-95072219D01*
X161989928Y-95602486D01*
X161865510Y-96227978D01*
X161865510Y-96292022D01*
X161989928Y-96917514D01*
X162203453Y-97237077D01*
X162049069Y-97336420D01*
X161904079Y-97548620D01*
X161853070Y-97800510D01*
X161853070Y-97860000D01*
X159259361Y-97860000D01*
X157154680Y-95755320D01*
X156849723Y-95551553D01*
X156790041Y-95539682D01*
X156490000Y-95480000D01*
X152868102Y-95480000D01*
X152868102Y-92239164D01*
X153143926Y-91963821D01*
X153362852Y-91436589D01*
X153363350Y-90865711D01*
X153145345Y-90338098D01*
X152742025Y-89934074D01*
X152287898Y-89745504D01*
X152287898Y-87485368D01*
X152563722Y-87210025D01*
X152782648Y-86682793D01*
X152783146Y-86111915D01*
X152565141Y-85584302D01*
X152287898Y-85306575D01*
X152287898Y-80301164D01*
X152437425Y-80151898D01*
X155033300Y-80151898D01*
X154402599Y-80782599D01*
X154237852Y-81029161D01*
X154180000Y-81320000D01*
X154180000Y-81817644D01*
X153893629Y-82103515D01*
X153705215Y-82557266D01*
X153704786Y-83048579D01*
X153892408Y-83502657D01*
X154239515Y-83850371D01*
X154693266Y-84038785D01*
X155184579Y-84039214D01*
X155638657Y-83851592D01*
X155986371Y-83504485D01*
X156174785Y-83050734D01*
X156175214Y-82559421D01*
X155987592Y-82105343D01*
X155700000Y-81817248D01*
X155700000Y-81634802D01*
X156299680Y-81035122D01*
X156345167Y-81035162D01*
X156688943Y-80893117D01*
X156952192Y-80630327D01*
X157094838Y-80286799D01*
X157094956Y-80151898D01*
X157442836Y-80151898D01*
X157592102Y-80301425D01*
X157592102Y-85306836D01*
X157316278Y-85582179D01*
X157097352Y-86109411D01*
X157096854Y-86680289D01*
X157314859Y-87207902D01*
X157718179Y-87611926D01*
X158245411Y-87830852D01*
X158816289Y-87831350D01*
X159343902Y-87613345D01*
X159747926Y-87210025D01*
X159966852Y-86682793D01*
X159967350Y-86111915D01*
X159749345Y-85584302D01*
X159472102Y-85306575D01*
X159472102Y-80301164D01*
X159747926Y-80025821D01*
X159966852Y-79498589D01*
X159967350Y-78927711D01*
X159749345Y-78400098D01*
X159346025Y-77996074D01*
X158818793Y-77777148D01*
X158247915Y-77776650D01*
X157720302Y-77994655D01*
X157442575Y-78271898D01*
X152437164Y-78271898D01*
X152161821Y-77996074D01*
X151634589Y-77777148D01*
X151063711Y-77776650D01*
X150536098Y-77994655D01*
X150258371Y-78271898D01*
X149537462Y-78271898D01*
X150124680Y-77684680D01*
X150328447Y-77379723D01*
X150352206Y-77260277D01*
X150400000Y-77020000D01*
X150400000Y-75046363D01*
X150510054Y-74972827D01*
X150730000Y-74643654D01*
X150949946Y-74972827D01*
X151431715Y-75294734D01*
X152000000Y-75407773D01*
X152568285Y-75294734D01*
X153050054Y-74972827D01*
X153270000Y-74643654D01*
X153489946Y-74972827D01*
X153971715Y-75294734D01*
X154540000Y-75407773D01*
X155108285Y-75294734D01*
X155590054Y-74972827D01*
X155810000Y-74643654D01*
X156029946Y-74972827D01*
X156511715Y-75294734D01*
X157080000Y-75407773D01*
X157648285Y-75294734D01*
X157883060Y-75137862D01*
X161180000Y-78434802D01*
X161180000Y-86215198D01*
X155180320Y-92214878D01*
X155134833Y-92214838D01*
X154791057Y-92356883D01*
X154527808Y-92619673D01*
X154385162Y-92963201D01*
X154384838Y-93335167D01*
X154526883Y-93678943D01*
X154789673Y-93942192D01*
X155133201Y-94084838D01*
X155505167Y-94085162D01*
X155848943Y-93943117D01*
X156112192Y-93680327D01*
X156253656Y-93339645D01*
X161910373Y-93339645D01*
X162029193Y-93593000D01*
X163373000Y-93593000D01*
X163373000Y-92249735D01*
X163627000Y-92249735D01*
X163627000Y-93593000D01*
X164970807Y-93593000D01*
X165089627Y-93339645D01*
X164823068Y-92760274D01*
X164355084Y-92327013D01*
X163880354Y-92130381D01*
X163627000Y-92249735D01*
X163373000Y-92249735D01*
X163119646Y-92130381D01*
X162644916Y-92327013D01*
X162176932Y-92760274D01*
X161910373Y-93339645D01*
X156253656Y-93339645D01*
X156254838Y-93336799D01*
X156254879Y-93289923D01*
X162477401Y-87067401D01*
X162642148Y-86820839D01*
X162700000Y-86530000D01*
X162700000Y-78120000D01*
X162642148Y-77829161D01*
X162477401Y-77582599D01*
X160155839Y-75261037D01*
X160386924Y-75165325D01*
X160815183Y-74775038D01*
X161061486Y-74250572D01*
X160940819Y-74020680D01*
X159747000Y-74020680D01*
X159747000Y-74040680D01*
X159493000Y-74040680D01*
X159493000Y-74020680D01*
X159473000Y-74020680D01*
X159473000Y-73766680D01*
X159493000Y-73766680D01*
X159493000Y-73746680D01*
X159747000Y-73746680D01*
X159747000Y-73766680D01*
X160940819Y-73766680D01*
X161061486Y-73536788D01*
X160885389Y-73161815D01*
X162456630Y-73161815D01*
X162780980Y-73946800D01*
X163381041Y-74547909D01*
X164165459Y-74873628D01*
X165014815Y-74874370D01*
X165799800Y-74550020D01*
X166400909Y-73949959D01*
X166726628Y-73165541D01*
X166727370Y-72316185D01*
X166403020Y-71531200D01*
X165802959Y-70930091D01*
X165018541Y-70604372D01*
X164169185Y-70603630D01*
X163384200Y-70927980D01*
X162783091Y-71528041D01*
X162457372Y-72312459D01*
X162456630Y-73161815D01*
X160885389Y-73161815D01*
X160815183Y-73012322D01*
X160386924Y-72622035D01*
X160386899Y-72622025D01*
X160670054Y-72432827D01*
X160991961Y-71951058D01*
X161105000Y-71382773D01*
X161105000Y-71324587D01*
X160991961Y-70756302D01*
X160670054Y-70274533D01*
X160188285Y-69952626D01*
X159620000Y-69839587D01*
X159051715Y-69952626D01*
X158569946Y-70274533D01*
X158350000Y-70603706D01*
X158130054Y-70274533D01*
X157648285Y-69952626D01*
X157080000Y-69839587D01*
X156511715Y-69952626D01*
X156029946Y-70274533D01*
X155810000Y-70603706D01*
X155590054Y-70274533D01*
X155108285Y-69952626D01*
X154540000Y-69839587D01*
X153971715Y-69952626D01*
X153489946Y-70274533D01*
X153262298Y-70615233D01*
X153195183Y-70472322D01*
X152766924Y-70082035D01*
X152356890Y-69912204D01*
X152127000Y-70033525D01*
X152127000Y-71226680D01*
X152147000Y-71226680D01*
X152147000Y-71480680D01*
X152127000Y-71480680D01*
X152127000Y-71500680D01*
X151873000Y-71500680D01*
X151873000Y-71480680D01*
X151853000Y-71480680D01*
X151853000Y-71226680D01*
X151873000Y-71226680D01*
X151873000Y-70033525D01*
X151643110Y-69912204D01*
X151233076Y-70082035D01*
X150804817Y-70472322D01*
X150737702Y-70615233D01*
X150510054Y-70274533D01*
X150028285Y-69952626D01*
X149460000Y-69839587D01*
X148891715Y-69952626D01*
X148409946Y-70274533D01*
X148182298Y-70615233D01*
X148115183Y-70472322D01*
X147686924Y-70082035D01*
X147276890Y-69912204D01*
X147047000Y-70033525D01*
X147047000Y-71226680D01*
X147067000Y-71226680D01*
X147067000Y-71480680D01*
X147047000Y-71480680D01*
X147047000Y-71500680D01*
X146793000Y-71500680D01*
X146793000Y-71480680D01*
X146773000Y-71480680D01*
X146773000Y-71226680D01*
X146793000Y-71226680D01*
X146793000Y-70033525D01*
X146563110Y-69912204D01*
X146153076Y-70082035D01*
X145724817Y-70472322D01*
X145657702Y-70615233D01*
X145430054Y-70274533D01*
X144948285Y-69952626D01*
X144380000Y-69839587D01*
X143811715Y-69952626D01*
X143329946Y-70274533D01*
X143110000Y-70603706D01*
X142890054Y-70274533D01*
X142408285Y-69952626D01*
X141840000Y-69839587D01*
X141271715Y-69952626D01*
X140789946Y-70274533D01*
X140570000Y-70603706D01*
X140350054Y-70274533D01*
X139868285Y-69952626D01*
X139300000Y-69839587D01*
X138731715Y-69952626D01*
X138249946Y-70274533D01*
X138030000Y-70603706D01*
X137810054Y-70274533D01*
X137328285Y-69952626D01*
X136760000Y-69839587D01*
X136191715Y-69952626D01*
X135709946Y-70274533D01*
X135482298Y-70615233D01*
X135415183Y-70472322D01*
X134986924Y-70082035D01*
X134576890Y-69912204D01*
X134347000Y-70033525D01*
X134347000Y-71226680D01*
X134367000Y-71226680D01*
X134367000Y-71480680D01*
X134347000Y-71480680D01*
X134347000Y-71500680D01*
X134093000Y-71500680D01*
X134093000Y-71480680D01*
X134073000Y-71480680D01*
X134073000Y-71226680D01*
X134093000Y-71226680D01*
X134093000Y-70033525D01*
X133863110Y-69912204D01*
X133453076Y-70082035D01*
X133024817Y-70472322D01*
X132957702Y-70615233D01*
X132730054Y-70274533D01*
X132248285Y-69952626D01*
X131680000Y-69839587D01*
X131111715Y-69952626D01*
X130629946Y-70274533D01*
X130410000Y-70603706D01*
X130190054Y-70274533D01*
X129708285Y-69952626D01*
X129140000Y-69839587D01*
X128571715Y-69952626D01*
X128089946Y-70274533D01*
X127862298Y-70615233D01*
X127795183Y-70472322D01*
X127366924Y-70082035D01*
X126956890Y-69912204D01*
X126727000Y-70033525D01*
X126727000Y-71226680D01*
X126747000Y-71226680D01*
X126747000Y-71480680D01*
X126727000Y-71480680D01*
X126727000Y-71500680D01*
X126473000Y-71500680D01*
X126473000Y-71480680D01*
X126453000Y-71480680D01*
X126453000Y-71226680D01*
X126473000Y-71226680D01*
X126473000Y-70033525D01*
X126243110Y-69912204D01*
X125833076Y-70082035D01*
X125404817Y-70472322D01*
X125337702Y-70615233D01*
X125110054Y-70274533D01*
X124628285Y-69952626D01*
X124060000Y-69839587D01*
X123491715Y-69952626D01*
X123009946Y-70274533D01*
X122790000Y-70603706D01*
X122570054Y-70274533D01*
X122088285Y-69952626D01*
X121520000Y-69839587D01*
X120951715Y-69952626D01*
X120469946Y-70274533D01*
X120250000Y-70603706D01*
X120030054Y-70274533D01*
X119548285Y-69952626D01*
X118980000Y-69839587D01*
X118411715Y-69952626D01*
X117929946Y-70274533D01*
X117702298Y-70615233D01*
X117635183Y-70472322D01*
X117206924Y-70082035D01*
X116796890Y-69912204D01*
X116567000Y-70033525D01*
X116567000Y-71226680D01*
X116587000Y-71226680D01*
X116587000Y-71480680D01*
X116567000Y-71480680D01*
X116567000Y-71500680D01*
X116313000Y-71500680D01*
X116313000Y-71480680D01*
X116293000Y-71480680D01*
X116293000Y-71226680D01*
X116313000Y-71226680D01*
X116313000Y-70033525D01*
X116083110Y-69912204D01*
X115673076Y-70082035D01*
X115244817Y-70472322D01*
X115177702Y-70615233D01*
X114950054Y-70274533D01*
X114468285Y-69952626D01*
X113900000Y-69839587D01*
X113331715Y-69952626D01*
X112849946Y-70274533D01*
X112630000Y-70603706D01*
X112410054Y-70274533D01*
X111928285Y-69952626D01*
X111360000Y-69839587D01*
X110791715Y-69952626D01*
X110309946Y-70274533D01*
X109988039Y-70756302D01*
X109875000Y-71324587D01*
X109875000Y-71382773D01*
X109988039Y-71951058D01*
X110309946Y-72432827D01*
X110311179Y-72433651D01*
X110274683Y-72440518D01*
X110058559Y-72579590D01*
X109913569Y-72791790D01*
X109862560Y-73043680D01*
X108560734Y-73043680D01*
X108561370Y-72316185D01*
X108237020Y-71531200D01*
X107636959Y-70930091D01*
X106852541Y-70604372D01*
X106003185Y-70603630D01*
X105218200Y-70927980D01*
X104617091Y-71528041D01*
X104291372Y-72312459D01*
X104290630Y-73161815D01*
X103710000Y-73161815D01*
X103710000Y-68240815D01*
X104290630Y-68240815D01*
X104614980Y-69025800D01*
X105215041Y-69626909D01*
X105999459Y-69952628D01*
X106848815Y-69953370D01*
X107633800Y-69629020D01*
X108234909Y-69028959D01*
X108560628Y-68244541D01*
X108560631Y-68240815D01*
X162456630Y-68240815D01*
X162780980Y-69025800D01*
X163381041Y-69626909D01*
X164165459Y-69952628D01*
X165014815Y-69953370D01*
X165799800Y-69629020D01*
X166400909Y-69028959D01*
X166726628Y-68244541D01*
X166727370Y-67395185D01*
X166403020Y-66610200D01*
X165802959Y-66009091D01*
X165018541Y-65683372D01*
X164169185Y-65682630D01*
X163384200Y-66006980D01*
X162783091Y-66607041D01*
X162457372Y-67391459D01*
X162456630Y-68240815D01*
X108560631Y-68240815D01*
X108561370Y-67395185D01*
X108237020Y-66610200D01*
X107636959Y-66009091D01*
X106852541Y-65683372D01*
X106003185Y-65682630D01*
X105218200Y-66006980D01*
X104617091Y-66607041D01*
X104291372Y-67391459D01*
X104290630Y-68240815D01*
X103710000Y-68240815D01*
X103710000Y-64251470D01*
X103758206Y-64009122D01*
X103854905Y-63864401D01*
X103999626Y-63767702D01*
X104239441Y-63720000D01*
X166770069Y-63720000D01*
X167010713Y-63767867D01*
G36*
X141967000Y-73766680D02*
X141987000Y-73766680D01*
X141987000Y-74020680D01*
X141967000Y-74020680D01*
X141967000Y-75213835D01*
X142196890Y-75335156D01*
X142606924Y-75165325D01*
X143035183Y-74775038D01*
X143102298Y-74632127D01*
X143329946Y-74972827D01*
X143811715Y-75294734D01*
X144380000Y-75407773D01*
X144483443Y-75387197D01*
X143315100Y-76555539D01*
X143315162Y-76484833D01*
X143173117Y-76141057D01*
X142910327Y-75877808D01*
X142566799Y-75735162D01*
X142194833Y-75734838D01*
X141851057Y-75876883D01*
X141817882Y-75910000D01*
X134344802Y-75910000D01*
X133748859Y-75314057D01*
X134220000Y-75407773D01*
X134788285Y-75294734D01*
X135270054Y-74972827D01*
X135490000Y-74643654D01*
X135709946Y-74972827D01*
X136191715Y-75294734D01*
X136760000Y-75407773D01*
X137328285Y-75294734D01*
X137810054Y-74972827D01*
X138030000Y-74643654D01*
X138249946Y-74972827D01*
X138731715Y-75294734D01*
X139300000Y-75407773D01*
X139868285Y-75294734D01*
X140350054Y-74972827D01*
X140577702Y-74632127D01*
X140644817Y-74775038D01*
X141073076Y-75165325D01*
X141483110Y-75335156D01*
X141713000Y-75213835D01*
X141713000Y-74020680D01*
X141693000Y-74020680D01*
X141693000Y-73766680D01*
X141713000Y-73766680D01*
X141713000Y-73746680D01*
X141967000Y-73746680D01*
X141967000Y-73766680D01*
X141967000Y-73766680D01*
G37*
X141967000Y-73766680D02*
X141987000Y-73766680D01*
X141987000Y-74020680D01*
X141967000Y-74020680D01*
X141967000Y-75213835D01*
X142196890Y-75335156D01*
X142606924Y-75165325D01*
X143035183Y-74775038D01*
X143102298Y-74632127D01*
X143329946Y-74972827D01*
X143811715Y-75294734D01*
X144380000Y-75407773D01*
X144483443Y-75387197D01*
X143315100Y-76555539D01*
X143315162Y-76484833D01*
X143173117Y-76141057D01*
X142910327Y-75877808D01*
X142566799Y-75735162D01*
X142194833Y-75734838D01*
X141851057Y-75876883D01*
X141817882Y-75910000D01*
X134344802Y-75910000D01*
X133748859Y-75314057D01*
X134220000Y-75407773D01*
X134788285Y-75294734D01*
X135270054Y-74972827D01*
X135490000Y-74643654D01*
X135709946Y-74972827D01*
X136191715Y-75294734D01*
X136760000Y-75407773D01*
X137328285Y-75294734D01*
X137810054Y-74972827D01*
X138030000Y-74643654D01*
X138249946Y-74972827D01*
X138731715Y-75294734D01*
X139300000Y-75407773D01*
X139868285Y-75294734D01*
X140350054Y-74972827D01*
X140577702Y-74632127D01*
X140644817Y-74775038D01*
X141073076Y-75165325D01*
X141483110Y-75335156D01*
X141713000Y-75213835D01*
X141713000Y-74020680D01*
X141693000Y-74020680D01*
X141693000Y-73766680D01*
X141713000Y-73766680D01*
X141713000Y-73746680D01*
X141967000Y-73746680D01*
X141967000Y-73766680D01*
M02*
