G04 #@! TF.FileFunction,Soldermask,Bot*
%FSLAX46Y46*%
G04 Gerber Fmt 4.6, Leading zero omitted, Abs format (unit mm)*
G04 Created by KiCad (PCBNEW 4.0.7) date Wednesday, 28. February 2018 'u13' 15:13:27*
%MOMM*%
%LPD*%
G01*
G04 APERTURE LIST*
%ADD10C,0.100000*%
%ADD11C,1.600000*%
%ADD12C,2.000000*%
%ADD13R,2.100000X2.100000*%
%ADD14O,2.100000X2.100000*%
%ADD15O,2.398980X2.398980*%
%ADD16R,2.398980X2.398980*%
%ADD17C,3.400000*%
G04 APERTURE END LIST*
D10*
D11*
X141732000Y-82804000D03*
D12*
X138139898Y-79211898D03*
X145324102Y-79211898D03*
X138139898Y-86396102D03*
X145324102Y-86396102D03*
D13*
X111360000Y-73893680D03*
D14*
X111360000Y-71353680D03*
X113900000Y-73893680D03*
X113900000Y-71353680D03*
X116440000Y-73893680D03*
X116440000Y-71353680D03*
X118980000Y-73893680D03*
X118980000Y-71353680D03*
X121520000Y-73893680D03*
X121520000Y-71353680D03*
X124060000Y-73893680D03*
X124060000Y-71353680D03*
X126600000Y-73893680D03*
X126600000Y-71353680D03*
X129140000Y-73893680D03*
X129140000Y-71353680D03*
X131680000Y-73893680D03*
X131680000Y-71353680D03*
X134220000Y-73893680D03*
X134220000Y-71353680D03*
X136760000Y-73893680D03*
X136760000Y-71353680D03*
X139300000Y-73893680D03*
X139300000Y-71353680D03*
X141840000Y-73893680D03*
X141840000Y-71353680D03*
X144380000Y-73893680D03*
X144380000Y-71353680D03*
X146920000Y-73893680D03*
X146920000Y-71353680D03*
X149460000Y-73893680D03*
X149460000Y-71353680D03*
X152000000Y-73893680D03*
X152000000Y-71353680D03*
X154540000Y-73893680D03*
X154540000Y-71353680D03*
X157080000Y-73893680D03*
X157080000Y-71353680D03*
X159620000Y-73893680D03*
X159620000Y-71353680D03*
D11*
X115316000Y-82804000D03*
D12*
X111723898Y-79211898D03*
X118908102Y-79211898D03*
X111723898Y-86396102D03*
X118908102Y-86396102D03*
D11*
X128524000Y-82804000D03*
D12*
X124931898Y-79211898D03*
X132116102Y-79211898D03*
X124931898Y-86396102D03*
X132116102Y-86396102D03*
D11*
X121920000Y-94742000D03*
D12*
X118327898Y-91149898D03*
X125512102Y-91149898D03*
X118327898Y-98334102D03*
X125512102Y-98334102D03*
D11*
X154940000Y-82804000D03*
D12*
X151347898Y-79211898D03*
X158532102Y-79211898D03*
X151347898Y-86396102D03*
X158532102Y-86396102D03*
D11*
X148336000Y-94742000D03*
D12*
X144743898Y-91149898D03*
X151928102Y-91149898D03*
X144743898Y-98334102D03*
X151928102Y-98334102D03*
D15*
X163500000Y-93720000D03*
D16*
X163500000Y-98800000D03*
D15*
X163500000Y-96260000D03*
X107010000Y-98850000D03*
D16*
X107010000Y-93770000D03*
D15*
X107010000Y-96310000D03*
D17*
X164592000Y-72739000D03*
X164592000Y-67818000D03*
X106426000Y-72739000D03*
X106426000Y-67818000D03*
M02*
