G04 #@! TF.FileFunction,Legend,Top*
%FSLAX46Y46*%
G04 Gerber Fmt 4.6, Leading zero omitted, Abs format (unit mm)*
G04 Created by KiCad (PCBNEW 4.0.7) date Wednesday, 28. February 2018 'u13' 15:13:27*
%MOMM*%
%LPD*%
G01*
G04 APERTURE LIST*
%ADD10C,0.100000*%
%ADD11C,0.200000*%
%ADD12C,0.150000*%
%ADD13C,0.125000*%
G04 APERTURE END LIST*
D10*
D11*
X152240000Y-67420000D02*
X151710000Y-67920000D01*
X152220000Y-66700000D02*
X151690000Y-67200000D01*
X152210000Y-66030000D02*
X151680000Y-66530000D01*
X152220000Y-65310000D02*
X151690000Y-65810000D01*
X152220000Y-64610000D02*
X151690000Y-65110000D01*
X140920000Y-67330000D02*
X140390000Y-67830000D01*
X140900000Y-66610000D02*
X140370000Y-67110000D01*
X140890000Y-65940000D02*
X140360000Y-66440000D01*
X140900000Y-65220000D02*
X140370000Y-65720000D01*
X140900000Y-64520000D02*
X140370000Y-65020000D01*
D12*
X142938571Y-65304286D02*
X142938571Y-64554286D01*
X143295714Y-65304286D02*
X143295714Y-64554286D01*
X143724286Y-65304286D01*
X143724286Y-64554286D01*
X144474286Y-65304286D02*
X144045714Y-65304286D01*
X144260000Y-65304286D02*
X144260000Y-64554286D01*
X144188571Y-64661429D01*
X144117143Y-64732857D01*
X144045714Y-64768571D01*
X145938572Y-64911429D02*
X146510001Y-64911429D01*
X146510001Y-65125714D02*
X145938572Y-65125714D01*
X147831430Y-64590000D02*
X147760001Y-64554286D01*
X147652858Y-64554286D01*
X147545715Y-64590000D01*
X147474287Y-64661429D01*
X147438572Y-64732857D01*
X147402858Y-64875714D01*
X147402858Y-64982857D01*
X147438572Y-65125714D01*
X147474287Y-65197143D01*
X147545715Y-65268571D01*
X147652858Y-65304286D01*
X147724287Y-65304286D01*
X147831430Y-65268571D01*
X147867144Y-65232857D01*
X147867144Y-64982857D01*
X147724287Y-64982857D01*
X148581430Y-65304286D02*
X148152858Y-65304286D01*
X148367144Y-65304286D02*
X148367144Y-64554286D01*
X148295715Y-64661429D01*
X148224287Y-64732857D01*
X148152858Y-64768571D01*
X148831430Y-64554286D02*
X149331430Y-64554286D01*
X149010001Y-65304286D01*
X142938571Y-66579286D02*
X142938571Y-65829286D01*
X143295714Y-66579286D02*
X143295714Y-65829286D01*
X143724286Y-66579286D01*
X143724286Y-65829286D01*
X144045714Y-65900714D02*
X144081428Y-65865000D01*
X144152857Y-65829286D01*
X144331428Y-65829286D01*
X144402857Y-65865000D01*
X144438571Y-65900714D01*
X144474286Y-65972143D01*
X144474286Y-66043571D01*
X144438571Y-66150714D01*
X144010000Y-66579286D01*
X144474286Y-66579286D01*
X145938572Y-66186429D02*
X146510001Y-66186429D01*
X146510001Y-66400714D02*
X145938572Y-66400714D01*
X147831430Y-65865000D02*
X147760001Y-65829286D01*
X147652858Y-65829286D01*
X147545715Y-65865000D01*
X147474287Y-65936429D01*
X147438572Y-66007857D01*
X147402858Y-66150714D01*
X147402858Y-66257857D01*
X147438572Y-66400714D01*
X147474287Y-66472143D01*
X147545715Y-66543571D01*
X147652858Y-66579286D01*
X147724287Y-66579286D01*
X147831430Y-66543571D01*
X147867144Y-66507857D01*
X147867144Y-66257857D01*
X147724287Y-66257857D01*
X148152858Y-65900714D02*
X148188572Y-65865000D01*
X148260001Y-65829286D01*
X148438572Y-65829286D01*
X148510001Y-65865000D01*
X148545715Y-65900714D01*
X148581430Y-65972143D01*
X148581430Y-66043571D01*
X148545715Y-66150714D01*
X148117144Y-66579286D01*
X148581430Y-66579286D01*
X148831430Y-65829286D02*
X149331430Y-65829286D01*
X149010001Y-66579286D01*
X142938571Y-67854286D02*
X142938571Y-67104286D01*
X143295714Y-67854286D02*
X143295714Y-67104286D01*
X143724286Y-67854286D01*
X143724286Y-67104286D01*
X144010000Y-67104286D02*
X144474286Y-67104286D01*
X144224286Y-67390000D01*
X144331428Y-67390000D01*
X144402857Y-67425714D01*
X144438571Y-67461429D01*
X144474286Y-67532857D01*
X144474286Y-67711429D01*
X144438571Y-67782857D01*
X144402857Y-67818571D01*
X144331428Y-67854286D01*
X144117143Y-67854286D01*
X144045714Y-67818571D01*
X144010000Y-67782857D01*
X145938572Y-67461429D02*
X146510001Y-67461429D01*
X146510001Y-67675714D02*
X145938572Y-67675714D01*
X147831430Y-67140000D02*
X147760001Y-67104286D01*
X147652858Y-67104286D01*
X147545715Y-67140000D01*
X147474287Y-67211429D01*
X147438572Y-67282857D01*
X147402858Y-67425714D01*
X147402858Y-67532857D01*
X147438572Y-67675714D01*
X147474287Y-67747143D01*
X147545715Y-67818571D01*
X147652858Y-67854286D01*
X147724287Y-67854286D01*
X147831430Y-67818571D01*
X147867144Y-67782857D01*
X147867144Y-67532857D01*
X147724287Y-67532857D01*
X148152858Y-67175714D02*
X148188572Y-67140000D01*
X148260001Y-67104286D01*
X148438572Y-67104286D01*
X148510001Y-67140000D01*
X148545715Y-67175714D01*
X148581430Y-67247143D01*
X148581430Y-67318571D01*
X148545715Y-67425714D01*
X148117144Y-67854286D01*
X148581430Y-67854286D01*
X148867144Y-67175714D02*
X148902858Y-67140000D01*
X148974287Y-67104286D01*
X149152858Y-67104286D01*
X149224287Y-67140000D01*
X149260001Y-67175714D01*
X149295716Y-67247143D01*
X149295716Y-67318571D01*
X149260001Y-67425714D01*
X148831430Y-67854286D01*
X149295716Y-67854286D01*
X154448571Y-65304286D02*
X154448571Y-64554286D01*
X154805714Y-65304286D02*
X154805714Y-64554286D01*
X155234286Y-65304286D01*
X155234286Y-64554286D01*
X155912857Y-64804286D02*
X155912857Y-65304286D01*
X155734286Y-64518571D02*
X155555714Y-65054286D01*
X156020000Y-65054286D01*
X157448572Y-64911429D02*
X158020001Y-64911429D01*
X158020001Y-65125714D02*
X157448572Y-65125714D01*
X159341430Y-64590000D02*
X159270001Y-64554286D01*
X159162858Y-64554286D01*
X159055715Y-64590000D01*
X158984287Y-64661429D01*
X158948572Y-64732857D01*
X158912858Y-64875714D01*
X158912858Y-64982857D01*
X158948572Y-65125714D01*
X158984287Y-65197143D01*
X159055715Y-65268571D01*
X159162858Y-65304286D01*
X159234287Y-65304286D01*
X159341430Y-65268571D01*
X159377144Y-65232857D01*
X159377144Y-64982857D01*
X159234287Y-64982857D01*
X159662858Y-64625714D02*
X159698572Y-64590000D01*
X159770001Y-64554286D01*
X159948572Y-64554286D01*
X160020001Y-64590000D01*
X160055715Y-64625714D01*
X160091430Y-64697143D01*
X160091430Y-64768571D01*
X160055715Y-64875714D01*
X159627144Y-65304286D01*
X160091430Y-65304286D01*
X160341430Y-64554286D02*
X160805716Y-64554286D01*
X160555716Y-64840000D01*
X160662858Y-64840000D01*
X160734287Y-64875714D01*
X160770001Y-64911429D01*
X160805716Y-64982857D01*
X160805716Y-65161429D01*
X160770001Y-65232857D01*
X160734287Y-65268571D01*
X160662858Y-65304286D01*
X160448573Y-65304286D01*
X160377144Y-65268571D01*
X160341430Y-65232857D01*
X154448571Y-66579286D02*
X154448571Y-65829286D01*
X154805714Y-66579286D02*
X154805714Y-65829286D01*
X155234286Y-66579286D01*
X155234286Y-65829286D01*
X155948571Y-65829286D02*
X155591428Y-65829286D01*
X155555714Y-66186429D01*
X155591428Y-66150714D01*
X155662857Y-66115000D01*
X155841428Y-66115000D01*
X155912857Y-66150714D01*
X155948571Y-66186429D01*
X155984286Y-66257857D01*
X155984286Y-66436429D01*
X155948571Y-66507857D01*
X155912857Y-66543571D01*
X155841428Y-66579286D01*
X155662857Y-66579286D01*
X155591428Y-66543571D01*
X155555714Y-66507857D01*
X157448572Y-66186429D02*
X158020001Y-66186429D01*
X158020001Y-66400714D02*
X157448572Y-66400714D01*
X159341430Y-65865000D02*
X159270001Y-65829286D01*
X159162858Y-65829286D01*
X159055715Y-65865000D01*
X158984287Y-65936429D01*
X158948572Y-66007857D01*
X158912858Y-66150714D01*
X158912858Y-66257857D01*
X158948572Y-66400714D01*
X158984287Y-66472143D01*
X159055715Y-66543571D01*
X159162858Y-66579286D01*
X159234287Y-66579286D01*
X159341430Y-66543571D01*
X159377144Y-66507857D01*
X159377144Y-66257857D01*
X159234287Y-66257857D01*
X159662858Y-65900714D02*
X159698572Y-65865000D01*
X159770001Y-65829286D01*
X159948572Y-65829286D01*
X160020001Y-65865000D01*
X160055715Y-65900714D01*
X160091430Y-65972143D01*
X160091430Y-66043571D01*
X160055715Y-66150714D01*
X159627144Y-66579286D01*
X160091430Y-66579286D01*
X160734287Y-66079286D02*
X160734287Y-66579286D01*
X160555716Y-65793571D02*
X160377144Y-66329286D01*
X160841430Y-66329286D01*
X154448571Y-67854286D02*
X154448571Y-67104286D01*
X154805714Y-67854286D02*
X154805714Y-67104286D01*
X155234286Y-67854286D01*
X155234286Y-67104286D01*
X155912857Y-67104286D02*
X155770000Y-67104286D01*
X155698571Y-67140000D01*
X155662857Y-67175714D01*
X155591428Y-67282857D01*
X155555714Y-67425714D01*
X155555714Y-67711429D01*
X155591428Y-67782857D01*
X155627143Y-67818571D01*
X155698571Y-67854286D01*
X155841428Y-67854286D01*
X155912857Y-67818571D01*
X155948571Y-67782857D01*
X155984286Y-67711429D01*
X155984286Y-67532857D01*
X155948571Y-67461429D01*
X155912857Y-67425714D01*
X155841428Y-67390000D01*
X155698571Y-67390000D01*
X155627143Y-67425714D01*
X155591428Y-67461429D01*
X155555714Y-67532857D01*
X157448572Y-67461429D02*
X158020001Y-67461429D01*
X158020001Y-67675714D02*
X157448572Y-67675714D01*
X159341430Y-67140000D02*
X159270001Y-67104286D01*
X159162858Y-67104286D01*
X159055715Y-67140000D01*
X158984287Y-67211429D01*
X158948572Y-67282857D01*
X158912858Y-67425714D01*
X158912858Y-67532857D01*
X158948572Y-67675714D01*
X158984287Y-67747143D01*
X159055715Y-67818571D01*
X159162858Y-67854286D01*
X159234287Y-67854286D01*
X159341430Y-67818571D01*
X159377144Y-67782857D01*
X159377144Y-67532857D01*
X159234287Y-67532857D01*
X159662858Y-67175714D02*
X159698572Y-67140000D01*
X159770001Y-67104286D01*
X159948572Y-67104286D01*
X160020001Y-67140000D01*
X160055715Y-67175714D01*
X160091430Y-67247143D01*
X160091430Y-67318571D01*
X160055715Y-67425714D01*
X159627144Y-67854286D01*
X160091430Y-67854286D01*
X160770001Y-67104286D02*
X160412858Y-67104286D01*
X160377144Y-67461429D01*
X160412858Y-67425714D01*
X160484287Y-67390000D01*
X160662858Y-67390000D01*
X160734287Y-67425714D01*
X160770001Y-67461429D01*
X160805716Y-67532857D01*
X160805716Y-67711429D01*
X160770001Y-67782857D01*
X160734287Y-67818571D01*
X160662858Y-67854286D01*
X160484287Y-67854286D01*
X160412858Y-67818571D01*
X160377144Y-67782857D01*
D11*
X166690000Y-78870000D02*
X165810000Y-77990000D01*
X166690000Y-82220000D02*
X166690000Y-78870000D01*
X137240000Y-77150000D02*
X157580000Y-77150000D01*
X136090000Y-78300000D02*
X137240000Y-77150000D01*
X132630000Y-76920000D02*
X133880000Y-78170000D01*
X111900000Y-76920000D02*
X132630000Y-76920000D01*
X105040000Y-79060000D02*
X106180000Y-77920000D01*
X105040000Y-81920000D02*
X105040000Y-79060000D01*
D13*
X158571905Y-68986667D02*
X158548095Y-68962857D01*
X158500476Y-68891429D01*
X158476667Y-68843810D01*
X158452857Y-68772381D01*
X158429048Y-68653333D01*
X158429048Y-68558095D01*
X158452857Y-68439048D01*
X158476667Y-68367619D01*
X158500476Y-68320000D01*
X158548095Y-68248571D01*
X158571905Y-68224762D01*
X158762381Y-68796190D02*
X158762381Y-68296190D01*
X158881428Y-68296190D01*
X158952857Y-68320000D01*
X159000476Y-68367619D01*
X159024285Y-68415238D01*
X159048095Y-68510476D01*
X159048095Y-68581905D01*
X159024285Y-68677143D01*
X159000476Y-68724762D01*
X158952857Y-68772381D01*
X158881428Y-68796190D01*
X158762381Y-68796190D01*
X159357619Y-68296190D02*
X159452857Y-68296190D01*
X159500476Y-68320000D01*
X159548095Y-68367619D01*
X159571904Y-68462857D01*
X159571904Y-68629524D01*
X159548095Y-68724762D01*
X159500476Y-68772381D01*
X159452857Y-68796190D01*
X159357619Y-68796190D01*
X159310000Y-68772381D01*
X159262381Y-68724762D01*
X159238571Y-68629524D01*
X159238571Y-68462857D01*
X159262381Y-68367619D01*
X159310000Y-68320000D01*
X159357619Y-68296190D01*
X159738572Y-68296190D02*
X159857619Y-68796190D01*
X159952857Y-68439048D01*
X160048095Y-68796190D01*
X160167143Y-68296190D01*
X160357620Y-68796190D02*
X160357620Y-68296190D01*
X160643334Y-68796190D01*
X160643334Y-68296190D01*
X160833811Y-68986667D02*
X160857620Y-68962857D01*
X160905239Y-68891429D01*
X160929049Y-68843810D01*
X160952858Y-68772381D01*
X160976668Y-68653333D01*
X160976668Y-68558095D01*
X160952858Y-68439048D01*
X160929049Y-68367619D01*
X160905239Y-68320000D01*
X160857620Y-68248571D01*
X160833811Y-68224762D01*
X148101905Y-69066667D02*
X148078095Y-69042857D01*
X148030476Y-68971429D01*
X148006667Y-68923810D01*
X147982857Y-68852381D01*
X147959048Y-68733333D01*
X147959048Y-68638095D01*
X147982857Y-68519048D01*
X148006667Y-68447619D01*
X148030476Y-68400000D01*
X148078095Y-68328571D01*
X148101905Y-68304762D01*
X148292381Y-68376190D02*
X148292381Y-68780952D01*
X148316190Y-68828571D01*
X148340000Y-68852381D01*
X148387619Y-68876190D01*
X148482857Y-68876190D01*
X148530476Y-68852381D01*
X148554285Y-68828571D01*
X148578095Y-68780952D01*
X148578095Y-68376190D01*
X148816191Y-68876190D02*
X148816191Y-68376190D01*
X149006667Y-68376190D01*
X149054286Y-68400000D01*
X149078095Y-68423810D01*
X149101905Y-68471429D01*
X149101905Y-68542857D01*
X149078095Y-68590476D01*
X149054286Y-68614286D01*
X149006667Y-68638095D01*
X148816191Y-68638095D01*
X149268572Y-69066667D02*
X149292381Y-69042857D01*
X149340000Y-68971429D01*
X149363810Y-68923810D01*
X149387619Y-68852381D01*
X149411429Y-68733333D01*
X149411429Y-68638095D01*
X149387619Y-68519048D01*
X149363810Y-68447619D01*
X149340000Y-68400000D01*
X149292381Y-68328571D01*
X149268572Y-68304762D01*
D12*
X117260952Y-67841905D02*
X117718095Y-67841905D01*
X117389524Y-68641905D02*
X117489524Y-67841905D01*
X118194286Y-68603810D02*
X118113334Y-68641905D01*
X117960953Y-68641905D01*
X117889524Y-68603810D01*
X117860953Y-68527619D01*
X117899048Y-68222857D01*
X117946667Y-68146667D01*
X118027620Y-68108571D01*
X118180001Y-68108571D01*
X118251429Y-68146667D01*
X118280000Y-68222857D01*
X118270476Y-68299048D01*
X117880000Y-68375238D01*
X118918095Y-68603810D02*
X118837143Y-68641905D01*
X118684762Y-68641905D01*
X118613333Y-68603810D01*
X118580000Y-68565714D01*
X118551429Y-68489524D01*
X118580000Y-68260952D01*
X118627619Y-68184762D01*
X118670476Y-68146667D01*
X118751429Y-68108571D01*
X118903810Y-68108571D01*
X118975238Y-68146667D01*
X119256190Y-68641905D02*
X119356190Y-67841905D01*
X119599047Y-68641905D02*
X119651428Y-68222857D01*
X119622857Y-68146667D01*
X119551429Y-68108571D01*
X119437143Y-68108571D01*
X119356190Y-68146667D01*
X119313333Y-68184762D01*
X120046667Y-68108571D02*
X119980000Y-68641905D01*
X120037143Y-68184762D02*
X120080000Y-68146667D01*
X120160953Y-68108571D01*
X120275239Y-68108571D01*
X120346667Y-68146667D01*
X120375238Y-68222857D01*
X120322857Y-68641905D01*
X120818096Y-68641905D02*
X120746667Y-68603810D01*
X120713334Y-68565714D01*
X120684763Y-68489524D01*
X120713334Y-68260952D01*
X120760953Y-68184762D01*
X120803810Y-68146667D01*
X120884763Y-68108571D01*
X120999049Y-68108571D01*
X121070477Y-68146667D01*
X121103810Y-68184762D01*
X121132382Y-68260952D01*
X121103811Y-68489524D01*
X121056191Y-68565714D01*
X121013334Y-68603810D01*
X120932382Y-68641905D01*
X120818096Y-68641905D01*
X121541906Y-68641905D02*
X121470477Y-68603810D01*
X121441906Y-68527619D01*
X121527620Y-67841905D01*
X121960954Y-68641905D02*
X121889525Y-68603810D01*
X121856192Y-68565714D01*
X121827621Y-68489524D01*
X121856192Y-68260952D01*
X121903811Y-68184762D01*
X121946668Y-68146667D01*
X122027621Y-68108571D01*
X122141907Y-68108571D01*
X122213335Y-68146667D01*
X122246668Y-68184762D01*
X122275240Y-68260952D01*
X122246669Y-68489524D01*
X122199049Y-68565714D01*
X122156192Y-68603810D01*
X122075240Y-68641905D01*
X121960954Y-68641905D01*
X122980002Y-68108571D02*
X122899049Y-68756190D01*
X122851430Y-68832381D01*
X122808573Y-68870476D01*
X122727621Y-68908571D01*
X122613336Y-68908571D01*
X122541906Y-68870476D01*
X122918097Y-68603810D02*
X122837145Y-68641905D01*
X122684764Y-68641905D01*
X122613335Y-68603810D01*
X122580002Y-68565714D01*
X122551431Y-68489524D01*
X122580002Y-68260952D01*
X122627621Y-68184762D01*
X122670478Y-68146667D01*
X122751431Y-68108571D01*
X122903812Y-68108571D01*
X122975240Y-68146667D01*
X123294288Y-68641905D02*
X123360955Y-68108571D01*
X123394288Y-67841905D02*
X123351431Y-67880000D01*
X123384764Y-67918095D01*
X123427621Y-67880000D01*
X123394288Y-67841905D01*
X123384764Y-67918095D01*
X123984764Y-68603810D02*
X123903812Y-68641905D01*
X123751431Y-68641905D01*
X123680002Y-68603810D01*
X123651431Y-68527619D01*
X123689526Y-68222857D01*
X123737145Y-68146667D01*
X123818098Y-68108571D01*
X123970479Y-68108571D01*
X124041907Y-68146667D01*
X124070478Y-68222857D01*
X124060954Y-68299048D01*
X123670478Y-68375238D01*
X124327621Y-68603810D02*
X124399049Y-68641905D01*
X124551430Y-68641905D01*
X124632383Y-68603810D01*
X124680002Y-68527619D01*
X124684764Y-68489524D01*
X124656192Y-68413333D01*
X124584763Y-68375238D01*
X124470478Y-68375238D01*
X124399049Y-68337143D01*
X124370478Y-68260952D01*
X124375240Y-68222857D01*
X124422859Y-68146667D01*
X124503812Y-68108571D01*
X124618097Y-68108571D01*
X124689526Y-68146667D01*
X132038571Y-65301786D02*
X132038571Y-64551786D01*
X132324286Y-64551786D01*
X132395714Y-64587500D01*
X132431429Y-64623214D01*
X132467143Y-64694643D01*
X132467143Y-64801786D01*
X132431429Y-64873214D01*
X132395714Y-64908929D01*
X132324286Y-64944643D01*
X132038571Y-64944643D01*
X132788571Y-65301786D02*
X132788571Y-64551786D01*
X133574286Y-65301786D02*
X133324286Y-64944643D01*
X133145714Y-65301786D02*
X133145714Y-64551786D01*
X133431429Y-64551786D01*
X133502857Y-64587500D01*
X133538572Y-64623214D01*
X133574286Y-64694643D01*
X133574286Y-64801786D01*
X133538572Y-64873214D01*
X133502857Y-64908929D01*
X133431429Y-64944643D01*
X133145714Y-64944643D01*
X134288572Y-65301786D02*
X133860000Y-65301786D01*
X134074286Y-65301786D02*
X134074286Y-64551786D01*
X134002857Y-64658929D01*
X133931429Y-64730357D01*
X133860000Y-64766071D01*
X135181429Y-64908929D02*
X135752858Y-64908929D01*
X135752858Y-65123214D02*
X135181429Y-65123214D01*
X137074287Y-64587500D02*
X137002858Y-64551786D01*
X136895715Y-64551786D01*
X136788572Y-64587500D01*
X136717144Y-64658929D01*
X136681429Y-64730357D01*
X136645715Y-64873214D01*
X136645715Y-64980357D01*
X136681429Y-65123214D01*
X136717144Y-65194643D01*
X136788572Y-65266071D01*
X136895715Y-65301786D01*
X136967144Y-65301786D01*
X137074287Y-65266071D01*
X137110001Y-65230357D01*
X137110001Y-64980357D01*
X136967144Y-64980357D01*
X137574287Y-64551786D02*
X137645715Y-64551786D01*
X137717144Y-64587500D01*
X137752858Y-64623214D01*
X137788572Y-64694643D01*
X137824287Y-64837500D01*
X137824287Y-65016071D01*
X137788572Y-65158929D01*
X137752858Y-65230357D01*
X137717144Y-65266071D01*
X137645715Y-65301786D01*
X137574287Y-65301786D01*
X137502858Y-65266071D01*
X137467144Y-65230357D01*
X137431429Y-65158929D01*
X137395715Y-65016071D01*
X137395715Y-64837500D01*
X137431429Y-64694643D01*
X137467144Y-64623214D01*
X137502858Y-64587500D01*
X137574287Y-64551786D01*
X138467144Y-64551786D02*
X138324287Y-64551786D01*
X138252858Y-64587500D01*
X138217144Y-64623214D01*
X138145715Y-64730357D01*
X138110001Y-64873214D01*
X138110001Y-65158929D01*
X138145715Y-65230357D01*
X138181430Y-65266071D01*
X138252858Y-65301786D01*
X138395715Y-65301786D01*
X138467144Y-65266071D01*
X138502858Y-65230357D01*
X138538573Y-65158929D01*
X138538573Y-64980357D01*
X138502858Y-64908929D01*
X138467144Y-64873214D01*
X138395715Y-64837500D01*
X138252858Y-64837500D01*
X138181430Y-64873214D01*
X138145715Y-64908929D01*
X138110001Y-64980357D01*
X132038571Y-66576786D02*
X132038571Y-65826786D01*
X132324286Y-65826786D01*
X132395714Y-65862500D01*
X132431429Y-65898214D01*
X132467143Y-65969643D01*
X132467143Y-66076786D01*
X132431429Y-66148214D01*
X132395714Y-66183929D01*
X132324286Y-66219643D01*
X132038571Y-66219643D01*
X132788571Y-66576786D02*
X132788571Y-65826786D01*
X133574286Y-66576786D02*
X133324286Y-66219643D01*
X133145714Y-66576786D02*
X133145714Y-65826786D01*
X133431429Y-65826786D01*
X133502857Y-65862500D01*
X133538572Y-65898214D01*
X133574286Y-65969643D01*
X133574286Y-66076786D01*
X133538572Y-66148214D01*
X133502857Y-66183929D01*
X133431429Y-66219643D01*
X133145714Y-66219643D01*
X133860000Y-65898214D02*
X133895714Y-65862500D01*
X133967143Y-65826786D01*
X134145714Y-65826786D01*
X134217143Y-65862500D01*
X134252857Y-65898214D01*
X134288572Y-65969643D01*
X134288572Y-66041071D01*
X134252857Y-66148214D01*
X133824286Y-66576786D01*
X134288572Y-66576786D01*
X135181429Y-66183929D02*
X135752858Y-66183929D01*
X135752858Y-66398214D02*
X135181429Y-66398214D01*
X137074287Y-65862500D02*
X137002858Y-65826786D01*
X136895715Y-65826786D01*
X136788572Y-65862500D01*
X136717144Y-65933929D01*
X136681429Y-66005357D01*
X136645715Y-66148214D01*
X136645715Y-66255357D01*
X136681429Y-66398214D01*
X136717144Y-66469643D01*
X136788572Y-66541071D01*
X136895715Y-66576786D01*
X136967144Y-66576786D01*
X137074287Y-66541071D01*
X137110001Y-66505357D01*
X137110001Y-66255357D01*
X136967144Y-66255357D01*
X137574287Y-65826786D02*
X137645715Y-65826786D01*
X137717144Y-65862500D01*
X137752858Y-65898214D01*
X137788572Y-65969643D01*
X137824287Y-66112500D01*
X137824287Y-66291071D01*
X137788572Y-66433929D01*
X137752858Y-66505357D01*
X137717144Y-66541071D01*
X137645715Y-66576786D01*
X137574287Y-66576786D01*
X137502858Y-66541071D01*
X137467144Y-66505357D01*
X137431429Y-66433929D01*
X137395715Y-66291071D01*
X137395715Y-66112500D01*
X137431429Y-65969643D01*
X137467144Y-65898214D01*
X137502858Y-65862500D01*
X137574287Y-65826786D01*
X138502858Y-65826786D02*
X138145715Y-65826786D01*
X138110001Y-66183929D01*
X138145715Y-66148214D01*
X138217144Y-66112500D01*
X138395715Y-66112500D01*
X138467144Y-66148214D01*
X138502858Y-66183929D01*
X138538573Y-66255357D01*
X138538573Y-66433929D01*
X138502858Y-66505357D01*
X138467144Y-66541071D01*
X138395715Y-66576786D01*
X138217144Y-66576786D01*
X138145715Y-66541071D01*
X138110001Y-66505357D01*
X158308214Y-77452381D02*
X158433214Y-76452381D01*
X158814167Y-76452381D01*
X158903453Y-76500000D01*
X158945120Y-76547619D01*
X158980834Y-76642857D01*
X158962977Y-76785714D01*
X158903453Y-76880952D01*
X158849882Y-76928571D01*
X158748691Y-76976190D01*
X158367738Y-76976190D01*
X159433214Y-76452381D02*
X159332024Y-77261905D01*
X159367738Y-77357143D01*
X159409405Y-77404762D01*
X159498690Y-77452381D01*
X159689167Y-77452381D01*
X159790358Y-77404762D01*
X159843929Y-77357143D01*
X159903453Y-77261905D01*
X160004643Y-76452381D01*
X160832024Y-77452381D02*
X160355833Y-77452381D01*
X160480833Y-76452381D01*
X161641548Y-77452381D02*
X161165357Y-77452381D01*
X161290357Y-76452381D01*
X162736786Y-77452381D02*
X162861786Y-76452381D01*
X163099881Y-76452381D01*
X163236787Y-76500000D01*
X163320120Y-76595238D01*
X163355835Y-76690476D01*
X163379644Y-76880952D01*
X163361787Y-77023810D01*
X163290358Y-77214286D01*
X163230835Y-77309524D01*
X163123692Y-77404762D01*
X162974881Y-77452381D01*
X162736786Y-77452381D01*
X164052262Y-76452381D02*
X164242739Y-76452381D01*
X164332025Y-76500000D01*
X164415358Y-76595238D01*
X164439168Y-76785714D01*
X164397501Y-77119048D01*
X164326073Y-77309524D01*
X164218930Y-77404762D01*
X164117739Y-77452381D01*
X163927262Y-77452381D01*
X163837977Y-77404762D01*
X163754644Y-77309524D01*
X163730834Y-77119048D01*
X163772501Y-76785714D01*
X163843929Y-76595238D01*
X163951072Y-76500000D01*
X164052262Y-76452381D01*
X164814167Y-76452381D02*
X164927262Y-77452381D01*
X165207025Y-76738095D01*
X165308215Y-77452381D01*
X165671310Y-76452381D01*
X165927262Y-77452381D02*
X166052262Y-76452381D01*
X166498691Y-77452381D01*
X166623691Y-76452381D01*
X105263452Y-77452381D02*
X105388452Y-76452381D01*
X105769405Y-76452381D01*
X105858691Y-76500000D01*
X105900358Y-76547619D01*
X105936072Y-76642857D01*
X105918215Y-76785714D01*
X105858691Y-76880952D01*
X105805120Y-76928571D01*
X105703929Y-76976190D01*
X105322976Y-76976190D01*
X106388452Y-76452381D02*
X106287262Y-77261905D01*
X106322976Y-77357143D01*
X106364643Y-77404762D01*
X106453928Y-77452381D01*
X106644405Y-77452381D01*
X106745596Y-77404762D01*
X106799167Y-77357143D01*
X106858691Y-77261905D01*
X106959881Y-76452381D01*
X107787262Y-77452381D02*
X107311071Y-77452381D01*
X107436071Y-76452381D01*
X108596786Y-77452381D02*
X108120595Y-77452381D01*
X108245595Y-76452381D01*
X109817024Y-76452381D02*
X109715834Y-77261905D01*
X109751548Y-77357143D01*
X109793215Y-77404762D01*
X109882500Y-77452381D01*
X110072977Y-77452381D01*
X110174168Y-77404762D01*
X110227739Y-77357143D01*
X110287263Y-77261905D01*
X110388453Y-76452381D01*
X110739643Y-77452381D02*
X110864643Y-76452381D01*
X111245596Y-76452381D01*
X111334882Y-76500000D01*
X111376549Y-76547619D01*
X111412263Y-76642857D01*
X111394406Y-76785714D01*
X111334882Y-76880952D01*
X111281311Y-76928571D01*
X111180120Y-76976190D01*
X110799167Y-76976190D01*
X146811999Y-82804000D02*
G75*
G03X146811999Y-82804000I-5079999J0D01*
G01*
X106842000Y-82437000D02*
X108042000Y-82437000D01*
X108042000Y-84187000D02*
X106842000Y-84187000D01*
X106842000Y-85485000D02*
X108042000Y-85485000D01*
X108042000Y-87235000D02*
X106842000Y-87235000D01*
X106842000Y-88533000D02*
X108042000Y-88533000D01*
X108042000Y-90283000D02*
X106842000Y-90283000D01*
X164938000Y-84441000D02*
X163738000Y-84441000D01*
X163738000Y-82691000D02*
X164938000Y-82691000D01*
X164938000Y-87235000D02*
X163738000Y-87235000D01*
X163738000Y-85485000D02*
X164938000Y-85485000D01*
X164938000Y-90283000D02*
X163738000Y-90283000D01*
X163738000Y-88533000D02*
X164938000Y-88533000D01*
X120395999Y-82804000D02*
G75*
G03X120395999Y-82804000I-5079999J0D01*
G01*
X133603999Y-82804000D02*
G75*
G03X133603999Y-82804000I-5079999J0D01*
G01*
X126999999Y-94742000D02*
G75*
G03X126999999Y-94742000I-5079999J0D01*
G01*
X160019999Y-82804000D02*
G75*
G03X160019999Y-82804000I-5079999J0D01*
G01*
X153415999Y-94742000D02*
G75*
G03X153415999Y-94742000I-5079999J0D01*
G01*
X160401200Y-92160440D02*
X160401200Y-100359560D01*
X160799980Y-92160440D02*
X160799980Y-100359560D01*
X166100960Y-92160440D02*
X166100960Y-100359560D01*
X166598800Y-100359560D02*
X166598800Y-92160440D01*
X166100960Y-94959520D02*
X166598800Y-94959520D01*
X166598800Y-100158900D02*
X166100960Y-100158900D01*
X166100960Y-92358560D02*
X166598800Y-92358560D01*
X166598800Y-97557940D02*
X166100960Y-97557940D01*
X166598800Y-92160440D02*
X160401200Y-92160440D01*
X160401200Y-100357020D02*
X166598800Y-100357020D01*
X110108800Y-100409560D02*
X110108800Y-92210440D01*
X109710020Y-100409560D02*
X109710020Y-92210440D01*
X104409040Y-100409560D02*
X104409040Y-92210440D01*
X103911200Y-92210440D02*
X103911200Y-100409560D01*
X104409040Y-97610480D02*
X103911200Y-97610480D01*
X103911200Y-92411100D02*
X104409040Y-92411100D01*
X104409040Y-100211440D02*
X103911200Y-100211440D01*
X103911200Y-95012060D02*
X104409040Y-95012060D01*
X103911200Y-100409560D02*
X110108800Y-100409560D01*
X110108800Y-92212980D02*
X103911200Y-92212980D01*
X143512775Y-85946987D02*
X142805668Y-85239881D01*
X143849492Y-85610270D02*
X143142385Y-84903163D01*
X144253553Y-85206209D01*
X143546447Y-84499102D01*
X144421912Y-84095041D02*
X144893317Y-84566446D01*
X143984179Y-83994026D02*
X144320897Y-84667461D01*
X144758630Y-84229728D01*
X117072774Y-85726988D02*
X116365667Y-85019882D01*
X117409491Y-85390271D02*
X116702384Y-84683164D01*
X117813552Y-84986210D01*
X117106446Y-84279103D01*
X118520659Y-84279103D02*
X118116598Y-84683164D01*
X118318628Y-84481134D02*
X117611521Y-83774027D01*
X117645193Y-83942386D01*
X117645193Y-84077073D01*
X117611521Y-84178088D01*
X130292775Y-85876988D02*
X129585668Y-85169882D01*
X130629492Y-85540271D02*
X129922385Y-84833164D01*
X131033553Y-85136210D01*
X130326447Y-84429103D01*
X130696836Y-84193401D02*
X130696836Y-84126058D01*
X130730507Y-84025043D01*
X130898867Y-83856683D01*
X130999882Y-83823012D01*
X131067225Y-83823012D01*
X131168240Y-83856683D01*
X131235584Y-83924027D01*
X131302927Y-84058714D01*
X131302927Y-84866836D01*
X131740660Y-84429103D01*
X123742775Y-97916987D02*
X123035668Y-97209881D01*
X124079492Y-97580270D02*
X123372385Y-96873163D01*
X124483553Y-97176209D01*
X123776447Y-96469102D01*
X124045820Y-96199728D02*
X124483553Y-95761995D01*
X124517224Y-96267072D01*
X124618240Y-96166056D01*
X124719255Y-96132384D01*
X124786599Y-96132384D01*
X124887615Y-96166057D01*
X125055973Y-96334415D01*
X125089645Y-96435430D01*
X125089645Y-96502774D01*
X125055973Y-96603789D01*
X124853942Y-96805820D01*
X124752927Y-96839492D01*
X124685584Y-96839492D01*
X156702775Y-85986988D02*
X155995668Y-85279882D01*
X157039492Y-85650271D02*
X156332385Y-84943164D01*
X157443553Y-85246210D01*
X156736447Y-84539103D01*
X157409882Y-83865668D02*
X157073164Y-84202386D01*
X157376209Y-84572775D01*
X157376209Y-84505431D01*
X157409881Y-84404416D01*
X157578240Y-84236057D01*
X157679255Y-84202385D01*
X157746599Y-84202385D01*
X157847615Y-84236058D01*
X158015973Y-84404416D01*
X158049645Y-84505431D01*
X158049645Y-84572775D01*
X158015973Y-84673790D01*
X157847614Y-84842149D01*
X157746599Y-84875821D01*
X157679255Y-84875821D01*
X150222775Y-97986988D02*
X149515668Y-97279882D01*
X150559492Y-97650271D02*
X149852385Y-96943164D01*
X150963553Y-97246210D01*
X150256447Y-96539103D01*
X150896210Y-95899340D02*
X150761522Y-96034027D01*
X150727851Y-96135043D01*
X150727851Y-96202386D01*
X150761522Y-96370745D01*
X150862538Y-96539103D01*
X151131912Y-96808478D01*
X151232927Y-96842149D01*
X151300271Y-96842149D01*
X151401286Y-96808478D01*
X151535973Y-96673790D01*
X151569645Y-96572775D01*
X151569645Y-96505431D01*
X151535973Y-96404416D01*
X151367615Y-96236058D01*
X151266599Y-96202385D01*
X151199255Y-96202385D01*
X151098240Y-96236057D01*
X150963553Y-96370745D01*
X150929881Y-96471760D01*
X150929881Y-96539103D01*
X150963553Y-96640119D01*
X159451501Y-97736190D02*
X158451501Y-97736190D01*
X158451501Y-97355237D01*
X158499120Y-97259999D01*
X158546739Y-97212380D01*
X158641977Y-97164761D01*
X158784834Y-97164761D01*
X158880072Y-97212380D01*
X158927691Y-97259999D01*
X158975310Y-97355237D01*
X158975310Y-97736190D01*
X159451501Y-96736190D02*
X158451501Y-96736190D01*
X159451501Y-95688571D02*
X158975310Y-96021905D01*
X159451501Y-96260000D02*
X158451501Y-96260000D01*
X158451501Y-95879047D01*
X158499120Y-95783809D01*
X158546739Y-95736190D01*
X158641977Y-95688571D01*
X158784834Y-95688571D01*
X158880072Y-95736190D01*
X158927691Y-95783809D01*
X158975310Y-95879047D01*
X158975310Y-96260000D01*
X159451501Y-94736190D02*
X159451501Y-95307619D01*
X159451501Y-95021905D02*
X158451501Y-95021905D01*
X158594358Y-95117143D01*
X158689596Y-95212381D01*
X158737215Y-95307619D01*
X111963261Y-97786190D02*
X110963261Y-97786190D01*
X110963261Y-97405237D01*
X111010880Y-97309999D01*
X111058499Y-97262380D01*
X111153737Y-97214761D01*
X111296594Y-97214761D01*
X111391832Y-97262380D01*
X111439451Y-97309999D01*
X111487070Y-97405237D01*
X111487070Y-97786190D01*
X111963261Y-96786190D02*
X110963261Y-96786190D01*
X111963261Y-95738571D02*
X111487070Y-96071905D01*
X111963261Y-96310000D02*
X110963261Y-96310000D01*
X110963261Y-95929047D01*
X111010880Y-95833809D01*
X111058499Y-95786190D01*
X111153737Y-95738571D01*
X111296594Y-95738571D01*
X111391832Y-95786190D01*
X111439451Y-95833809D01*
X111487070Y-95929047D01*
X111487070Y-96310000D01*
X111058499Y-95357619D02*
X111010880Y-95310000D01*
X110963261Y-95214762D01*
X110963261Y-94976666D01*
X111010880Y-94881428D01*
X111058499Y-94833809D01*
X111153737Y-94786190D01*
X111248975Y-94786190D01*
X111391832Y-94833809D01*
X111963261Y-95405238D01*
X111963261Y-94786190D01*
M02*
