G04 #@! TF.FileFunction,Copper,L1,Top,Signal*
%FSLAX46Y46*%
G04 Gerber Fmt 4.6, Leading zero omitted, Abs format (unit mm)*
G04 Created by KiCad (PCBNEW 4.0.7) date Wednesday, 28. February 2018 'u13' 15:13:27*
%MOMM*%
%LPD*%
G01*
G04 APERTURE LIST*
%ADD10C,0.100000*%
%ADD11C,0.010000*%
%ADD12C,1.200000*%
%ADD13C,1.600000*%
%ADD14R,1.500000X1.300000*%
%ADD15R,1.700000X1.700000*%
%ADD16O,1.700000X1.700000*%
%ADD17O,1.998980X1.998980*%
%ADD18R,1.998980X1.998980*%
%ADD19C,0.600000*%
%ADD20C,0.610000*%
%ADD21C,0.250000*%
%ADD22C,0.254000*%
G04 APERTURE END LIST*
D10*
D11*
G36*
X123138160Y-66560606D02*
X123184369Y-66561177D01*
X123219176Y-66562038D01*
X123239139Y-66563115D01*
X123242560Y-66563821D01*
X123245856Y-66573494D01*
X123255181Y-66599932D01*
X123269691Y-66640778D01*
X123288542Y-66693675D01*
X123310889Y-66756266D01*
X123335887Y-66826194D01*
X123362693Y-66901102D01*
X123390463Y-66978633D01*
X123418351Y-67056430D01*
X123445513Y-67132136D01*
X123471106Y-67203393D01*
X123494284Y-67267846D01*
X123514204Y-67323136D01*
X123530021Y-67366907D01*
X123540890Y-67396801D01*
X123543418Y-67403680D01*
X123547756Y-67397604D01*
X123557920Y-67374125D01*
X123573228Y-67335088D01*
X123592995Y-67282340D01*
X123616538Y-67217727D01*
X123643174Y-67143094D01*
X123672218Y-67060287D01*
X123695448Y-66993121D01*
X123725950Y-66904564D01*
X123754466Y-66822075D01*
X123780313Y-66747608D01*
X123802806Y-66683120D01*
X123821262Y-66630568D01*
X123834997Y-66591907D01*
X123843327Y-66569093D01*
X123845599Y-66563574D01*
X123856555Y-66562413D01*
X123884062Y-66561803D01*
X123924356Y-66561766D01*
X123973675Y-66562327D01*
X123991546Y-66562652D01*
X124133743Y-66565480D01*
X123861924Y-67289230D01*
X123817861Y-67406206D01*
X123775286Y-67518565D01*
X123734818Y-67624713D01*
X123697074Y-67723058D01*
X123662675Y-67812007D01*
X123632240Y-67889968D01*
X123606386Y-67955346D01*
X123585733Y-68006550D01*
X123570901Y-68041987D01*
X123562506Y-68060064D01*
X123562239Y-68060531D01*
X123517841Y-68122039D01*
X123463577Y-68174736D01*
X123405160Y-68213158D01*
X123400040Y-68215660D01*
X123368059Y-68228485D01*
X123333488Y-68236563D01*
X123289671Y-68241119D01*
X123252720Y-68242785D01*
X123203559Y-68243185D01*
X123155766Y-68241639D01*
X123117308Y-68238466D01*
X123106923Y-68236923D01*
X123074440Y-68231028D01*
X123052534Y-68224764D01*
X123039130Y-68214444D01*
X123032151Y-68196380D01*
X123029523Y-68166887D01*
X123029169Y-68122276D01*
X123029200Y-68098857D01*
X123029323Y-68048441D01*
X123030135Y-68015069D01*
X123032302Y-67995467D01*
X123036487Y-67986359D01*
X123043354Y-67984469D01*
X123052060Y-67986156D01*
X123099645Y-67994843D01*
X123150081Y-67999411D01*
X123196224Y-67999558D01*
X123230931Y-67994985D01*
X123234802Y-67993843D01*
X123263028Y-67981360D01*
X123286804Y-67962348D01*
X123308760Y-67933448D01*
X123331522Y-67891303D01*
X123353838Y-67841687D01*
X123394094Y-67747498D01*
X123164968Y-67166649D01*
X123124218Y-67063352D01*
X123085618Y-66965523D01*
X123049825Y-66874822D01*
X123017495Y-66792912D01*
X122989283Y-66721453D01*
X122965846Y-66662108D01*
X122947840Y-66616538D01*
X122935920Y-66586405D01*
X122930743Y-66573369D01*
X122930634Y-66573100D01*
X122933072Y-66568092D01*
X122946619Y-66564504D01*
X122973514Y-66562150D01*
X123015998Y-66560845D01*
X123076309Y-66560403D01*
X123083992Y-66560400D01*
X123138160Y-66560606D01*
X123138160Y-66560606D01*
G37*
X123138160Y-66560606D02*
X123184369Y-66561177D01*
X123219176Y-66562038D01*
X123239139Y-66563115D01*
X123242560Y-66563821D01*
X123245856Y-66573494D01*
X123255181Y-66599932D01*
X123269691Y-66640778D01*
X123288542Y-66693675D01*
X123310889Y-66756266D01*
X123335887Y-66826194D01*
X123362693Y-66901102D01*
X123390463Y-66978633D01*
X123418351Y-67056430D01*
X123445513Y-67132136D01*
X123471106Y-67203393D01*
X123494284Y-67267846D01*
X123514204Y-67323136D01*
X123530021Y-67366907D01*
X123540890Y-67396801D01*
X123543418Y-67403680D01*
X123547756Y-67397604D01*
X123557920Y-67374125D01*
X123573228Y-67335088D01*
X123592995Y-67282340D01*
X123616538Y-67217727D01*
X123643174Y-67143094D01*
X123672218Y-67060287D01*
X123695448Y-66993121D01*
X123725950Y-66904564D01*
X123754466Y-66822075D01*
X123780313Y-66747608D01*
X123802806Y-66683120D01*
X123821262Y-66630568D01*
X123834997Y-66591907D01*
X123843327Y-66569093D01*
X123845599Y-66563574D01*
X123856555Y-66562413D01*
X123884062Y-66561803D01*
X123924356Y-66561766D01*
X123973675Y-66562327D01*
X123991546Y-66562652D01*
X124133743Y-66565480D01*
X123861924Y-67289230D01*
X123817861Y-67406206D01*
X123775286Y-67518565D01*
X123734818Y-67624713D01*
X123697074Y-67723058D01*
X123662675Y-67812007D01*
X123632240Y-67889968D01*
X123606386Y-67955346D01*
X123585733Y-68006550D01*
X123570901Y-68041987D01*
X123562506Y-68060064D01*
X123562239Y-68060531D01*
X123517841Y-68122039D01*
X123463577Y-68174736D01*
X123405160Y-68213158D01*
X123400040Y-68215660D01*
X123368059Y-68228485D01*
X123333488Y-68236563D01*
X123289671Y-68241119D01*
X123252720Y-68242785D01*
X123203559Y-68243185D01*
X123155766Y-68241639D01*
X123117308Y-68238466D01*
X123106923Y-68236923D01*
X123074440Y-68231028D01*
X123052534Y-68224764D01*
X123039130Y-68214444D01*
X123032151Y-68196380D01*
X123029523Y-68166887D01*
X123029169Y-68122276D01*
X123029200Y-68098857D01*
X123029323Y-68048441D01*
X123030135Y-68015069D01*
X123032302Y-67995467D01*
X123036487Y-67986359D01*
X123043354Y-67984469D01*
X123052060Y-67986156D01*
X123099645Y-67994843D01*
X123150081Y-67999411D01*
X123196224Y-67999558D01*
X123230931Y-67994985D01*
X123234802Y-67993843D01*
X123263028Y-67981360D01*
X123286804Y-67962348D01*
X123308760Y-67933448D01*
X123331522Y-67891303D01*
X123353838Y-67841687D01*
X123394094Y-67747498D01*
X123164968Y-67166649D01*
X123124218Y-67063352D01*
X123085618Y-66965523D01*
X123049825Y-66874822D01*
X123017495Y-66792912D01*
X122989283Y-66721453D01*
X122965846Y-66662108D01*
X122947840Y-66616538D01*
X122935920Y-66586405D01*
X122930743Y-66573369D01*
X122930634Y-66573100D01*
X122933072Y-66568092D01*
X122946619Y-66564504D01*
X122973514Y-66562150D01*
X123015998Y-66560845D01*
X123076309Y-66560403D01*
X123083992Y-66560400D01*
X123138160Y-66560606D01*
G36*
X114612441Y-66538964D02*
X114709890Y-66565159D01*
X114796720Y-66608589D01*
X114863453Y-66660314D01*
X114929568Y-66733278D01*
X114980035Y-66815371D01*
X115015442Y-66908147D01*
X115036379Y-67013159D01*
X115043436Y-67131964D01*
X115043440Y-67134940D01*
X115043440Y-67241120D01*
X114250960Y-67241120D01*
X114250960Y-67279950D01*
X114260401Y-67343333D01*
X114286566Y-67405474D01*
X114326217Y-67461336D01*
X114376115Y-67505882D01*
X114408122Y-67524383D01*
X114452328Y-67539474D01*
X114504968Y-67545601D01*
X114523571Y-67545920D01*
X114589753Y-67539937D01*
X114642234Y-67520906D01*
X114684117Y-67487202D01*
X114713240Y-67446602D01*
X114743720Y-67394199D01*
X114879147Y-67393859D01*
X115014574Y-67393520D01*
X115007521Y-67426540D01*
X114984531Y-67493567D01*
X114945997Y-67561236D01*
X114895892Y-67624537D01*
X114838191Y-67678462D01*
X114776869Y-67718003D01*
X114775812Y-67718525D01*
X114676937Y-67756030D01*
X114572764Y-67775003D01*
X114466978Y-67775072D01*
X114374816Y-67759026D01*
X114290938Y-67731011D01*
X114219231Y-67692626D01*
X114152541Y-67639781D01*
X114132453Y-67620507D01*
X114069439Y-67543978D01*
X114020443Y-67455679D01*
X113985463Y-67358550D01*
X113964499Y-67255531D01*
X113957548Y-67149562D01*
X113964609Y-67043580D01*
X113971336Y-67010679D01*
X114246531Y-67010679D01*
X114247531Y-67030016D01*
X114249114Y-67032688D01*
X114260298Y-67034122D01*
X114289004Y-67035406D01*
X114332434Y-67036483D01*
X114387791Y-67037298D01*
X114452275Y-67037792D01*
X114507962Y-67037920D01*
X114761577Y-67037920D01*
X114754654Y-66985727D01*
X114736484Y-66911318D01*
X114704072Y-66850983D01*
X114658248Y-66805470D01*
X114599847Y-66775527D01*
X114529698Y-66761902D01*
X114504960Y-66761111D01*
X114432090Y-66768688D01*
X114371890Y-66791514D01*
X114322574Y-66830562D01*
X114286264Y-66879959D01*
X114272636Y-66908868D01*
X114260516Y-66944216D01*
X114251338Y-66980116D01*
X114246531Y-67010679D01*
X113971336Y-67010679D01*
X113985681Y-66940527D01*
X114020761Y-66843341D01*
X114069848Y-66754962D01*
X114132941Y-66678329D01*
X114132960Y-66678310D01*
X114211332Y-66613871D01*
X114298637Y-66567683D01*
X114394863Y-66539750D01*
X114499999Y-66530076D01*
X114504554Y-66530070D01*
X114612441Y-66538964D01*
X114612441Y-66538964D01*
G37*
X114612441Y-66538964D02*
X114709890Y-66565159D01*
X114796720Y-66608589D01*
X114863453Y-66660314D01*
X114929568Y-66733278D01*
X114980035Y-66815371D01*
X115015442Y-66908147D01*
X115036379Y-67013159D01*
X115043436Y-67131964D01*
X115043440Y-67134940D01*
X115043440Y-67241120D01*
X114250960Y-67241120D01*
X114250960Y-67279950D01*
X114260401Y-67343333D01*
X114286566Y-67405474D01*
X114326217Y-67461336D01*
X114376115Y-67505882D01*
X114408122Y-67524383D01*
X114452328Y-67539474D01*
X114504968Y-67545601D01*
X114523571Y-67545920D01*
X114589753Y-67539937D01*
X114642234Y-67520906D01*
X114684117Y-67487202D01*
X114713240Y-67446602D01*
X114743720Y-67394199D01*
X114879147Y-67393859D01*
X115014574Y-67393520D01*
X115007521Y-67426540D01*
X114984531Y-67493567D01*
X114945997Y-67561236D01*
X114895892Y-67624537D01*
X114838191Y-67678462D01*
X114776869Y-67718003D01*
X114775812Y-67718525D01*
X114676937Y-67756030D01*
X114572764Y-67775003D01*
X114466978Y-67775072D01*
X114374816Y-67759026D01*
X114290938Y-67731011D01*
X114219231Y-67692626D01*
X114152541Y-67639781D01*
X114132453Y-67620507D01*
X114069439Y-67543978D01*
X114020443Y-67455679D01*
X113985463Y-67358550D01*
X113964499Y-67255531D01*
X113957548Y-67149562D01*
X113964609Y-67043580D01*
X113971336Y-67010679D01*
X114246531Y-67010679D01*
X114247531Y-67030016D01*
X114249114Y-67032688D01*
X114260298Y-67034122D01*
X114289004Y-67035406D01*
X114332434Y-67036483D01*
X114387791Y-67037298D01*
X114452275Y-67037792D01*
X114507962Y-67037920D01*
X114761577Y-67037920D01*
X114754654Y-66985727D01*
X114736484Y-66911318D01*
X114704072Y-66850983D01*
X114658248Y-66805470D01*
X114599847Y-66775527D01*
X114529698Y-66761902D01*
X114504960Y-66761111D01*
X114432090Y-66768688D01*
X114371890Y-66791514D01*
X114322574Y-66830562D01*
X114286264Y-66879959D01*
X114272636Y-66908868D01*
X114260516Y-66944216D01*
X114251338Y-66980116D01*
X114246531Y-67010679D01*
X113971336Y-67010679D01*
X113985681Y-66940527D01*
X114020761Y-66843341D01*
X114069848Y-66754962D01*
X114132941Y-66678329D01*
X114132960Y-66678310D01*
X114211332Y-66613871D01*
X114298637Y-66567683D01*
X114394863Y-66539750D01*
X114499999Y-66530076D01*
X114504554Y-66530070D01*
X114612441Y-66538964D01*
G36*
X116067594Y-66111656D02*
X116176603Y-66141084D01*
X116245462Y-66170508D01*
X116331282Y-66223197D01*
X116405512Y-66288448D01*
X116466133Y-66363616D01*
X116511121Y-66446055D01*
X116538455Y-66533116D01*
X116542933Y-66559908D01*
X116549811Y-66611758D01*
X116399658Y-66608939D01*
X116249504Y-66606120D01*
X116235916Y-66559476D01*
X116213722Y-66511323D01*
X116177766Y-66463446D01*
X116133656Y-66422267D01*
X116094667Y-66397678D01*
X116022310Y-66373148D01*
X115942141Y-66364047D01*
X115859423Y-66370250D01*
X115779418Y-66391632D01*
X115746054Y-66406001D01*
X115684179Y-66445349D01*
X115633323Y-66497948D01*
X115593130Y-66564678D01*
X115563246Y-66646419D01*
X115543317Y-66744051D01*
X115532989Y-66858454D01*
X115531253Y-66939753D01*
X115536297Y-67068366D01*
X115551377Y-67179583D01*
X115576797Y-67273848D01*
X115612862Y-67351605D01*
X115659876Y-67413296D01*
X115718144Y-67459364D01*
X115787971Y-67490253D01*
X115869660Y-67506406D01*
X115922537Y-67509196D01*
X115969934Y-67508750D01*
X116004224Y-67505674D01*
X116032576Y-67498652D01*
X116062160Y-67486372D01*
X116071488Y-67481886D01*
X116138476Y-67438216D01*
X116192076Y-67380141D01*
X116231130Y-67309481D01*
X116254483Y-67228059D01*
X116259800Y-67185368D01*
X116265538Y-67109499D01*
X116073589Y-67106729D01*
X115881640Y-67103960D01*
X115881640Y-66860120D01*
X116547120Y-66854762D01*
X116547120Y-67749882D01*
X116359698Y-67744040D01*
X116345401Y-67661124D01*
X116331105Y-67578209D01*
X116279092Y-67630690D01*
X116243813Y-67662532D01*
X116204382Y-67692551D01*
X116174497Y-67711287D01*
X116092157Y-67745671D01*
X115999010Y-67768115D01*
X115901397Y-67777585D01*
X115805657Y-67773046D01*
X115800360Y-67772340D01*
X115689160Y-67747159D01*
X115586899Y-67704048D01*
X115494896Y-67643841D01*
X115414475Y-67567378D01*
X115357048Y-67491521D01*
X115323175Y-67432731D01*
X115295275Y-67368442D01*
X115271272Y-67293279D01*
X115254427Y-67225880D01*
X115243748Y-67162556D01*
X115236450Y-67084505D01*
X115232531Y-66997036D01*
X115231991Y-66905459D01*
X115234828Y-66815084D01*
X115241042Y-66731220D01*
X115250631Y-66659176D01*
X115254536Y-66638899D01*
X115288175Y-66523977D01*
X115337516Y-66420136D01*
X115401559Y-66328681D01*
X115479307Y-66250920D01*
X115569761Y-66188158D01*
X115618067Y-66163436D01*
X115724976Y-66124983D01*
X115838033Y-66103563D01*
X115953488Y-66099135D01*
X116067594Y-66111656D01*
X116067594Y-66111656D01*
G37*
X116067594Y-66111656D02*
X116176603Y-66141084D01*
X116245462Y-66170508D01*
X116331282Y-66223197D01*
X116405512Y-66288448D01*
X116466133Y-66363616D01*
X116511121Y-66446055D01*
X116538455Y-66533116D01*
X116542933Y-66559908D01*
X116549811Y-66611758D01*
X116399658Y-66608939D01*
X116249504Y-66606120D01*
X116235916Y-66559476D01*
X116213722Y-66511323D01*
X116177766Y-66463446D01*
X116133656Y-66422267D01*
X116094667Y-66397678D01*
X116022310Y-66373148D01*
X115942141Y-66364047D01*
X115859423Y-66370250D01*
X115779418Y-66391632D01*
X115746054Y-66406001D01*
X115684179Y-66445349D01*
X115633323Y-66497948D01*
X115593130Y-66564678D01*
X115563246Y-66646419D01*
X115543317Y-66744051D01*
X115532989Y-66858454D01*
X115531253Y-66939753D01*
X115536297Y-67068366D01*
X115551377Y-67179583D01*
X115576797Y-67273848D01*
X115612862Y-67351605D01*
X115659876Y-67413296D01*
X115718144Y-67459364D01*
X115787971Y-67490253D01*
X115869660Y-67506406D01*
X115922537Y-67509196D01*
X115969934Y-67508750D01*
X116004224Y-67505674D01*
X116032576Y-67498652D01*
X116062160Y-67486372D01*
X116071488Y-67481886D01*
X116138476Y-67438216D01*
X116192076Y-67380141D01*
X116231130Y-67309481D01*
X116254483Y-67228059D01*
X116259800Y-67185368D01*
X116265538Y-67109499D01*
X116073589Y-67106729D01*
X115881640Y-67103960D01*
X115881640Y-66860120D01*
X116547120Y-66854762D01*
X116547120Y-67749882D01*
X116359698Y-67744040D01*
X116345401Y-67661124D01*
X116331105Y-67578209D01*
X116279092Y-67630690D01*
X116243813Y-67662532D01*
X116204382Y-67692551D01*
X116174497Y-67711287D01*
X116092157Y-67745671D01*
X115999010Y-67768115D01*
X115901397Y-67777585D01*
X115805657Y-67773046D01*
X115800360Y-67772340D01*
X115689160Y-67747159D01*
X115586899Y-67704048D01*
X115494896Y-67643841D01*
X115414475Y-67567378D01*
X115357048Y-67491521D01*
X115323175Y-67432731D01*
X115295275Y-67368442D01*
X115271272Y-67293279D01*
X115254427Y-67225880D01*
X115243748Y-67162556D01*
X115236450Y-67084505D01*
X115232531Y-66997036D01*
X115231991Y-66905459D01*
X115234828Y-66815084D01*
X115241042Y-66731220D01*
X115250631Y-66659176D01*
X115254536Y-66638899D01*
X115288175Y-66523977D01*
X115337516Y-66420136D01*
X115401559Y-66328681D01*
X115479307Y-66250920D01*
X115569761Y-66188158D01*
X115618067Y-66163436D01*
X115724976Y-66124983D01*
X115838033Y-66103563D01*
X115953488Y-66099135D01*
X116067594Y-66111656D01*
G36*
X118356604Y-66540250D02*
X118452389Y-66567268D01*
X118537523Y-66610679D01*
X118611245Y-66669607D01*
X118672796Y-66743171D01*
X118721418Y-66830493D01*
X118756350Y-66930695D01*
X118776834Y-67042897D01*
X118782320Y-67145493D01*
X118782320Y-67241120D01*
X117980068Y-67241120D01*
X117986084Y-67289380D01*
X118003599Y-67361533D01*
X118035881Y-67426666D01*
X118080347Y-67480970D01*
X118134418Y-67520638D01*
X118147094Y-67526909D01*
X118195154Y-67540751D01*
X118252436Y-67545514D01*
X118309983Y-67541204D01*
X118358839Y-67527823D01*
X118361100Y-67526822D01*
X118401574Y-67501011D01*
X118438436Y-67464717D01*
X118464536Y-67425279D01*
X118468107Y-67416952D01*
X118472465Y-67407554D01*
X118479410Y-67401078D01*
X118492342Y-67396981D01*
X118514658Y-67394718D01*
X118549760Y-67393746D01*
X118601046Y-67393522D01*
X118614622Y-67393520D01*
X118752227Y-67393520D01*
X118745917Y-67421460D01*
X118724320Y-67484795D01*
X118689374Y-67550486D01*
X118645450Y-67610942D01*
X118622588Y-67635744D01*
X118549909Y-67693974D01*
X118465417Y-67737540D01*
X118372135Y-67765660D01*
X118273087Y-67777555D01*
X118171294Y-67772446D01*
X118124588Y-67764216D01*
X118030254Y-67733608D01*
X117944586Y-67685273D01*
X117868857Y-67620410D01*
X117804343Y-67540222D01*
X117752320Y-67445910D01*
X117731440Y-67393968D01*
X117719542Y-67359614D01*
X117711158Y-67330913D01*
X117705683Y-67303059D01*
X117702514Y-67271248D01*
X117701045Y-67230673D01*
X117700670Y-67176529D01*
X117700692Y-67149680D01*
X117701020Y-67088463D01*
X117702173Y-67042729D01*
X117703541Y-67024204D01*
X117983593Y-67024204D01*
X117986583Y-67031276D01*
X117998655Y-67033576D01*
X118027492Y-67035366D01*
X118069705Y-67036662D01*
X118121902Y-67037481D01*
X118180694Y-67037839D01*
X118242690Y-67037750D01*
X118304501Y-67037232D01*
X118362735Y-67036299D01*
X118414004Y-67034969D01*
X118454916Y-67033256D01*
X118482081Y-67031177D01*
X118492050Y-67028907D01*
X118494478Y-67010138D01*
X118489801Y-66978849D01*
X118479680Y-66940854D01*
X118465777Y-66901964D01*
X118449751Y-66867994D01*
X118442824Y-66856644D01*
X118399698Y-66808638D01*
X118345918Y-66777362D01*
X118280496Y-66762336D01*
X118246143Y-66760748D01*
X118171785Y-66768368D01*
X118110223Y-66791399D01*
X118060198Y-66830578D01*
X118020446Y-66886646D01*
X118015732Y-66895680D01*
X118001219Y-66930241D01*
X117990181Y-66967104D01*
X117983885Y-67000385D01*
X117983593Y-67024204D01*
X117703541Y-67024204D01*
X117704765Y-67007641D01*
X117709409Y-66978364D01*
X117716720Y-66950060D01*
X117727312Y-66917894D01*
X117731709Y-66905391D01*
X117777292Y-66802178D01*
X117835010Y-66715059D01*
X117904427Y-66644348D01*
X117985110Y-66590358D01*
X118076625Y-66553402D01*
X118178537Y-66533794D01*
X118250925Y-66530505D01*
X118356604Y-66540250D01*
X118356604Y-66540250D01*
G37*
X118356604Y-66540250D02*
X118452389Y-66567268D01*
X118537523Y-66610679D01*
X118611245Y-66669607D01*
X118672796Y-66743171D01*
X118721418Y-66830493D01*
X118756350Y-66930695D01*
X118776834Y-67042897D01*
X118782320Y-67145493D01*
X118782320Y-67241120D01*
X117980068Y-67241120D01*
X117986084Y-67289380D01*
X118003599Y-67361533D01*
X118035881Y-67426666D01*
X118080347Y-67480970D01*
X118134418Y-67520638D01*
X118147094Y-67526909D01*
X118195154Y-67540751D01*
X118252436Y-67545514D01*
X118309983Y-67541204D01*
X118358839Y-67527823D01*
X118361100Y-67526822D01*
X118401574Y-67501011D01*
X118438436Y-67464717D01*
X118464536Y-67425279D01*
X118468107Y-67416952D01*
X118472465Y-67407554D01*
X118479410Y-67401078D01*
X118492342Y-67396981D01*
X118514658Y-67394718D01*
X118549760Y-67393746D01*
X118601046Y-67393522D01*
X118614622Y-67393520D01*
X118752227Y-67393520D01*
X118745917Y-67421460D01*
X118724320Y-67484795D01*
X118689374Y-67550486D01*
X118645450Y-67610942D01*
X118622588Y-67635744D01*
X118549909Y-67693974D01*
X118465417Y-67737540D01*
X118372135Y-67765660D01*
X118273087Y-67777555D01*
X118171294Y-67772446D01*
X118124588Y-67764216D01*
X118030254Y-67733608D01*
X117944586Y-67685273D01*
X117868857Y-67620410D01*
X117804343Y-67540222D01*
X117752320Y-67445910D01*
X117731440Y-67393968D01*
X117719542Y-67359614D01*
X117711158Y-67330913D01*
X117705683Y-67303059D01*
X117702514Y-67271248D01*
X117701045Y-67230673D01*
X117700670Y-67176529D01*
X117700692Y-67149680D01*
X117701020Y-67088463D01*
X117702173Y-67042729D01*
X117703541Y-67024204D01*
X117983593Y-67024204D01*
X117986583Y-67031276D01*
X117998655Y-67033576D01*
X118027492Y-67035366D01*
X118069705Y-67036662D01*
X118121902Y-67037481D01*
X118180694Y-67037839D01*
X118242690Y-67037750D01*
X118304501Y-67037232D01*
X118362735Y-67036299D01*
X118414004Y-67034969D01*
X118454916Y-67033256D01*
X118482081Y-67031177D01*
X118492050Y-67028907D01*
X118494478Y-67010138D01*
X118489801Y-66978849D01*
X118479680Y-66940854D01*
X118465777Y-66901964D01*
X118449751Y-66867994D01*
X118442824Y-66856644D01*
X118399698Y-66808638D01*
X118345918Y-66777362D01*
X118280496Y-66762336D01*
X118246143Y-66760748D01*
X118171785Y-66768368D01*
X118110223Y-66791399D01*
X118060198Y-66830578D01*
X118020446Y-66886646D01*
X118015732Y-66895680D01*
X118001219Y-66930241D01*
X117990181Y-66967104D01*
X117983885Y-67000385D01*
X117983593Y-67024204D01*
X117703541Y-67024204D01*
X117704765Y-67007641D01*
X117709409Y-66978364D01*
X117716720Y-66950060D01*
X117727312Y-66917894D01*
X117731709Y-66905391D01*
X117777292Y-66802178D01*
X117835010Y-66715059D01*
X117904427Y-66644348D01*
X117985110Y-66590358D01*
X118076625Y-66553402D01*
X118178537Y-66533794D01*
X118250925Y-66530505D01*
X118356604Y-66540250D01*
G36*
X119621225Y-66539038D02*
X119718713Y-66565486D01*
X119805842Y-66609390D01*
X119882553Y-66670728D01*
X119894724Y-66683066D01*
X119957452Y-66763416D01*
X120004305Y-66856326D01*
X120035305Y-66961859D01*
X120050476Y-67080080D01*
X120052143Y-67136862D01*
X120052320Y-67240884D01*
X119653573Y-67243542D01*
X119254827Y-67246200D01*
X119258302Y-67286507D01*
X119273032Y-67354917D01*
X119303289Y-67418937D01*
X119346053Y-67474205D01*
X119398304Y-67516357D01*
X119427767Y-67531454D01*
X119472389Y-67542747D01*
X119526886Y-67546063D01*
X119582559Y-67541665D01*
X119630708Y-67529818D01*
X119642186Y-67524948D01*
X119668063Y-67507442D01*
X119696118Y-67481015D01*
X119721766Y-67451018D01*
X119740427Y-67422803D01*
X119747520Y-67401938D01*
X119757063Y-67398869D01*
X119783235Y-67396301D01*
X119822343Y-67394459D01*
X119870697Y-67393568D01*
X119885487Y-67393520D01*
X120023454Y-67393520D01*
X120016306Y-67426540D01*
X119999927Y-67475434D01*
X119972223Y-67530718D01*
X119937178Y-67585413D01*
X119898772Y-67632543D01*
X119898658Y-67632663D01*
X119832963Y-67688001D01*
X119754075Y-67730938D01*
X119665586Y-67760525D01*
X119571090Y-67775809D01*
X119474182Y-67775840D01*
X119399603Y-67764744D01*
X119305975Y-67734120D01*
X119220029Y-67685870D01*
X119143589Y-67621825D01*
X119078477Y-67543815D01*
X119026518Y-67453672D01*
X118989534Y-67353226D01*
X118989439Y-67352880D01*
X118979162Y-67299372D01*
X118972848Y-67232440D01*
X118970511Y-67158590D01*
X118972166Y-67084330D01*
X118977828Y-67016168D01*
X118978877Y-67010150D01*
X119252996Y-67010150D01*
X119255284Y-67028609D01*
X119266709Y-67031236D01*
X119295846Y-67033555D01*
X119340089Y-67035474D01*
X119396832Y-67036897D01*
X119463467Y-67037734D01*
X119515820Y-67037920D01*
X119770601Y-67037920D01*
X119764209Y-66991279D01*
X119752522Y-66940706D01*
X119732797Y-66889313D01*
X119708526Y-66845275D01*
X119693683Y-66826261D01*
X119648093Y-66791406D01*
X119591203Y-66769106D01*
X119528004Y-66759765D01*
X119463484Y-66763790D01*
X119402635Y-66781586D01*
X119368754Y-66799837D01*
X119339642Y-66824463D01*
X119310937Y-66857014D01*
X119300564Y-66871783D01*
X119283539Y-66904196D01*
X119268800Y-66941997D01*
X119258051Y-66979283D01*
X119252996Y-67010150D01*
X118978877Y-67010150D01*
X118987512Y-66960612D01*
X118988531Y-66956640D01*
X119025745Y-66850114D01*
X119076679Y-66757400D01*
X119140309Y-66679332D01*
X119215610Y-66616741D01*
X119301558Y-66570461D01*
X119397128Y-66541325D01*
X119501295Y-66530164D01*
X119513434Y-66530070D01*
X119621225Y-66539038D01*
X119621225Y-66539038D01*
G37*
X119621225Y-66539038D02*
X119718713Y-66565486D01*
X119805842Y-66609390D01*
X119882553Y-66670728D01*
X119894724Y-66683066D01*
X119957452Y-66763416D01*
X120004305Y-66856326D01*
X120035305Y-66961859D01*
X120050476Y-67080080D01*
X120052143Y-67136862D01*
X120052320Y-67240884D01*
X119653573Y-67243542D01*
X119254827Y-67246200D01*
X119258302Y-67286507D01*
X119273032Y-67354917D01*
X119303289Y-67418937D01*
X119346053Y-67474205D01*
X119398304Y-67516357D01*
X119427767Y-67531454D01*
X119472389Y-67542747D01*
X119526886Y-67546063D01*
X119582559Y-67541665D01*
X119630708Y-67529818D01*
X119642186Y-67524948D01*
X119668063Y-67507442D01*
X119696118Y-67481015D01*
X119721766Y-67451018D01*
X119740427Y-67422803D01*
X119747520Y-67401938D01*
X119757063Y-67398869D01*
X119783235Y-67396301D01*
X119822343Y-67394459D01*
X119870697Y-67393568D01*
X119885487Y-67393520D01*
X120023454Y-67393520D01*
X120016306Y-67426540D01*
X119999927Y-67475434D01*
X119972223Y-67530718D01*
X119937178Y-67585413D01*
X119898772Y-67632543D01*
X119898658Y-67632663D01*
X119832963Y-67688001D01*
X119754075Y-67730938D01*
X119665586Y-67760525D01*
X119571090Y-67775809D01*
X119474182Y-67775840D01*
X119399603Y-67764744D01*
X119305975Y-67734120D01*
X119220029Y-67685870D01*
X119143589Y-67621825D01*
X119078477Y-67543815D01*
X119026518Y-67453672D01*
X118989534Y-67353226D01*
X118989439Y-67352880D01*
X118979162Y-67299372D01*
X118972848Y-67232440D01*
X118970511Y-67158590D01*
X118972166Y-67084330D01*
X118977828Y-67016168D01*
X118978877Y-67010150D01*
X119252996Y-67010150D01*
X119255284Y-67028609D01*
X119266709Y-67031236D01*
X119295846Y-67033555D01*
X119340089Y-67035474D01*
X119396832Y-67036897D01*
X119463467Y-67037734D01*
X119515820Y-67037920D01*
X119770601Y-67037920D01*
X119764209Y-66991279D01*
X119752522Y-66940706D01*
X119732797Y-66889313D01*
X119708526Y-66845275D01*
X119693683Y-66826261D01*
X119648093Y-66791406D01*
X119591203Y-66769106D01*
X119528004Y-66759765D01*
X119463484Y-66763790D01*
X119402635Y-66781586D01*
X119368754Y-66799837D01*
X119339642Y-66824463D01*
X119310937Y-66857014D01*
X119300564Y-66871783D01*
X119283539Y-66904196D01*
X119268800Y-66941997D01*
X119258051Y-66979283D01*
X119252996Y-67010150D01*
X118978877Y-67010150D01*
X118987512Y-66960612D01*
X118988531Y-66956640D01*
X119025745Y-66850114D01*
X119076679Y-66757400D01*
X119140309Y-66679332D01*
X119215610Y-66616741D01*
X119301558Y-66570461D01*
X119397128Y-66541325D01*
X119501295Y-66530164D01*
X119513434Y-66530070D01*
X119621225Y-66539038D01*
G36*
X124596169Y-66774643D02*
X124598920Y-67456246D01*
X124627426Y-67480763D01*
X124653741Y-67497601D01*
X124685983Y-67504586D01*
X124706166Y-67505280D01*
X124756400Y-67505280D01*
X124756400Y-67746580D01*
X124724650Y-67752930D01*
X124675215Y-67758481D01*
X124616951Y-67758595D01*
X124558514Y-67753742D01*
X124508561Y-67744393D01*
X124495617Y-67740473D01*
X124432422Y-67711388D01*
X124384357Y-67671725D01*
X124347579Y-67618182D01*
X124343168Y-67609504D01*
X124314440Y-67551000D01*
X124311640Y-66822020D01*
X124308841Y-66093040D01*
X124593419Y-66093040D01*
X124596169Y-66774643D01*
X124596169Y-66774643D01*
G37*
X124596169Y-66774643D02*
X124598920Y-67456246D01*
X124627426Y-67480763D01*
X124653741Y-67497601D01*
X124685983Y-67504586D01*
X124706166Y-67505280D01*
X124756400Y-67505280D01*
X124756400Y-67746580D01*
X124724650Y-67752930D01*
X124675215Y-67758481D01*
X124616951Y-67758595D01*
X124558514Y-67753742D01*
X124508561Y-67744393D01*
X124495617Y-67740473D01*
X124432422Y-67711388D01*
X124384357Y-67671725D01*
X124347579Y-67618182D01*
X124343168Y-67609504D01*
X124314440Y-67551000D01*
X124311640Y-66822020D01*
X124308841Y-66093040D01*
X124593419Y-66093040D01*
X124596169Y-66774643D01*
G36*
X111977342Y-66123586D02*
X112081802Y-66123778D01*
X112178372Y-66124084D01*
X112265300Y-66124491D01*
X112340833Y-66124989D01*
X112403219Y-66125565D01*
X112450706Y-66126208D01*
X112481539Y-66126906D01*
X112493968Y-66127647D01*
X112494126Y-66127718D01*
X112495477Y-66138873D01*
X112496173Y-66166422D01*
X112496182Y-66206447D01*
X112495473Y-66255031D01*
X112495255Y-66264878D01*
X112492150Y-66397840D01*
X112015760Y-66397840D01*
X112015760Y-67749120D01*
X111721120Y-67749120D01*
X111721120Y-66397840D01*
X111243600Y-66397840D01*
X111243600Y-66123520D01*
X111866746Y-66123520D01*
X111977342Y-66123586D01*
X111977342Y-66123586D01*
G37*
X111977342Y-66123586D02*
X112081802Y-66123778D01*
X112178372Y-66124084D01*
X112265300Y-66124491D01*
X112340833Y-66124989D01*
X112403219Y-66125565D01*
X112450706Y-66126208D01*
X112481539Y-66126906D01*
X112493968Y-66127647D01*
X112494126Y-66127718D01*
X112495477Y-66138873D01*
X112496173Y-66166422D01*
X112496182Y-66206447D01*
X112495473Y-66255031D01*
X112495255Y-66264878D01*
X112492150Y-66397840D01*
X112015760Y-66397840D01*
X112015760Y-67749120D01*
X111721120Y-67749120D01*
X111721120Y-66397840D01*
X111243600Y-66397840D01*
X111243600Y-66123520D01*
X111866746Y-66123520D01*
X111977342Y-66123586D01*
G36*
X112971122Y-66385140D02*
X112971023Y-66459141D01*
X112971191Y-66526068D01*
X112971598Y-66583362D01*
X112972218Y-66628462D01*
X112973022Y-66658811D01*
X112973985Y-66671848D01*
X112974168Y-66672160D01*
X112983146Y-66665800D01*
X113001848Y-66649512D01*
X113016270Y-66636177D01*
X113084066Y-66585983D01*
X113163367Y-66551570D01*
X113252071Y-66533623D01*
X113335201Y-66531935D01*
X113422806Y-66546403D01*
X113501122Y-66578288D01*
X113568663Y-66626244D01*
X113623944Y-66688927D01*
X113665480Y-66764990D01*
X113691785Y-66853089D01*
X113692198Y-66855242D01*
X113694482Y-66877485D01*
X113696569Y-66917706D01*
X113698410Y-66973567D01*
X113699954Y-67042727D01*
X113701151Y-67122846D01*
X113701952Y-67211584D01*
X113702306Y-67306601D01*
X113702320Y-67328866D01*
X113702320Y-67749120D01*
X113418892Y-67749120D01*
X113415826Y-67335100D01*
X113415025Y-67232234D01*
X113414220Y-67147662D01*
X113413304Y-67079358D01*
X113412166Y-67025298D01*
X113410700Y-66983455D01*
X113408797Y-66951803D01*
X113406350Y-66928318D01*
X113403248Y-66910973D01*
X113399386Y-66897743D01*
X113394654Y-66886602D01*
X113391541Y-66880440D01*
X113360976Y-66838040D01*
X113320350Y-66810810D01*
X113267407Y-66797658D01*
X113217820Y-66796395D01*
X113175316Y-66799517D01*
X113145134Y-66806066D01*
X113119311Y-66818340D01*
X113102034Y-66829805D01*
X113071620Y-66857230D01*
X113042248Y-66893032D01*
X113030008Y-66912194D01*
X113014734Y-66941525D01*
X113002291Y-66971385D01*
X112992405Y-67004174D01*
X112984800Y-67042295D01*
X112979202Y-67088146D01*
X112975337Y-67144129D01*
X112972928Y-67212644D01*
X112971701Y-67296092D01*
X112971382Y-67396874D01*
X112971410Y-67424000D01*
X112971932Y-67744040D01*
X112686200Y-67749678D01*
X112691400Y-66098120D01*
X112972025Y-66098120D01*
X112971122Y-66385140D01*
X112971122Y-66385140D01*
G37*
X112971122Y-66385140D02*
X112971023Y-66459141D01*
X112971191Y-66526068D01*
X112971598Y-66583362D01*
X112972218Y-66628462D01*
X112973022Y-66658811D01*
X112973985Y-66671848D01*
X112974168Y-66672160D01*
X112983146Y-66665800D01*
X113001848Y-66649512D01*
X113016270Y-66636177D01*
X113084066Y-66585983D01*
X113163367Y-66551570D01*
X113252071Y-66533623D01*
X113335201Y-66531935D01*
X113422806Y-66546403D01*
X113501122Y-66578288D01*
X113568663Y-66626244D01*
X113623944Y-66688927D01*
X113665480Y-66764990D01*
X113691785Y-66853089D01*
X113692198Y-66855242D01*
X113694482Y-66877485D01*
X113696569Y-66917706D01*
X113698410Y-66973567D01*
X113699954Y-67042727D01*
X113701151Y-67122846D01*
X113701952Y-67211584D01*
X113702306Y-67306601D01*
X113702320Y-67328866D01*
X113702320Y-67749120D01*
X113418892Y-67749120D01*
X113415826Y-67335100D01*
X113415025Y-67232234D01*
X113414220Y-67147662D01*
X113413304Y-67079358D01*
X113412166Y-67025298D01*
X113410700Y-66983455D01*
X113408797Y-66951803D01*
X113406350Y-66928318D01*
X113403248Y-66910973D01*
X113399386Y-66897743D01*
X113394654Y-66886602D01*
X113391541Y-66880440D01*
X113360976Y-66838040D01*
X113320350Y-66810810D01*
X113267407Y-66797658D01*
X113217820Y-66796395D01*
X113175316Y-66799517D01*
X113145134Y-66806066D01*
X113119311Y-66818340D01*
X113102034Y-66829805D01*
X113071620Y-66857230D01*
X113042248Y-66893032D01*
X113030008Y-66912194D01*
X113014734Y-66941525D01*
X113002291Y-66971385D01*
X112992405Y-67004174D01*
X112984800Y-67042295D01*
X112979202Y-67088146D01*
X112975337Y-67144129D01*
X112972928Y-67212644D01*
X112971701Y-67296092D01*
X112971382Y-67396874D01*
X112971410Y-67424000D01*
X112971932Y-67744040D01*
X112686200Y-67749678D01*
X112691400Y-66098120D01*
X112972025Y-66098120D01*
X112971122Y-66385140D01*
G36*
X117531488Y-66544907D02*
X117563120Y-66551854D01*
X117563120Y-66819630D01*
X117484380Y-66816126D01*
X117401678Y-66820647D01*
X117330243Y-66841886D01*
X117270494Y-66879578D01*
X117222851Y-66933461D01*
X117188275Y-67001818D01*
X117182292Y-67018783D01*
X117177478Y-67035917D01*
X117173688Y-67055614D01*
X117170776Y-67080272D01*
X117168597Y-67112287D01*
X117167007Y-67154054D01*
X117165860Y-67207970D01*
X117165012Y-67276431D01*
X117164317Y-67361833D01*
X117164043Y-67402313D01*
X117161800Y-67744040D01*
X117017020Y-67746858D01*
X116872240Y-67749677D01*
X116872240Y-66560400D01*
X116993352Y-66560400D01*
X117114465Y-66560399D01*
X117119815Y-66588340D01*
X117124153Y-66614605D01*
X117129316Y-66650778D01*
X117132084Y-66672157D01*
X117136275Y-66703593D01*
X117140025Y-66717550D01*
X117145355Y-66716716D01*
X117154291Y-66703782D01*
X117155014Y-66702637D01*
X117190761Y-66657804D01*
X117237183Y-66616051D01*
X117286819Y-66583603D01*
X117310748Y-66572723D01*
X117358069Y-66558708D01*
X117412132Y-66548352D01*
X117465701Y-66542566D01*
X117511539Y-66542264D01*
X117531488Y-66544907D01*
X117531488Y-66544907D01*
G37*
X117531488Y-66544907D02*
X117563120Y-66551854D01*
X117563120Y-66819630D01*
X117484380Y-66816126D01*
X117401678Y-66820647D01*
X117330243Y-66841886D01*
X117270494Y-66879578D01*
X117222851Y-66933461D01*
X117188275Y-67001818D01*
X117182292Y-67018783D01*
X117177478Y-67035917D01*
X117173688Y-67055614D01*
X117170776Y-67080272D01*
X117168597Y-67112287D01*
X117167007Y-67154054D01*
X117165860Y-67207970D01*
X117165012Y-67276431D01*
X117164317Y-67361833D01*
X117164043Y-67402313D01*
X117161800Y-67744040D01*
X117017020Y-67746858D01*
X116872240Y-67749677D01*
X116872240Y-66560400D01*
X116993352Y-66560400D01*
X117114465Y-66560399D01*
X117119815Y-66588340D01*
X117124153Y-66614605D01*
X117129316Y-66650778D01*
X117132084Y-66672157D01*
X117136275Y-66703593D01*
X117140025Y-66717550D01*
X117145355Y-66716716D01*
X117154291Y-66703782D01*
X117155014Y-66702637D01*
X117190761Y-66657804D01*
X117237183Y-66616051D01*
X117286819Y-66583603D01*
X117310748Y-66572723D01*
X117358069Y-66558708D01*
X117412132Y-66548352D01*
X117465701Y-66542566D01*
X117511539Y-66542264D01*
X117531488Y-66544907D01*
G36*
X120982536Y-66535632D02*
X121019505Y-66537616D01*
X121047969Y-66542203D01*
X121073829Y-66550357D01*
X121102987Y-66563039D01*
X121103880Y-66563455D01*
X121177583Y-66608731D01*
X121238677Y-66668847D01*
X121285366Y-66741438D01*
X121315854Y-66824141D01*
X121321423Y-66849759D01*
X121324349Y-66876503D01*
X121326882Y-66922069D01*
X121328986Y-66984961D01*
X121330627Y-67063685D01*
X121331770Y-67156744D01*
X121332382Y-67262645D01*
X121332480Y-67329345D01*
X121332480Y-67749120D01*
X121048000Y-67749120D01*
X121047757Y-67360500D01*
X121047464Y-67271895D01*
X121046735Y-67188289D01*
X121045626Y-67112192D01*
X121044191Y-67046113D01*
X121042487Y-66992564D01*
X121040569Y-66954054D01*
X121038493Y-66933094D01*
X121038272Y-66932026D01*
X121016077Y-66875554D01*
X120979616Y-66833300D01*
X120930071Y-66806282D01*
X120880518Y-66796210D01*
X120813725Y-66799094D01*
X120755523Y-66820137D01*
X120704062Y-66860085D01*
X120693134Y-66871856D01*
X120671102Y-66899769D01*
X120652763Y-66930375D01*
X120637801Y-66965715D01*
X120625900Y-67007832D01*
X120616745Y-67058768D01*
X120610019Y-67120565D01*
X120605406Y-67195266D01*
X120602591Y-67284911D01*
X120601258Y-67391543D01*
X120601037Y-67467180D01*
X120600960Y-67749120D01*
X120316480Y-67749120D01*
X120316480Y-66560400D01*
X120558533Y-66560400D01*
X120565050Y-66603580D01*
X120571795Y-66648877D01*
X120577479Y-66675801D01*
X120585173Y-66685874D01*
X120597948Y-66680618D01*
X120618874Y-66661556D01*
X120640068Y-66640764D01*
X120689053Y-66598165D01*
X120737573Y-66568134D01*
X120790638Y-66548855D01*
X120853259Y-66538513D01*
X120930447Y-66535291D01*
X120931160Y-66535289D01*
X120982536Y-66535632D01*
X120982536Y-66535632D01*
G37*
X120982536Y-66535632D02*
X121019505Y-66537616D01*
X121047969Y-66542203D01*
X121073829Y-66550357D01*
X121102987Y-66563039D01*
X121103880Y-66563455D01*
X121177583Y-66608731D01*
X121238677Y-66668847D01*
X121285366Y-66741438D01*
X121315854Y-66824141D01*
X121321423Y-66849759D01*
X121324349Y-66876503D01*
X121326882Y-66922069D01*
X121328986Y-66984961D01*
X121330627Y-67063685D01*
X121331770Y-67156744D01*
X121332382Y-67262645D01*
X121332480Y-67329345D01*
X121332480Y-67749120D01*
X121048000Y-67749120D01*
X121047757Y-67360500D01*
X121047464Y-67271895D01*
X121046735Y-67188289D01*
X121045626Y-67112192D01*
X121044191Y-67046113D01*
X121042487Y-66992564D01*
X121040569Y-66954054D01*
X121038493Y-66933094D01*
X121038272Y-66932026D01*
X121016077Y-66875554D01*
X120979616Y-66833300D01*
X120930071Y-66806282D01*
X120880518Y-66796210D01*
X120813725Y-66799094D01*
X120755523Y-66820137D01*
X120704062Y-66860085D01*
X120693134Y-66871856D01*
X120671102Y-66899769D01*
X120652763Y-66930375D01*
X120637801Y-66965715D01*
X120625900Y-67007832D01*
X120616745Y-67058768D01*
X120610019Y-67120565D01*
X120605406Y-67195266D01*
X120602591Y-67284911D01*
X120601258Y-67391543D01*
X120601037Y-67467180D01*
X120600960Y-67749120D01*
X120316480Y-67749120D01*
X120316480Y-66560400D01*
X120558533Y-66560400D01*
X120565050Y-66603580D01*
X120571795Y-66648877D01*
X120577479Y-66675801D01*
X120585173Y-66685874D01*
X120597948Y-66680618D01*
X120618874Y-66661556D01*
X120640068Y-66640764D01*
X120689053Y-66598165D01*
X120737573Y-66568134D01*
X120790638Y-66548855D01*
X120853259Y-66538513D01*
X120930447Y-66535291D01*
X120931160Y-66535289D01*
X120982536Y-66535632D01*
G36*
X122833914Y-66258140D02*
X122831080Y-66392760D01*
X121972102Y-66398060D01*
X121977640Y-66768680D01*
X122356100Y-66771343D01*
X122734560Y-66774007D01*
X122734560Y-67037920D01*
X121972560Y-67037920D01*
X121972560Y-67474579D01*
X122401820Y-67477229D01*
X122831080Y-67479880D01*
X122833914Y-67614500D01*
X122836749Y-67749120D01*
X121677920Y-67749120D01*
X121677920Y-66123520D01*
X122836749Y-66123520D01*
X122833914Y-66258140D01*
X122833914Y-66258140D01*
G37*
X122833914Y-66258140D02*
X122831080Y-66392760D01*
X121972102Y-66398060D01*
X121977640Y-66768680D01*
X122356100Y-66771343D01*
X122734560Y-66774007D01*
X122734560Y-67037920D01*
X121972560Y-67037920D01*
X121972560Y-67474579D01*
X122401820Y-67477229D01*
X122831080Y-67479880D01*
X122833914Y-67614500D01*
X122836749Y-67749120D01*
X121677920Y-67749120D01*
X121677920Y-66123520D01*
X122836749Y-66123520D01*
X122833914Y-66258140D01*
D12*
X141732000Y-82804000D03*
D13*
X138139898Y-79211898D03*
X145324102Y-79211898D03*
X138139898Y-86396102D03*
X145324102Y-86396102D03*
D14*
X108792000Y-83312000D03*
X106092000Y-83312000D03*
X108792000Y-86360000D03*
X106092000Y-86360000D03*
X108792000Y-89408000D03*
X106092000Y-89408000D03*
X162988000Y-83566000D03*
X165688000Y-83566000D03*
X162988000Y-86360000D03*
X165688000Y-86360000D03*
X162988000Y-89408000D03*
X165688000Y-89408000D03*
D15*
X111360000Y-73893680D03*
D16*
X111360000Y-71353680D03*
X113900000Y-73893680D03*
X113900000Y-71353680D03*
X116440000Y-73893680D03*
X116440000Y-71353680D03*
X118980000Y-73893680D03*
X118980000Y-71353680D03*
X121520000Y-73893680D03*
X121520000Y-71353680D03*
X124060000Y-73893680D03*
X124060000Y-71353680D03*
X126600000Y-73893680D03*
X126600000Y-71353680D03*
X129140000Y-73893680D03*
X129140000Y-71353680D03*
X131680000Y-73893680D03*
X131680000Y-71353680D03*
X134220000Y-73893680D03*
X134220000Y-71353680D03*
X136760000Y-73893680D03*
X136760000Y-71353680D03*
X139300000Y-73893680D03*
X139300000Y-71353680D03*
X141840000Y-73893680D03*
X141840000Y-71353680D03*
X144380000Y-73893680D03*
X144380000Y-71353680D03*
X146920000Y-73893680D03*
X146920000Y-71353680D03*
X149460000Y-73893680D03*
X149460000Y-71353680D03*
X152000000Y-73893680D03*
X152000000Y-71353680D03*
X154540000Y-73893680D03*
X154540000Y-71353680D03*
X157080000Y-73893680D03*
X157080000Y-71353680D03*
X159620000Y-73893680D03*
X159620000Y-71353680D03*
D12*
X115316000Y-82804000D03*
D13*
X111723898Y-79211898D03*
X118908102Y-79211898D03*
X111723898Y-86396102D03*
X118908102Y-86396102D03*
D12*
X128524000Y-82804000D03*
D13*
X124931898Y-79211898D03*
X132116102Y-79211898D03*
X124931898Y-86396102D03*
X132116102Y-86396102D03*
D12*
X121920000Y-94742000D03*
D13*
X118327898Y-91149898D03*
X125512102Y-91149898D03*
X118327898Y-98334102D03*
X125512102Y-98334102D03*
D12*
X154940000Y-82804000D03*
D13*
X151347898Y-79211898D03*
X158532102Y-79211898D03*
X151347898Y-86396102D03*
X158532102Y-86396102D03*
D12*
X148336000Y-94742000D03*
D13*
X144743898Y-91149898D03*
X151928102Y-91149898D03*
X144743898Y-98334102D03*
X151928102Y-98334102D03*
D17*
X163500000Y-93720000D03*
D18*
X163500000Y-98800000D03*
D17*
X163500000Y-96260000D03*
X107010000Y-98850000D03*
D18*
X107010000Y-93770000D03*
D17*
X107010000Y-96310000D03*
D19*
X111560000Y-93350000D03*
X129670000Y-89990000D03*
X156160000Y-80100000D03*
X142380000Y-76670000D03*
X155320000Y-93150000D03*
X146550000Y-93210000D03*
X149200000Y-88180000D03*
X148860000Y-81050000D03*
X148860000Y-77620000D03*
D20*
X106620000Y-92210000D02*
X106620000Y-93380000D01*
X106620000Y-93380000D02*
X107010000Y-93770000D01*
X104610000Y-89580000D02*
X104610000Y-90200000D01*
X104610000Y-90200000D02*
X106620000Y-92210000D01*
X106092000Y-78618000D02*
X106092000Y-80528000D01*
X104610000Y-82010000D02*
X104610000Y-89580000D01*
X106092000Y-80528000D02*
X104610000Y-82010000D01*
X111360000Y-71353680D02*
X111266320Y-71353680D01*
X111266320Y-71353680D02*
X109730000Y-72890000D01*
X109730000Y-72890000D02*
X109730000Y-74980000D01*
X109730000Y-74980000D02*
X108930000Y-75780000D01*
X106092000Y-86360000D02*
X106092000Y-83312000D01*
X106620000Y-92210000D02*
X110420000Y-92210000D01*
X110420000Y-92210000D02*
X111560000Y-93350000D01*
X107010000Y-93770000D02*
X107010000Y-93360000D01*
X106092000Y-78618000D02*
X106092000Y-86360000D01*
X108930000Y-75780000D02*
X108925000Y-75785000D01*
X108925000Y-75785000D02*
X106092000Y-78618000D01*
X106092000Y-86360000D02*
X106092000Y-89408000D01*
X124060000Y-73893680D02*
X124060000Y-74600000D01*
X124060000Y-74600000D02*
X121690000Y-76970000D01*
X121690000Y-76970000D02*
X111180000Y-76970000D01*
X111180000Y-76970000D02*
X108792000Y-79358000D01*
X108792000Y-79358000D02*
X108792000Y-83312000D01*
X115316000Y-82804000D02*
X109300000Y-82804000D01*
X109300000Y-82804000D02*
X108792000Y-83312000D01*
X126600000Y-73893680D02*
X126600000Y-77230000D01*
X128524000Y-79154000D02*
X128524000Y-82804000D01*
X126600000Y-77230000D02*
X128524000Y-79154000D01*
X108792000Y-86360000D02*
X108940000Y-86360000D01*
X108940000Y-86360000D02*
X111260000Y-84040000D01*
X111260000Y-84040000D02*
X127288000Y-84040000D01*
X127288000Y-84040000D02*
X128524000Y-82804000D01*
X121920000Y-94742000D02*
X124918000Y-94742000D01*
X124918000Y-94742000D02*
X129670000Y-89990000D01*
X108792000Y-89408000D02*
X110748000Y-89408000D01*
X116082000Y-94742000D02*
X121920000Y-94742000D01*
X110748000Y-89408000D02*
X116082000Y-94742000D01*
D21*
X129140000Y-71353680D02*
X129140000Y-71470000D01*
X129140000Y-71470000D02*
X130290000Y-72620000D01*
X139104000Y-82804000D02*
X141732000Y-82804000D01*
X132910000Y-76610000D02*
X139104000Y-82804000D01*
X132910000Y-73370000D02*
X132910000Y-76610000D01*
X132160000Y-72620000D02*
X132910000Y-73370000D01*
X130290000Y-72620000D02*
X132160000Y-72620000D01*
D20*
X141732000Y-82804000D02*
X152086000Y-82804000D01*
X160532000Y-81110000D02*
X162988000Y-83566000D01*
X153780000Y-81110000D02*
X160532000Y-81110000D01*
X152086000Y-82804000D02*
X153780000Y-81110000D01*
D21*
X156160000Y-77930000D02*
X156160000Y-80100000D01*
X154900000Y-76670000D02*
X156160000Y-77930000D01*
X142380000Y-76670000D02*
X154900000Y-76670000D01*
D20*
X131680000Y-71353680D02*
X131680000Y-70890000D01*
X154940000Y-82804000D02*
X159432000Y-82804000D01*
X159432000Y-82804000D02*
X162988000Y-86360000D01*
D21*
X149868000Y-93210000D02*
X148336000Y-94742000D01*
X155260000Y-93210000D02*
X149868000Y-93210000D01*
X155320000Y-93150000D02*
X155260000Y-93210000D01*
D20*
X148336000Y-94714000D02*
X148336000Y-94742000D01*
X162988000Y-89408000D02*
X161332000Y-89408000D01*
X161332000Y-89408000D02*
X155998000Y-94742000D01*
X155998000Y-94742000D02*
X148336000Y-94742000D01*
X158870000Y-96420000D02*
X163340000Y-96420000D01*
X163340000Y-96420000D02*
X163500000Y-96260000D01*
X146550000Y-93210000D02*
X146220000Y-93540000D01*
X146220000Y-93540000D02*
X146220000Y-95320000D01*
X146220000Y-95320000D02*
X147320000Y-96420000D01*
X147320000Y-96420000D02*
X158870000Y-96420000D01*
X131950000Y-96310000D02*
X133210000Y-96310000D01*
X133210000Y-96310000D02*
X140170000Y-89350000D01*
X112400000Y-96310000D02*
X131950000Y-96310000D01*
X107010000Y-96310000D02*
X112400000Y-96310000D01*
X148030000Y-89350000D02*
X140170000Y-89350000D01*
X149200000Y-88180000D02*
X148030000Y-89350000D01*
X148860000Y-77620000D02*
X148860000Y-81050000D01*
D22*
G36*
X167010713Y-63767867D02*
X167155434Y-63864566D01*
X167252133Y-64009287D01*
X167299981Y-64249834D01*
X167290025Y-100308403D01*
X167241794Y-100550878D01*
X167145095Y-100695599D01*
X167000374Y-100792298D01*
X166760559Y-100840000D01*
X104239931Y-100840000D01*
X103999287Y-100792133D01*
X103854566Y-100695434D01*
X103757867Y-100550713D01*
X103710000Y-100310069D01*
X103710000Y-99230355D01*
X105420373Y-99230355D01*
X105686932Y-99809726D01*
X106154916Y-100242987D01*
X106629646Y-100439619D01*
X106883000Y-100320265D01*
X106883000Y-98977000D01*
X107137000Y-98977000D01*
X107137000Y-100320265D01*
X107390354Y-100439619D01*
X107865084Y-100242987D01*
X108333068Y-99809726D01*
X108599627Y-99230355D01*
X108480807Y-98977000D01*
X107137000Y-98977000D01*
X106883000Y-98977000D01*
X105539193Y-98977000D01*
X105420373Y-99230355D01*
X103710000Y-99230355D01*
X103710000Y-90401094D01*
X103713303Y-90417699D01*
X103741553Y-90559723D01*
X103945320Y-90864680D01*
X105489247Y-92408608D01*
X105414079Y-92518620D01*
X105363070Y-92770510D01*
X105363070Y-94769490D01*
X105407348Y-95004807D01*
X105546420Y-95220931D01*
X105712473Y-95334390D01*
X105499928Y-95652486D01*
X105375510Y-96277978D01*
X105375510Y-96342022D01*
X105499928Y-96967514D01*
X105854241Y-97497781D01*
X106003300Y-97597379D01*
X105686932Y-97890274D01*
X105420373Y-98469645D01*
X105539193Y-98723000D01*
X106883000Y-98723000D01*
X106883000Y-98703000D01*
X107137000Y-98703000D01*
X107137000Y-98723000D01*
X108480807Y-98723000D01*
X108497429Y-98687556D01*
X116908120Y-98687556D01*
X117151455Y-99203976D01*
X117573893Y-99587966D01*
X117974444Y-99753880D01*
X118200898Y-99632268D01*
X118200898Y-98461102D01*
X118454898Y-98461102D01*
X118454898Y-99632268D01*
X118681352Y-99753880D01*
X119197772Y-99510545D01*
X119581762Y-99088107D01*
X119747676Y-98687556D01*
X124092324Y-98687556D01*
X124335659Y-99203976D01*
X124758097Y-99587966D01*
X125158648Y-99753880D01*
X125385102Y-99632268D01*
X125385102Y-98461102D01*
X125639102Y-98461102D01*
X125639102Y-99632268D01*
X125865556Y-99753880D01*
X126381976Y-99510545D01*
X126765966Y-99088107D01*
X126931880Y-98687556D01*
X126894682Y-98618289D01*
X143308650Y-98618289D01*
X143526655Y-99145902D01*
X143929975Y-99549926D01*
X144457207Y-99768852D01*
X145028085Y-99769350D01*
X145555698Y-99551345D01*
X145959722Y-99148025D01*
X146178648Y-98620793D01*
X146179146Y-98049915D01*
X145961141Y-97522302D01*
X145557821Y-97118278D01*
X145030589Y-96899352D01*
X144459711Y-96898854D01*
X143932098Y-97116859D01*
X143528074Y-97520179D01*
X143309148Y-98047411D01*
X143308650Y-98618289D01*
X126894682Y-98618289D01*
X126810268Y-98461102D01*
X125639102Y-98461102D01*
X125385102Y-98461102D01*
X124213936Y-98461102D01*
X124092324Y-98687556D01*
X119747676Y-98687556D01*
X119626064Y-98461102D01*
X118454898Y-98461102D01*
X118200898Y-98461102D01*
X117029732Y-98461102D01*
X116908120Y-98687556D01*
X108497429Y-98687556D01*
X108599627Y-98469645D01*
X108333068Y-97890274D01*
X108016700Y-97597379D01*
X108165759Y-97497781D01*
X108331321Y-97250000D01*
X117374087Y-97250000D01*
X117074034Y-97580097D01*
X116908120Y-97980648D01*
X117029732Y-98207102D01*
X118200898Y-98207102D01*
X118200898Y-97250000D01*
X118454898Y-97250000D01*
X118454898Y-98207102D01*
X119626064Y-98207102D01*
X119747676Y-97980648D01*
X119504341Y-97464228D01*
X119268663Y-97250000D01*
X124558291Y-97250000D01*
X124258238Y-97580097D01*
X124092324Y-97980648D01*
X124213936Y-98207102D01*
X125385102Y-98207102D01*
X125385102Y-97250000D01*
X125639102Y-97250000D01*
X125639102Y-98207102D01*
X126810268Y-98207102D01*
X126931880Y-97980648D01*
X126688545Y-97464228D01*
X126452867Y-97250000D01*
X133210000Y-97250000D01*
X133510041Y-97190318D01*
X133569723Y-97178447D01*
X133874680Y-96974680D01*
X137309360Y-93540000D01*
X145280000Y-93540000D01*
X145280000Y-95320000D01*
X145336190Y-95602486D01*
X145351553Y-95679723D01*
X145555320Y-95984680D01*
X146655320Y-97084680D01*
X146960277Y-97288447D01*
X147320000Y-97360000D01*
X150872737Y-97360000D01*
X150712278Y-97520179D01*
X150493352Y-98047411D01*
X150492854Y-98618289D01*
X150710859Y-99145902D01*
X151114179Y-99549926D01*
X151641411Y-99768852D01*
X152212289Y-99769350D01*
X152739902Y-99551345D01*
X153143926Y-99148025D01*
X153362852Y-98620793D01*
X153363350Y-98049915D01*
X153145345Y-97522302D01*
X152983326Y-97360000D01*
X162032957Y-97360000D01*
X161904079Y-97548620D01*
X161853070Y-97800510D01*
X161853070Y-99799490D01*
X161897348Y-100034807D01*
X162036420Y-100250931D01*
X162248620Y-100395921D01*
X162500510Y-100446930D01*
X164499490Y-100446930D01*
X164734807Y-100402652D01*
X164950931Y-100263580D01*
X165095921Y-100051380D01*
X165146930Y-99799490D01*
X165146930Y-97800510D01*
X165102652Y-97565193D01*
X164963580Y-97349069D01*
X164797527Y-97235610D01*
X165010072Y-96917514D01*
X165134490Y-96292022D01*
X165134490Y-96227978D01*
X165010072Y-95602486D01*
X164655759Y-95072219D01*
X164506700Y-94972621D01*
X164823068Y-94679726D01*
X165089627Y-94100355D01*
X164970807Y-93847000D01*
X163627000Y-93847000D01*
X163627000Y-93867000D01*
X163373000Y-93867000D01*
X163373000Y-93847000D01*
X162029193Y-93847000D01*
X161910373Y-94100355D01*
X162176932Y-94679726D01*
X162493300Y-94972621D01*
X162344241Y-95072219D01*
X162071771Y-95480000D01*
X156552950Y-95480000D01*
X156662680Y-95406680D01*
X158729715Y-93339645D01*
X161910373Y-93339645D01*
X162029193Y-93593000D01*
X163373000Y-93593000D01*
X163373000Y-92249735D01*
X163627000Y-92249735D01*
X163627000Y-93593000D01*
X164970807Y-93593000D01*
X165089627Y-93339645D01*
X164823068Y-92760274D01*
X164355084Y-92327013D01*
X163880354Y-92130381D01*
X163627000Y-92249735D01*
X163373000Y-92249735D01*
X163119646Y-92130381D01*
X162644916Y-92327013D01*
X162176932Y-92760274D01*
X161910373Y-93339645D01*
X158729715Y-93339645D01*
X161690125Y-90379235D01*
X161773910Y-90509441D01*
X161986110Y-90654431D01*
X162238000Y-90705440D01*
X163738000Y-90705440D01*
X163973317Y-90661162D01*
X164189441Y-90522090D01*
X164334431Y-90309890D01*
X164341191Y-90276510D01*
X164399673Y-90417699D01*
X164578302Y-90596327D01*
X164811691Y-90693000D01*
X165402250Y-90693000D01*
X165561000Y-90534250D01*
X165561000Y-89535000D01*
X165815000Y-89535000D01*
X165815000Y-90534250D01*
X165973750Y-90693000D01*
X166564309Y-90693000D01*
X166797698Y-90596327D01*
X166976327Y-90417699D01*
X167073000Y-90184310D01*
X167073000Y-89693750D01*
X166914250Y-89535000D01*
X165815000Y-89535000D01*
X165561000Y-89535000D01*
X165541000Y-89535000D01*
X165541000Y-89281000D01*
X165561000Y-89281000D01*
X165561000Y-88281750D01*
X165815000Y-88281750D01*
X165815000Y-89281000D01*
X166914250Y-89281000D01*
X167073000Y-89122250D01*
X167073000Y-88631690D01*
X166976327Y-88398301D01*
X166797698Y-88219673D01*
X166564309Y-88123000D01*
X165973750Y-88123000D01*
X165815000Y-88281750D01*
X165561000Y-88281750D01*
X165402250Y-88123000D01*
X164811691Y-88123000D01*
X164578302Y-88219673D01*
X164399673Y-88398301D01*
X164343346Y-88534287D01*
X164341162Y-88522683D01*
X164202090Y-88306559D01*
X163989890Y-88161569D01*
X163738000Y-88110560D01*
X162238000Y-88110560D01*
X162002683Y-88154838D01*
X161786559Y-88293910D01*
X161667608Y-88468000D01*
X161332000Y-88468000D01*
X161031959Y-88527682D01*
X160972277Y-88539553D01*
X160667320Y-88743320D01*
X156254996Y-93155644D01*
X156255162Y-92964833D01*
X156113117Y-92621057D01*
X155850327Y-92357808D01*
X155506799Y-92215162D01*
X155134833Y-92214838D01*
X154791057Y-92356883D01*
X154697777Y-92450000D01*
X152539368Y-92450000D01*
X152739902Y-92367141D01*
X153143926Y-91963821D01*
X153362852Y-91436589D01*
X153363350Y-90865711D01*
X153145345Y-90338098D01*
X152742025Y-89934074D01*
X152214793Y-89715148D01*
X151643915Y-89714650D01*
X151116302Y-89932655D01*
X150712278Y-90335975D01*
X150493352Y-90863207D01*
X150492854Y-91434085D01*
X150710859Y-91961698D01*
X151114179Y-92365722D01*
X151317143Y-92450000D01*
X149868000Y-92450000D01*
X149577160Y-92507852D01*
X149330599Y-92672599D01*
X148496059Y-93507139D01*
X148091421Y-93506786D01*
X147637343Y-93694408D01*
X147289629Y-94041515D01*
X147160000Y-94353696D01*
X147160000Y-93929361D01*
X147214680Y-93874681D01*
X147228855Y-93853466D01*
X147342192Y-93740327D01*
X147404148Y-93591122D01*
X147418446Y-93569723D01*
X147423423Y-93544702D01*
X147484838Y-93396799D01*
X147484979Y-93235239D01*
X147489999Y-93210000D01*
X147485023Y-93184981D01*
X147485162Y-93024833D01*
X147423467Y-92875519D01*
X147418446Y-92850277D01*
X147404272Y-92829065D01*
X147343117Y-92681057D01*
X147228978Y-92566719D01*
X147214680Y-92545320D01*
X147193468Y-92531146D01*
X147080327Y-92417808D01*
X146931122Y-92355852D01*
X146909723Y-92341554D01*
X146884702Y-92336577D01*
X146736799Y-92275162D01*
X146575239Y-92275021D01*
X146550000Y-92270001D01*
X146524981Y-92274977D01*
X146364833Y-92274838D01*
X146215519Y-92336533D01*
X146190277Y-92341554D01*
X146169065Y-92355728D01*
X146021057Y-92416883D01*
X145906721Y-92531020D01*
X145885319Y-92545320D01*
X145555320Y-92875320D01*
X145351553Y-93180277D01*
X145351553Y-93180278D01*
X145280000Y-93540000D01*
X137309360Y-93540000D01*
X140559361Y-90290000D01*
X143574129Y-90290000D01*
X143528074Y-90335975D01*
X143309148Y-90863207D01*
X143308650Y-91434085D01*
X143526655Y-91961698D01*
X143929975Y-92365722D01*
X144457207Y-92584648D01*
X145028085Y-92585146D01*
X145555698Y-92367141D01*
X145959722Y-91963821D01*
X146178648Y-91436589D01*
X146179146Y-90865711D01*
X145961141Y-90338098D01*
X145913127Y-90290000D01*
X148030000Y-90290000D01*
X148330041Y-90230318D01*
X148389723Y-90218447D01*
X148694680Y-90014680D01*
X149864680Y-88844680D01*
X149878854Y-88823468D01*
X149992192Y-88710327D01*
X150054146Y-88561126D01*
X150068447Y-88539723D01*
X150073425Y-88514698D01*
X150134838Y-88366799D01*
X150134979Y-88205244D01*
X150140000Y-88180000D01*
X150135023Y-88154976D01*
X150135162Y-87994833D01*
X150073469Y-87845524D01*
X150068447Y-87820277D01*
X150054271Y-87799061D01*
X149993117Y-87651057D01*
X149878979Y-87536719D01*
X149864680Y-87515320D01*
X149843468Y-87501146D01*
X149730327Y-87387808D01*
X149581126Y-87325854D01*
X149559723Y-87311553D01*
X149534698Y-87306575D01*
X149386799Y-87245162D01*
X149225244Y-87245021D01*
X149200000Y-87240000D01*
X149174976Y-87244977D01*
X149014833Y-87244838D01*
X148865524Y-87306531D01*
X148840277Y-87311553D01*
X148819061Y-87325729D01*
X148671057Y-87386883D01*
X148556719Y-87501021D01*
X148535320Y-87515320D01*
X147640640Y-88410000D01*
X140170000Y-88410000D01*
X139810278Y-88481553D01*
X139810276Y-88481554D01*
X139810277Y-88481554D01*
X139505319Y-88685320D01*
X132820640Y-95370000D01*
X125619360Y-95370000D01*
X130334680Y-90654680D01*
X130348854Y-90633468D01*
X130462192Y-90520327D01*
X130524146Y-90371126D01*
X130538447Y-90349723D01*
X130543425Y-90324698D01*
X130604838Y-90176799D01*
X130604979Y-90015244D01*
X130610000Y-89990000D01*
X130605023Y-89964976D01*
X130605162Y-89804833D01*
X130543469Y-89655524D01*
X130538447Y-89630277D01*
X130524271Y-89609061D01*
X130463117Y-89461057D01*
X130348979Y-89346719D01*
X130334680Y-89325320D01*
X130313468Y-89311146D01*
X130200327Y-89197808D01*
X130051126Y-89135854D01*
X130029723Y-89121553D01*
X130004698Y-89116575D01*
X129856799Y-89055162D01*
X129695244Y-89055021D01*
X129670000Y-89050000D01*
X129644976Y-89054977D01*
X129484833Y-89054838D01*
X129335524Y-89116531D01*
X129310277Y-89121553D01*
X129289061Y-89135729D01*
X129141057Y-89196883D01*
X129026719Y-89311021D01*
X129005320Y-89325320D01*
X126895336Y-91435304D01*
X126810268Y-91276898D01*
X125818710Y-91276898D01*
X125705851Y-91164039D01*
X125526243Y-91343647D01*
X125639102Y-91456506D01*
X125639102Y-92448064D01*
X125797508Y-92533132D01*
X124528640Y-93802000D01*
X122726670Y-93802000D01*
X122620485Y-93695629D01*
X122166734Y-93507215D01*
X121675421Y-93506786D01*
X121221343Y-93694408D01*
X121113563Y-93802000D01*
X116471360Y-93802000D01*
X114172712Y-91503352D01*
X116908120Y-91503352D01*
X117151455Y-92019772D01*
X117573893Y-92403762D01*
X117974444Y-92569676D01*
X118200898Y-92448064D01*
X118200898Y-91276898D01*
X118454898Y-91276898D01*
X118454898Y-92448064D01*
X118681352Y-92569676D01*
X119197772Y-92326341D01*
X119581762Y-91903903D01*
X119747676Y-91503352D01*
X124092324Y-91503352D01*
X124335659Y-92019772D01*
X124758097Y-92403762D01*
X125158648Y-92569676D01*
X125385102Y-92448064D01*
X125385102Y-91276898D01*
X124213936Y-91276898D01*
X124092324Y-91503352D01*
X119747676Y-91503352D01*
X119626064Y-91276898D01*
X118454898Y-91276898D01*
X118200898Y-91276898D01*
X117029732Y-91276898D01*
X116908120Y-91503352D01*
X114172712Y-91503352D01*
X113465804Y-90796444D01*
X116908120Y-90796444D01*
X117029732Y-91022898D01*
X118200898Y-91022898D01*
X118200898Y-89851732D01*
X118454898Y-89851732D01*
X118454898Y-91022898D01*
X119626064Y-91022898D01*
X119747676Y-90796444D01*
X124092324Y-90796444D01*
X124213936Y-91022898D01*
X125385102Y-91022898D01*
X125385102Y-89851732D01*
X125639102Y-89851732D01*
X125639102Y-91022898D01*
X126810268Y-91022898D01*
X126931880Y-90796444D01*
X126688545Y-90280024D01*
X126266107Y-89896034D01*
X125865556Y-89730120D01*
X125639102Y-89851732D01*
X125385102Y-89851732D01*
X125158648Y-89730120D01*
X124642228Y-89973455D01*
X124258238Y-90395893D01*
X124092324Y-90796444D01*
X119747676Y-90796444D01*
X119504341Y-90280024D01*
X119081903Y-89896034D01*
X118681352Y-89730120D01*
X118454898Y-89851732D01*
X118200898Y-89851732D01*
X117974444Y-89730120D01*
X117458024Y-89973455D01*
X117074034Y-90395893D01*
X116908120Y-90796444D01*
X113465804Y-90796444D01*
X111412680Y-88743320D01*
X111107723Y-88539553D01*
X111048041Y-88527682D01*
X110748000Y-88468000D01*
X110109974Y-88468000D01*
X110006090Y-88306559D01*
X109793890Y-88161569D01*
X109542000Y-88110560D01*
X108042000Y-88110560D01*
X107806683Y-88154838D01*
X107590559Y-88293910D01*
X107445569Y-88506110D01*
X107442919Y-88519197D01*
X107306090Y-88306559D01*
X107093890Y-88161569D01*
X107032000Y-88149036D01*
X107032000Y-87621689D01*
X107077317Y-87613162D01*
X107293441Y-87474090D01*
X107438431Y-87261890D01*
X107441081Y-87248803D01*
X107577910Y-87461441D01*
X107790110Y-87606431D01*
X108042000Y-87657440D01*
X109542000Y-87657440D01*
X109777317Y-87613162D01*
X109993441Y-87474090D01*
X110138431Y-87261890D01*
X110189440Y-87010000D01*
X110189440Y-86749556D01*
X110304120Y-86749556D01*
X110547455Y-87265976D01*
X110969893Y-87649966D01*
X111370444Y-87815880D01*
X111596898Y-87694268D01*
X111596898Y-86523102D01*
X111850898Y-86523102D01*
X111850898Y-87694268D01*
X112077352Y-87815880D01*
X112593772Y-87572545D01*
X112977762Y-87150107D01*
X113143676Y-86749556D01*
X117488324Y-86749556D01*
X117731659Y-87265976D01*
X118154097Y-87649966D01*
X118554648Y-87815880D01*
X118781102Y-87694268D01*
X118781102Y-86523102D01*
X119035102Y-86523102D01*
X119035102Y-87694268D01*
X119261556Y-87815880D01*
X119777976Y-87572545D01*
X120161966Y-87150107D01*
X120327880Y-86749556D01*
X123512120Y-86749556D01*
X123755455Y-87265976D01*
X124177893Y-87649966D01*
X124578444Y-87815880D01*
X124804898Y-87694268D01*
X124804898Y-86523102D01*
X125058898Y-86523102D01*
X125058898Y-87694268D01*
X125285352Y-87815880D01*
X125801772Y-87572545D01*
X126185762Y-87150107D01*
X126351676Y-86749556D01*
X130696324Y-86749556D01*
X130939659Y-87265976D01*
X131362097Y-87649966D01*
X131762648Y-87815880D01*
X131989102Y-87694268D01*
X131989102Y-86523102D01*
X132243102Y-86523102D01*
X132243102Y-87694268D01*
X132469556Y-87815880D01*
X132985976Y-87572545D01*
X133369966Y-87150107D01*
X133535880Y-86749556D01*
X133498682Y-86680289D01*
X136704650Y-86680289D01*
X136922655Y-87207902D01*
X137325975Y-87611926D01*
X137853207Y-87830852D01*
X138424085Y-87831350D01*
X138951698Y-87613345D01*
X139355722Y-87210025D01*
X139574648Y-86682793D01*
X139574650Y-86680289D01*
X143888854Y-86680289D01*
X144106859Y-87207902D01*
X144510179Y-87611926D01*
X145037411Y-87830852D01*
X145608289Y-87831350D01*
X146135902Y-87613345D01*
X146539926Y-87210025D01*
X146758852Y-86682793D01*
X146758854Y-86680289D01*
X149912650Y-86680289D01*
X150130655Y-87207902D01*
X150533975Y-87611926D01*
X151061207Y-87830852D01*
X151632085Y-87831350D01*
X152159698Y-87613345D01*
X152563722Y-87210025D01*
X152782648Y-86682793D01*
X152782650Y-86680289D01*
X157096854Y-86680289D01*
X157314859Y-87207902D01*
X157718179Y-87611926D01*
X158245411Y-87830852D01*
X158816289Y-87831350D01*
X159343902Y-87613345D01*
X159747926Y-87210025D01*
X159966852Y-86682793D01*
X159967350Y-86111915D01*
X159749345Y-85584302D01*
X159346025Y-85180278D01*
X158818793Y-84961352D01*
X158247915Y-84960854D01*
X157720302Y-85178859D01*
X157316278Y-85582179D01*
X157097352Y-86109411D01*
X157096854Y-86680289D01*
X152782650Y-86680289D01*
X152783146Y-86111915D01*
X152565141Y-85584302D01*
X152161821Y-85180278D01*
X151634589Y-84961352D01*
X151063711Y-84960854D01*
X150536098Y-85178859D01*
X150132074Y-85582179D01*
X149913148Y-86109411D01*
X149912650Y-86680289D01*
X146758854Y-86680289D01*
X146759350Y-86111915D01*
X146541345Y-85584302D01*
X146138025Y-85180278D01*
X145610793Y-84961352D01*
X145039915Y-84960854D01*
X144512302Y-85178859D01*
X144108278Y-85582179D01*
X143889352Y-86109411D01*
X143888854Y-86680289D01*
X139574650Y-86680289D01*
X139575146Y-86111915D01*
X139357141Y-85584302D01*
X138953821Y-85180278D01*
X138426589Y-84961352D01*
X137855711Y-84960854D01*
X137328098Y-85178859D01*
X136924074Y-85582179D01*
X136705148Y-86109411D01*
X136704650Y-86680289D01*
X133498682Y-86680289D01*
X133414268Y-86523102D01*
X132243102Y-86523102D01*
X131989102Y-86523102D01*
X130817936Y-86523102D01*
X130696324Y-86749556D01*
X126351676Y-86749556D01*
X126230064Y-86523102D01*
X125058898Y-86523102D01*
X124804898Y-86523102D01*
X123633732Y-86523102D01*
X123512120Y-86749556D01*
X120327880Y-86749556D01*
X120206268Y-86523102D01*
X119035102Y-86523102D01*
X118781102Y-86523102D01*
X117609936Y-86523102D01*
X117488324Y-86749556D01*
X113143676Y-86749556D01*
X113022064Y-86523102D01*
X111850898Y-86523102D01*
X111596898Y-86523102D01*
X110425732Y-86523102D01*
X110304120Y-86749556D01*
X110189440Y-86749556D01*
X110189440Y-86439920D01*
X110402856Y-86226504D01*
X110425732Y-86269102D01*
X111417290Y-86269102D01*
X111530149Y-86381961D01*
X111709757Y-86202353D01*
X111596898Y-86089494D01*
X111596898Y-85097936D01*
X111554301Y-85075060D01*
X111649361Y-84980000D01*
X112070507Y-84980000D01*
X111850898Y-85097936D01*
X111850898Y-86269102D01*
X113022064Y-86269102D01*
X113143676Y-86042648D01*
X112900341Y-85526228D01*
X112477903Y-85142238D01*
X112086227Y-84980000D01*
X118546847Y-84980000D01*
X118038228Y-85219659D01*
X117654238Y-85642097D01*
X117488324Y-86042648D01*
X117609936Y-86269102D01*
X118781102Y-86269102D01*
X118781102Y-85097936D01*
X118561493Y-84980000D01*
X119254711Y-84980000D01*
X119035102Y-85097936D01*
X119035102Y-86269102D01*
X120206268Y-86269102D01*
X120327880Y-86042648D01*
X120084545Y-85526228D01*
X119662107Y-85142238D01*
X119270431Y-84980000D01*
X124570643Y-84980000D01*
X124062024Y-85219659D01*
X123678034Y-85642097D01*
X123512120Y-86042648D01*
X123633732Y-86269102D01*
X124804898Y-86269102D01*
X124804898Y-85097936D01*
X124585289Y-84980000D01*
X125278507Y-84980000D01*
X125058898Y-85097936D01*
X125058898Y-86269102D01*
X126230064Y-86269102D01*
X126351676Y-86042648D01*
X130696324Y-86042648D01*
X130817936Y-86269102D01*
X131989102Y-86269102D01*
X131989102Y-85097936D01*
X132243102Y-85097936D01*
X132243102Y-86269102D01*
X133414268Y-86269102D01*
X133535880Y-86042648D01*
X133292545Y-85526228D01*
X132870107Y-85142238D01*
X132469556Y-84976324D01*
X132243102Y-85097936D01*
X131989102Y-85097936D01*
X131762648Y-84976324D01*
X131246228Y-85219659D01*
X130862238Y-85642097D01*
X130696324Y-86042648D01*
X126351676Y-86042648D01*
X126108341Y-85526228D01*
X125685903Y-85142238D01*
X125294227Y-84980000D01*
X127288000Y-84980000D01*
X127588041Y-84920318D01*
X127647723Y-84908447D01*
X127952680Y-84704680D01*
X128618277Y-84039083D01*
X128768579Y-84039214D01*
X129222657Y-83851592D01*
X129570371Y-83504485D01*
X129758785Y-83050734D01*
X129759214Y-82559421D01*
X129571592Y-82105343D01*
X129464000Y-81997563D01*
X129464000Y-79565352D01*
X130696324Y-79565352D01*
X130939659Y-80081772D01*
X131362097Y-80465762D01*
X131762648Y-80631676D01*
X131989102Y-80510064D01*
X131989102Y-79338898D01*
X132243102Y-79338898D01*
X132243102Y-80510064D01*
X132469556Y-80631676D01*
X132985976Y-80388341D01*
X133369966Y-79965903D01*
X133535880Y-79565352D01*
X133414268Y-79338898D01*
X132243102Y-79338898D01*
X131989102Y-79338898D01*
X130817936Y-79338898D01*
X130696324Y-79565352D01*
X129464000Y-79565352D01*
X129464000Y-79154000D01*
X129428936Y-78977723D01*
X129405211Y-78858444D01*
X130696324Y-78858444D01*
X130817936Y-79084898D01*
X131989102Y-79084898D01*
X131989102Y-77913732D01*
X132243102Y-77913732D01*
X132243102Y-79084898D01*
X133414268Y-79084898D01*
X133535880Y-78858444D01*
X133292545Y-78342024D01*
X132870107Y-77958034D01*
X132469556Y-77792120D01*
X132243102Y-77913732D01*
X131989102Y-77913732D01*
X131762648Y-77792120D01*
X131246228Y-78035455D01*
X130862238Y-78457893D01*
X130696324Y-78858444D01*
X129405211Y-78858444D01*
X129392447Y-78794277D01*
X129188680Y-78489320D01*
X127540000Y-76840640D01*
X127540000Y-75046363D01*
X127650054Y-74972827D01*
X127870000Y-74643654D01*
X128089946Y-74972827D01*
X128571715Y-75294734D01*
X129140000Y-75407773D01*
X129708285Y-75294734D01*
X130190054Y-74972827D01*
X130410000Y-74643654D01*
X130629946Y-74972827D01*
X131111715Y-75294734D01*
X131680000Y-75407773D01*
X132150000Y-75314284D01*
X132150000Y-76610000D01*
X132207852Y-76900839D01*
X132372599Y-77147401D01*
X138566599Y-83341401D01*
X138813161Y-83506148D01*
X139104000Y-83564000D01*
X140745644Y-83564000D01*
X141031515Y-83850371D01*
X141485266Y-84038785D01*
X141976579Y-84039214D01*
X142430657Y-83851592D01*
X142538437Y-83744000D01*
X152086000Y-83744000D01*
X152406358Y-83680277D01*
X152445723Y-83672447D01*
X152750680Y-83468680D01*
X153735835Y-82483526D01*
X153705215Y-82557266D01*
X153704786Y-83048579D01*
X153892408Y-83502657D01*
X154239515Y-83850371D01*
X154693266Y-84038785D01*
X155184579Y-84039214D01*
X155638657Y-83851592D01*
X155746437Y-83744000D01*
X159042640Y-83744000D01*
X161590560Y-86291921D01*
X161590560Y-87010000D01*
X161634838Y-87245317D01*
X161773910Y-87461441D01*
X161986110Y-87606431D01*
X162238000Y-87657440D01*
X163738000Y-87657440D01*
X163973317Y-87613162D01*
X164189441Y-87474090D01*
X164334431Y-87261890D01*
X164341191Y-87228510D01*
X164399673Y-87369699D01*
X164578302Y-87548327D01*
X164811691Y-87645000D01*
X165402250Y-87645000D01*
X165561000Y-87486250D01*
X165561000Y-86487000D01*
X165815000Y-86487000D01*
X165815000Y-87486250D01*
X165973750Y-87645000D01*
X166564309Y-87645000D01*
X166797698Y-87548327D01*
X166976327Y-87369699D01*
X167073000Y-87136310D01*
X167073000Y-86645750D01*
X166914250Y-86487000D01*
X165815000Y-86487000D01*
X165561000Y-86487000D01*
X165541000Y-86487000D01*
X165541000Y-86233000D01*
X165561000Y-86233000D01*
X165561000Y-85233750D01*
X165815000Y-85233750D01*
X165815000Y-86233000D01*
X166914250Y-86233000D01*
X167073000Y-86074250D01*
X167073000Y-85583690D01*
X166976327Y-85350301D01*
X166797698Y-85171673D01*
X166564309Y-85075000D01*
X165973750Y-85075000D01*
X165815000Y-85233750D01*
X165561000Y-85233750D01*
X165402250Y-85075000D01*
X164811691Y-85075000D01*
X164578302Y-85171673D01*
X164399673Y-85350301D01*
X164343346Y-85486287D01*
X164341162Y-85474683D01*
X164202090Y-85258559D01*
X163989890Y-85113569D01*
X163738000Y-85062560D01*
X163019921Y-85062560D01*
X162820801Y-84863440D01*
X163738000Y-84863440D01*
X163973317Y-84819162D01*
X164189441Y-84680090D01*
X164334431Y-84467890D01*
X164341191Y-84434510D01*
X164399673Y-84575699D01*
X164578302Y-84754327D01*
X164811691Y-84851000D01*
X165402250Y-84851000D01*
X165561000Y-84692250D01*
X165561000Y-83693000D01*
X165815000Y-83693000D01*
X165815000Y-84692250D01*
X165973750Y-84851000D01*
X166564309Y-84851000D01*
X166797698Y-84754327D01*
X166976327Y-84575699D01*
X167073000Y-84342310D01*
X167073000Y-83851750D01*
X166914250Y-83693000D01*
X165815000Y-83693000D01*
X165561000Y-83693000D01*
X165541000Y-83693000D01*
X165541000Y-83439000D01*
X165561000Y-83439000D01*
X165561000Y-82439750D01*
X165815000Y-82439750D01*
X165815000Y-83439000D01*
X166914250Y-83439000D01*
X167073000Y-83280250D01*
X167073000Y-82789690D01*
X166976327Y-82556301D01*
X166797698Y-82377673D01*
X166564309Y-82281000D01*
X165973750Y-82281000D01*
X165815000Y-82439750D01*
X165561000Y-82439750D01*
X165402250Y-82281000D01*
X164811691Y-82281000D01*
X164578302Y-82377673D01*
X164399673Y-82556301D01*
X164343346Y-82692287D01*
X164341162Y-82680683D01*
X164202090Y-82464559D01*
X163989890Y-82319569D01*
X163738000Y-82268560D01*
X163019921Y-82268560D01*
X161196680Y-80445320D01*
X160891723Y-80241553D01*
X160815779Y-80226447D01*
X160532000Y-80170000D01*
X159603495Y-80170000D01*
X159747926Y-80025821D01*
X159966852Y-79498589D01*
X159967350Y-78927711D01*
X159749345Y-78400098D01*
X159346025Y-77996074D01*
X158818793Y-77777148D01*
X158247915Y-77776650D01*
X157720302Y-77994655D01*
X157316278Y-78397975D01*
X157097352Y-78925207D01*
X157096854Y-79496085D01*
X157314859Y-80023698D01*
X157460906Y-80170000D01*
X157094940Y-80170000D01*
X157095162Y-79914833D01*
X156953117Y-79571057D01*
X156920000Y-79537882D01*
X156920000Y-77930000D01*
X156862148Y-77639161D01*
X156697401Y-77392599D01*
X155437401Y-76132599D01*
X155190839Y-75967852D01*
X154900000Y-75910000D01*
X142942463Y-75910000D01*
X142910327Y-75877808D01*
X142566799Y-75735162D01*
X142194833Y-75734838D01*
X141851057Y-75876883D01*
X141587808Y-76139673D01*
X141445162Y-76483201D01*
X141444838Y-76855167D01*
X141586883Y-77198943D01*
X141849673Y-77462192D01*
X142193201Y-77604838D01*
X142565167Y-77605162D01*
X142908943Y-77463117D01*
X142942118Y-77430000D01*
X147926491Y-77430000D01*
X147925162Y-77433201D01*
X147925021Y-77594756D01*
X147920000Y-77620000D01*
X147920000Y-81050000D01*
X147924977Y-81075024D01*
X147924838Y-81235167D01*
X147986531Y-81384477D01*
X147991553Y-81409722D01*
X148005728Y-81430936D01*
X148066883Y-81578943D01*
X148181022Y-81693281D01*
X148195320Y-81714680D01*
X148216532Y-81728854D01*
X148329673Y-81842192D01*
X148382192Y-81864000D01*
X142538670Y-81864000D01*
X142432485Y-81757629D01*
X141978734Y-81569215D01*
X141487421Y-81568786D01*
X141033343Y-81756408D01*
X140745248Y-82044000D01*
X139418802Y-82044000D01*
X138021597Y-80646795D01*
X138424085Y-80647146D01*
X138951698Y-80429141D01*
X139355722Y-80025821D01*
X139574648Y-79498589D01*
X139574650Y-79496085D01*
X143888854Y-79496085D01*
X144106859Y-80023698D01*
X144510179Y-80427722D01*
X145037411Y-80646648D01*
X145608289Y-80647146D01*
X146135902Y-80429141D01*
X146539926Y-80025821D01*
X146758852Y-79498589D01*
X146759350Y-78927711D01*
X146541345Y-78400098D01*
X146138025Y-77996074D01*
X145610793Y-77777148D01*
X145039915Y-77776650D01*
X144512302Y-77994655D01*
X144108278Y-78397975D01*
X143889352Y-78925207D01*
X143888854Y-79496085D01*
X139574650Y-79496085D01*
X139575146Y-78927711D01*
X139357141Y-78400098D01*
X138953821Y-77996074D01*
X138426589Y-77777148D01*
X137855711Y-77776650D01*
X137328098Y-77994655D01*
X136924074Y-78397975D01*
X136705148Y-78925207D01*
X136704795Y-79329993D01*
X133670000Y-76295198D01*
X133670000Y-75298371D01*
X134220000Y-75407773D01*
X134788285Y-75294734D01*
X135270054Y-74972827D01*
X135490000Y-74643654D01*
X135709946Y-74972827D01*
X136191715Y-75294734D01*
X136760000Y-75407773D01*
X137328285Y-75294734D01*
X137810054Y-74972827D01*
X138030000Y-74643654D01*
X138249946Y-74972827D01*
X138731715Y-75294734D01*
X139300000Y-75407773D01*
X139868285Y-75294734D01*
X140350054Y-74972827D01*
X140577702Y-74632127D01*
X140644817Y-74775038D01*
X141073076Y-75165325D01*
X141483110Y-75335156D01*
X141713000Y-75213835D01*
X141713000Y-74020680D01*
X141693000Y-74020680D01*
X141693000Y-73766680D01*
X141713000Y-73766680D01*
X141713000Y-73746680D01*
X141967000Y-73746680D01*
X141967000Y-73766680D01*
X141987000Y-73766680D01*
X141987000Y-74020680D01*
X141967000Y-74020680D01*
X141967000Y-75213835D01*
X142196890Y-75335156D01*
X142606924Y-75165325D01*
X143035183Y-74775038D01*
X143102298Y-74632127D01*
X143329946Y-74972827D01*
X143811715Y-75294734D01*
X144380000Y-75407773D01*
X144948285Y-75294734D01*
X145430054Y-74972827D01*
X145650000Y-74643654D01*
X145869946Y-74972827D01*
X146351715Y-75294734D01*
X146920000Y-75407773D01*
X147488285Y-75294734D01*
X147970054Y-74972827D01*
X148190000Y-74643654D01*
X148409946Y-74972827D01*
X148891715Y-75294734D01*
X149460000Y-75407773D01*
X150028285Y-75294734D01*
X150510054Y-74972827D01*
X150730000Y-74643654D01*
X150949946Y-74972827D01*
X151431715Y-75294734D01*
X152000000Y-75407773D01*
X152568285Y-75294734D01*
X153050054Y-74972827D01*
X153270000Y-74643654D01*
X153489946Y-74972827D01*
X153971715Y-75294734D01*
X154540000Y-75407773D01*
X155108285Y-75294734D01*
X155590054Y-74972827D01*
X155810000Y-74643654D01*
X156029946Y-74972827D01*
X156511715Y-75294734D01*
X157080000Y-75407773D01*
X157648285Y-75294734D01*
X158130054Y-74972827D01*
X158357702Y-74632127D01*
X158424817Y-74775038D01*
X158853076Y-75165325D01*
X159263110Y-75335156D01*
X159493000Y-75213835D01*
X159493000Y-74020680D01*
X159747000Y-74020680D01*
X159747000Y-75213835D01*
X159976890Y-75335156D01*
X160386924Y-75165325D01*
X160815183Y-74775038D01*
X161061486Y-74250572D01*
X160940819Y-74020680D01*
X159747000Y-74020680D01*
X159493000Y-74020680D01*
X159473000Y-74020680D01*
X159473000Y-73766680D01*
X159493000Y-73766680D01*
X159493000Y-73746680D01*
X159747000Y-73746680D01*
X159747000Y-73766680D01*
X160940819Y-73766680D01*
X161061486Y-73536788D01*
X160885389Y-73161815D01*
X162456630Y-73161815D01*
X162780980Y-73946800D01*
X163381041Y-74547909D01*
X164165459Y-74873628D01*
X165014815Y-74874370D01*
X165799800Y-74550020D01*
X166400909Y-73949959D01*
X166726628Y-73165541D01*
X166727370Y-72316185D01*
X166403020Y-71531200D01*
X165802959Y-70930091D01*
X165018541Y-70604372D01*
X164169185Y-70603630D01*
X163384200Y-70927980D01*
X162783091Y-71528041D01*
X162457372Y-72312459D01*
X162456630Y-73161815D01*
X160885389Y-73161815D01*
X160815183Y-73012322D01*
X160386924Y-72622035D01*
X160386899Y-72622025D01*
X160670054Y-72432827D01*
X160991961Y-71951058D01*
X161105000Y-71382773D01*
X161105000Y-71324587D01*
X160991961Y-70756302D01*
X160670054Y-70274533D01*
X160188285Y-69952626D01*
X159620000Y-69839587D01*
X159051715Y-69952626D01*
X158569946Y-70274533D01*
X158350000Y-70603706D01*
X158130054Y-70274533D01*
X157648285Y-69952626D01*
X157080000Y-69839587D01*
X156511715Y-69952626D01*
X156029946Y-70274533D01*
X155810000Y-70603706D01*
X155590054Y-70274533D01*
X155108285Y-69952626D01*
X154540000Y-69839587D01*
X153971715Y-69952626D01*
X153489946Y-70274533D01*
X153262298Y-70615233D01*
X153195183Y-70472322D01*
X152766924Y-70082035D01*
X152356890Y-69912204D01*
X152127000Y-70033525D01*
X152127000Y-71226680D01*
X152147000Y-71226680D01*
X152147000Y-71480680D01*
X152127000Y-71480680D01*
X152127000Y-71500680D01*
X151873000Y-71500680D01*
X151873000Y-71480680D01*
X151853000Y-71480680D01*
X151853000Y-71226680D01*
X151873000Y-71226680D01*
X151873000Y-70033525D01*
X151643110Y-69912204D01*
X151233076Y-70082035D01*
X150804817Y-70472322D01*
X150737702Y-70615233D01*
X150510054Y-70274533D01*
X150028285Y-69952626D01*
X149460000Y-69839587D01*
X148891715Y-69952626D01*
X148409946Y-70274533D01*
X148182298Y-70615233D01*
X148115183Y-70472322D01*
X147686924Y-70082035D01*
X147276890Y-69912204D01*
X147047000Y-70033525D01*
X147047000Y-71226680D01*
X147067000Y-71226680D01*
X147067000Y-71480680D01*
X147047000Y-71480680D01*
X147047000Y-71500680D01*
X146793000Y-71500680D01*
X146793000Y-71480680D01*
X146773000Y-71480680D01*
X146773000Y-71226680D01*
X146793000Y-71226680D01*
X146793000Y-70033525D01*
X146563110Y-69912204D01*
X146153076Y-70082035D01*
X145724817Y-70472322D01*
X145657702Y-70615233D01*
X145430054Y-70274533D01*
X144948285Y-69952626D01*
X144380000Y-69839587D01*
X143811715Y-69952626D01*
X143329946Y-70274533D01*
X143110000Y-70603706D01*
X142890054Y-70274533D01*
X142408285Y-69952626D01*
X141840000Y-69839587D01*
X141271715Y-69952626D01*
X140789946Y-70274533D01*
X140570000Y-70603706D01*
X140350054Y-70274533D01*
X139868285Y-69952626D01*
X139300000Y-69839587D01*
X138731715Y-69952626D01*
X138249946Y-70274533D01*
X138030000Y-70603706D01*
X137810054Y-70274533D01*
X137328285Y-69952626D01*
X136760000Y-69839587D01*
X136191715Y-69952626D01*
X135709946Y-70274533D01*
X135482298Y-70615233D01*
X135415183Y-70472322D01*
X134986924Y-70082035D01*
X134576890Y-69912204D01*
X134347000Y-70033525D01*
X134347000Y-71226680D01*
X134367000Y-71226680D01*
X134367000Y-71480680D01*
X134347000Y-71480680D01*
X134347000Y-71500680D01*
X134093000Y-71500680D01*
X134093000Y-71480680D01*
X134073000Y-71480680D01*
X134073000Y-71226680D01*
X134093000Y-71226680D01*
X134093000Y-70033525D01*
X133863110Y-69912204D01*
X133453076Y-70082035D01*
X133024817Y-70472322D01*
X132957702Y-70615233D01*
X132730054Y-70274533D01*
X132248285Y-69952626D01*
X131680000Y-69839587D01*
X131111715Y-69952626D01*
X130629946Y-70274533D01*
X130410000Y-70603706D01*
X130190054Y-70274533D01*
X129708285Y-69952626D01*
X129140000Y-69839587D01*
X128571715Y-69952626D01*
X128089946Y-70274533D01*
X127862298Y-70615233D01*
X127795183Y-70472322D01*
X127366924Y-70082035D01*
X126956890Y-69912204D01*
X126727000Y-70033525D01*
X126727000Y-71226680D01*
X126747000Y-71226680D01*
X126747000Y-71480680D01*
X126727000Y-71480680D01*
X126727000Y-71500680D01*
X126473000Y-71500680D01*
X126473000Y-71480680D01*
X126453000Y-71480680D01*
X126453000Y-71226680D01*
X126473000Y-71226680D01*
X126473000Y-70033525D01*
X126243110Y-69912204D01*
X125833076Y-70082035D01*
X125404817Y-70472322D01*
X125337702Y-70615233D01*
X125110054Y-70274533D01*
X124628285Y-69952626D01*
X124060000Y-69839587D01*
X123491715Y-69952626D01*
X123009946Y-70274533D01*
X122790000Y-70603706D01*
X122570054Y-70274533D01*
X122088285Y-69952626D01*
X121520000Y-69839587D01*
X120951715Y-69952626D01*
X120469946Y-70274533D01*
X120250000Y-70603706D01*
X120030054Y-70274533D01*
X119548285Y-69952626D01*
X118980000Y-69839587D01*
X118411715Y-69952626D01*
X117929946Y-70274533D01*
X117702298Y-70615233D01*
X117635183Y-70472322D01*
X117206924Y-70082035D01*
X116796890Y-69912204D01*
X116567000Y-70033525D01*
X116567000Y-71226680D01*
X116587000Y-71226680D01*
X116587000Y-71480680D01*
X116567000Y-71480680D01*
X116567000Y-71500680D01*
X116313000Y-71500680D01*
X116313000Y-71480680D01*
X116293000Y-71480680D01*
X116293000Y-71226680D01*
X116313000Y-71226680D01*
X116313000Y-70033525D01*
X116083110Y-69912204D01*
X115673076Y-70082035D01*
X115244817Y-70472322D01*
X115177702Y-70615233D01*
X114950054Y-70274533D01*
X114468285Y-69952626D01*
X113900000Y-69839587D01*
X113331715Y-69952626D01*
X112849946Y-70274533D01*
X112630000Y-70603706D01*
X112410054Y-70274533D01*
X111928285Y-69952626D01*
X111360000Y-69839587D01*
X110791715Y-69952626D01*
X110309946Y-70274533D01*
X109988039Y-70756302D01*
X109875000Y-71324587D01*
X109875000Y-71382773D01*
X109880453Y-71410187D01*
X109065320Y-72225320D01*
X108861553Y-72530277D01*
X108861553Y-72530278D01*
X108790000Y-72890000D01*
X108790000Y-74590640D01*
X105427320Y-77953320D01*
X105223553Y-78258277D01*
X105223553Y-78258278D01*
X105152000Y-78618000D01*
X105152000Y-80138639D01*
X103945320Y-81345320D01*
X103741553Y-81650277D01*
X103741553Y-81650278D01*
X103710000Y-81808906D01*
X103710000Y-73161815D01*
X104290630Y-73161815D01*
X104614980Y-73946800D01*
X105215041Y-74547909D01*
X105999459Y-74873628D01*
X106848815Y-74874370D01*
X107633800Y-74550020D01*
X108234909Y-73949959D01*
X108560628Y-73165541D01*
X108561370Y-72316185D01*
X108237020Y-71531200D01*
X107636959Y-70930091D01*
X106852541Y-70604372D01*
X106003185Y-70603630D01*
X105218200Y-70927980D01*
X104617091Y-71528041D01*
X104291372Y-72312459D01*
X104290630Y-73161815D01*
X103710000Y-73161815D01*
X103710000Y-68240815D01*
X104290630Y-68240815D01*
X104614980Y-69025800D01*
X105215041Y-69626909D01*
X105999459Y-69952628D01*
X106848815Y-69953370D01*
X107633800Y-69629020D01*
X108234909Y-69028959D01*
X108560628Y-68244541D01*
X108561370Y-67395185D01*
X108237020Y-66610200D01*
X107751189Y-66123520D01*
X110603600Y-66123520D01*
X110603600Y-66397840D01*
X110652317Y-66642757D01*
X110791052Y-66850388D01*
X110998683Y-66989123D01*
X111081120Y-67005521D01*
X111081120Y-67749120D01*
X111129837Y-67994037D01*
X111268572Y-68201668D01*
X111476203Y-68340403D01*
X111721120Y-68389120D01*
X112015760Y-68389120D01*
X112260677Y-68340403D01*
X112350515Y-68280375D01*
X112439423Y-68340187D01*
X112446721Y-68341663D01*
X112452995Y-68345678D01*
X112568839Y-68366353D01*
X112684185Y-68389675D01*
X112691496Y-68388245D01*
X112698826Y-68389553D01*
X112984558Y-68383915D01*
X113100976Y-68358361D01*
X113179985Y-68342511D01*
X113298662Y-68365205D01*
X113418892Y-68389120D01*
X113702320Y-68389120D01*
X113947237Y-68340403D01*
X114006704Y-68300669D01*
X114040948Y-68311079D01*
X114088190Y-68338047D01*
X114172068Y-68366062D01*
X114219984Y-68372132D01*
X114265039Y-68389541D01*
X114357201Y-68405587D01*
X114412821Y-68404254D01*
X114467395Y-68415072D01*
X114573181Y-68415003D01*
X114629758Y-68403711D01*
X114687441Y-68404645D01*
X114791614Y-68385672D01*
X114846118Y-68364123D01*
X114903919Y-68354427D01*
X115002794Y-68316922D01*
X115029163Y-68300430D01*
X115059202Y-68292363D01*
X115060259Y-68291841D01*
X115089455Y-68269412D01*
X115123697Y-68255879D01*
X115185019Y-68216338D01*
X115191444Y-68210119D01*
X115236451Y-68239572D01*
X115290250Y-68261255D01*
X115338279Y-68293784D01*
X115440540Y-68336895D01*
X115496048Y-68348298D01*
X115547812Y-68371355D01*
X115659012Y-68396536D01*
X115688186Y-68397305D01*
X115715807Y-68406730D01*
X115721104Y-68407436D01*
X115748605Y-68405678D01*
X115775349Y-68412328D01*
X115871089Y-68416867D01*
X115917002Y-68409976D01*
X115963197Y-68414594D01*
X116060810Y-68405124D01*
X116103927Y-68392113D01*
X116148929Y-68390308D01*
X116238052Y-68368834D01*
X116280067Y-68369909D01*
X116339759Y-68383729D01*
X116527181Y-68389571D01*
X116537178Y-68387904D01*
X116547120Y-68389882D01*
X116659995Y-68367430D01*
X116712214Y-68358724D01*
X116755786Y-68366513D01*
X116872240Y-68389677D01*
X116878457Y-68388440D01*
X116884699Y-68389556D01*
X117029479Y-68386737D01*
X117174254Y-68383919D01*
X117288240Y-68358930D01*
X117402831Y-68336918D01*
X117409904Y-68332259D01*
X117418177Y-68330445D01*
X117513916Y-68263743D01*
X117593567Y-68211275D01*
X117630094Y-68242673D01*
X117715762Y-68291008D01*
X117776729Y-68311032D01*
X117832734Y-68342366D01*
X117927068Y-68372974D01*
X117971669Y-68378234D01*
X118013526Y-68394506D01*
X118060232Y-68402736D01*
X118100326Y-68401857D01*
X118139213Y-68411641D01*
X118241006Y-68416750D01*
X118294991Y-68408801D01*
X118349398Y-68412989D01*
X118448447Y-68401094D01*
X118501404Y-68383787D01*
X118556853Y-68378423D01*
X118650135Y-68350304D01*
X118702119Y-68322634D01*
X118758721Y-68306375D01*
X118843213Y-68262808D01*
X118887539Y-68227516D01*
X118906729Y-68243941D01*
X118992675Y-68292191D01*
X119052328Y-68311642D01*
X119107015Y-68342409D01*
X119200643Y-68373033D01*
X119254425Y-68379505D01*
X119305419Y-68397776D01*
X119379998Y-68408872D01*
X119427621Y-68406553D01*
X119474387Y-68415840D01*
X119571295Y-68415809D01*
X119621808Y-68405745D01*
X119673277Y-68407598D01*
X119767773Y-68392314D01*
X119816717Y-68374075D01*
X119868531Y-68367495D01*
X119957020Y-68337909D01*
X120006085Y-68309880D01*
X120019586Y-68305673D01*
X120071563Y-68340403D01*
X120316480Y-68389120D01*
X120600960Y-68389120D01*
X120722960Y-68364853D01*
X120824387Y-68344706D01*
X120925801Y-68364813D01*
X121048000Y-68389120D01*
X121332480Y-68389120D01*
X121505200Y-68354764D01*
X121677920Y-68389120D01*
X122428559Y-68389120D01*
X122435157Y-68427028D01*
X122442136Y-68445091D01*
X122458529Y-68470949D01*
X122464939Y-68492809D01*
X122474688Y-68504917D01*
X122484353Y-68533541D01*
X122534801Y-68591255D01*
X122575844Y-68655994D01*
X122616212Y-68684393D01*
X122648696Y-68721555D01*
X122662100Y-68731875D01*
X122718066Y-68759588D01*
X122727878Y-68769075D01*
X122747717Y-68776904D01*
X122780084Y-68799674D01*
X122811733Y-68806763D01*
X122876579Y-68840101D01*
X122898485Y-68846365D01*
X122930386Y-68848992D01*
X122960160Y-68860742D01*
X122992643Y-68866637D01*
X123003056Y-68866462D01*
X123012865Y-68869974D01*
X123023250Y-68871517D01*
X123044362Y-68870485D01*
X123064683Y-68876299D01*
X123103142Y-68879472D01*
X123119268Y-68877625D01*
X123135074Y-68881304D01*
X123182867Y-68882850D01*
X123195843Y-68880703D01*
X123208766Y-68883164D01*
X123257928Y-68882764D01*
X123269682Y-68880326D01*
X123281546Y-68882135D01*
X123318498Y-68880469D01*
X123336944Y-68875928D01*
X123355860Y-68877687D01*
X123399677Y-68873131D01*
X123438496Y-68861125D01*
X123479110Y-68859776D01*
X123513681Y-68851698D01*
X123558210Y-68831497D01*
X123606271Y-68822501D01*
X123638252Y-68809676D01*
X123658112Y-68796728D01*
X123681034Y-68790675D01*
X123686154Y-68788173D01*
X123718811Y-68763301D01*
X123756849Y-68747868D01*
X123815266Y-68709446D01*
X123858493Y-68666843D01*
X123909448Y-68633865D01*
X123963712Y-68581168D01*
X123995620Y-68534896D01*
X124036774Y-68496617D01*
X124081172Y-68435109D01*
X124095397Y-68403999D01*
X124117841Y-68378188D01*
X124118108Y-68377721D01*
X124126803Y-68351747D01*
X124142966Y-68329631D01*
X124151361Y-68311554D01*
X124154307Y-68299433D01*
X124160782Y-68289819D01*
X124164846Y-68292768D01*
X124228041Y-68321854D01*
X124271081Y-68332158D01*
X124310117Y-68353000D01*
X124323062Y-68356921D01*
X124358127Y-68360358D01*
X124390825Y-68373470D01*
X124440778Y-68382819D01*
X124473800Y-68382445D01*
X124505546Y-68391546D01*
X124563983Y-68396399D01*
X124591261Y-68393290D01*
X124618203Y-68398594D01*
X124676467Y-68398480D01*
X124711265Y-68391487D01*
X124746631Y-68394484D01*
X124796066Y-68388933D01*
X124822462Y-68380531D01*
X124850164Y-68380502D01*
X124881915Y-68374152D01*
X124939821Y-68350095D01*
X125001317Y-68337863D01*
X125054004Y-68302659D01*
X125112521Y-68278348D01*
X125149975Y-68240815D01*
X162456630Y-68240815D01*
X162780980Y-69025800D01*
X163381041Y-69626909D01*
X164165459Y-69952628D01*
X165014815Y-69953370D01*
X165799800Y-69629020D01*
X166400909Y-69028959D01*
X166726628Y-68244541D01*
X166727370Y-67395185D01*
X166403020Y-66610200D01*
X165802959Y-66009091D01*
X165018541Y-65683372D01*
X164169185Y-65682630D01*
X163384200Y-66006980D01*
X162783091Y-66607041D01*
X162457372Y-67391459D01*
X162456630Y-68240815D01*
X125149975Y-68240815D01*
X125156812Y-68233964D01*
X125208948Y-68199128D01*
X125244152Y-68146442D01*
X125288912Y-68101588D01*
X125312847Y-68043633D01*
X125347683Y-67991497D01*
X125360045Y-67929349D01*
X125384233Y-67870781D01*
X125384167Y-67808077D01*
X125396400Y-67746580D01*
X125396400Y-67505280D01*
X125347683Y-67260363D01*
X125237469Y-67095417D01*
X125236164Y-66772060D01*
X125233414Y-66090458D01*
X125208808Y-65969313D01*
X125184702Y-65848123D01*
X125183971Y-65847029D01*
X125183709Y-65845739D01*
X125114650Y-65743283D01*
X125045967Y-65640492D01*
X125044872Y-65639760D01*
X125044137Y-65638670D01*
X124941192Y-65570484D01*
X124838336Y-65501757D01*
X124837044Y-65501500D01*
X124835948Y-65500774D01*
X124714657Y-65477156D01*
X124593419Y-65453040D01*
X124308841Y-65453040D01*
X124307612Y-65453284D01*
X124306384Y-65453045D01*
X124185289Y-65477616D01*
X124063924Y-65501757D01*
X124062882Y-65502453D01*
X124061656Y-65502702D01*
X123959180Y-65571745D01*
X123856293Y-65640492D01*
X123855597Y-65641534D01*
X123854559Y-65642233D01*
X123786273Y-65745284D01*
X123717558Y-65848123D01*
X123717314Y-65849351D01*
X123716622Y-65850395D01*
X123696719Y-65952500D01*
X123689946Y-65954610D01*
X123599397Y-65972826D01*
X123576876Y-65987945D01*
X123573444Y-65988781D01*
X123568415Y-65992460D01*
X123540281Y-66001223D01*
X123524962Y-65989496D01*
X123517838Y-65987596D01*
X123515554Y-65985885D01*
X123446728Y-65968293D01*
X123433058Y-65891106D01*
X123429369Y-65885325D01*
X123428032Y-65878603D01*
X123362349Y-65780301D01*
X123298725Y-65680600D01*
X123293105Y-65676671D01*
X123289297Y-65670972D01*
X123190982Y-65605280D01*
X123094061Y-65537525D01*
X123087367Y-65536046D01*
X123081666Y-65532237D01*
X122965680Y-65509166D01*
X122850224Y-65483662D01*
X122843473Y-65484858D01*
X122836749Y-65483520D01*
X121677920Y-65483520D01*
X121433003Y-65532237D01*
X121225372Y-65670972D01*
X121086637Y-65878603D01*
X121081277Y-65905550D01*
X121053802Y-65898536D01*
X121016833Y-65896552D01*
X121001744Y-65898720D01*
X120986809Y-65895646D01*
X120935433Y-65895303D01*
X120932396Y-65895886D01*
X120929365Y-65895292D01*
X120928652Y-65895294D01*
X120916254Y-65897796D01*
X120903755Y-65895848D01*
X120826567Y-65899070D01*
X120788314Y-65908353D01*
X120748974Y-65907067D01*
X120686353Y-65917409D01*
X120637744Y-65935707D01*
X120634795Y-65935570D01*
X120558533Y-65920400D01*
X120316480Y-65920400D01*
X120071563Y-65969117D01*
X120022498Y-66001901D01*
X120006710Y-65993946D01*
X119944290Y-65976643D01*
X119886285Y-65947813D01*
X119788797Y-65921365D01*
X119730476Y-65917360D01*
X119674288Y-65901242D01*
X119566497Y-65892274D01*
X119537323Y-65895595D01*
X119508478Y-65890089D01*
X119496339Y-65890183D01*
X119464994Y-65896671D01*
X119433112Y-65893806D01*
X119328945Y-65904967D01*
X119270953Y-65923103D01*
X119210495Y-65929142D01*
X119114925Y-65958278D01*
X119058907Y-65988320D01*
X118998132Y-66006960D01*
X118912185Y-66053240D01*
X118879056Y-66080599D01*
X118828253Y-66040524D01*
X118743119Y-65997113D01*
X118682373Y-65979961D01*
X118626134Y-65951303D01*
X118530349Y-65924285D01*
X118471736Y-65919670D01*
X118415371Y-65902954D01*
X118309692Y-65893209D01*
X118265652Y-65897823D01*
X118221876Y-65891165D01*
X118149488Y-65894454D01*
X118104231Y-65905613D01*
X118057618Y-65905321D01*
X117955706Y-65924929D01*
X117898092Y-65948371D01*
X117836980Y-65959963D01*
X117818373Y-65967477D01*
X117808037Y-65960571D01*
X117752892Y-65949602D01*
X117752555Y-65949380D01*
X117751759Y-65949227D01*
X117700405Y-65926752D01*
X117668773Y-65919805D01*
X117641433Y-65919263D01*
X117615545Y-65910451D01*
X117595597Y-65907808D01*
X117551106Y-65910687D01*
X117507323Y-65902278D01*
X117461485Y-65902580D01*
X117429500Y-65909161D01*
X117396975Y-65906267D01*
X117343405Y-65912053D01*
X117318173Y-65919967D01*
X117291726Y-65919780D01*
X117237663Y-65930136D01*
X117229367Y-65933503D01*
X117178512Y-65933139D01*
X117114460Y-65920399D01*
X116993347Y-65920400D01*
X116930885Y-65920400D01*
X116903691Y-65886680D01*
X116861480Y-65851430D01*
X116828053Y-65807762D01*
X116753823Y-65742511D01*
X116706370Y-65715040D01*
X116666136Y-65677786D01*
X116580316Y-65625097D01*
X116535965Y-65608693D01*
X116496942Y-65581986D01*
X116428083Y-65552562D01*
X116383879Y-65543257D01*
X116343405Y-65523203D01*
X116234397Y-65493775D01*
X116184803Y-65490431D01*
X116137403Y-65475475D01*
X116023297Y-65462954D01*
X115975924Y-65467088D01*
X115928960Y-65459605D01*
X115813505Y-65464033D01*
X115766858Y-65475186D01*
X115718897Y-65474749D01*
X115605840Y-65496169D01*
X115558667Y-65515207D01*
X115508366Y-65522754D01*
X115401457Y-65561207D01*
X115366141Y-65582454D01*
X115326495Y-65593712D01*
X115278188Y-65618434D01*
X115244413Y-65645158D01*
X115204916Y-65662336D01*
X115114463Y-65725098D01*
X115074527Y-65766461D01*
X115026720Y-65798410D01*
X114948973Y-65876170D01*
X114917824Y-65922796D01*
X114886849Y-65952446D01*
X114876029Y-65947099D01*
X114778580Y-65920904D01*
X114720746Y-65917067D01*
X114665023Y-65901128D01*
X114557136Y-65892234D01*
X114530255Y-65895314D01*
X114503711Y-65890071D01*
X114499156Y-65890077D01*
X114470464Y-65895823D01*
X114441358Y-65892768D01*
X114336222Y-65902442D01*
X114277483Y-65919849D01*
X114216445Y-65925122D01*
X114120220Y-65953055D01*
X114062100Y-65983229D01*
X113999352Y-66001972D01*
X113912047Y-66048160D01*
X113887776Y-66067906D01*
X113871642Y-66056450D01*
X113804170Y-66026232D01*
X113742452Y-65985532D01*
X113664136Y-65953647D01*
X113593969Y-65940131D01*
X113579665Y-65934747D01*
X113564076Y-65855065D01*
X113563508Y-65854209D01*
X113563308Y-65853203D01*
X113494526Y-65750264D01*
X113425995Y-65646998D01*
X113425143Y-65646425D01*
X113424573Y-65645572D01*
X113321553Y-65576736D01*
X113218801Y-65507611D01*
X113217796Y-65507408D01*
X113216942Y-65506837D01*
X113095257Y-65482632D01*
X112974039Y-65458124D01*
X112973034Y-65458321D01*
X112972025Y-65458120D01*
X112691400Y-65458120D01*
X112569905Y-65482287D01*
X112534048Y-65489302D01*
X112532056Y-65488781D01*
X112519627Y-65488040D01*
X112515742Y-65488575D01*
X112512928Y-65487928D01*
X112505498Y-65489178D01*
X112496024Y-65487070D01*
X112465191Y-65486372D01*
X112462270Y-65486885D01*
X112459371Y-65486267D01*
X112411884Y-65485624D01*
X112410504Y-65485879D01*
X112409128Y-65485592D01*
X112346742Y-65485016D01*
X112345895Y-65485176D01*
X112345053Y-65485003D01*
X112269520Y-65484505D01*
X112268908Y-65484623D01*
X112268297Y-65484498D01*
X112181368Y-65484091D01*
X112180884Y-65484185D01*
X112180399Y-65484087D01*
X112083830Y-65483781D01*
X112083403Y-65483864D01*
X112082978Y-65483779D01*
X111978518Y-65483587D01*
X111978121Y-65483665D01*
X111977724Y-65483586D01*
X111867128Y-65483520D01*
X111866937Y-65483558D01*
X111866746Y-65483520D01*
X111243600Y-65483520D01*
X110998683Y-65532237D01*
X110791052Y-65670972D01*
X110652317Y-65878603D01*
X110603600Y-66123520D01*
X107751189Y-66123520D01*
X107636959Y-66009091D01*
X106852541Y-65683372D01*
X106003185Y-65682630D01*
X105218200Y-66006980D01*
X104617091Y-66607041D01*
X104291372Y-67391459D01*
X104290630Y-68240815D01*
X103710000Y-68240815D01*
X103710000Y-64251470D01*
X103758206Y-64009122D01*
X103854905Y-63864401D01*
X103999626Y-63767702D01*
X104239441Y-63720000D01*
X166770069Y-63720000D01*
X167010713Y-63767867D01*
X167010713Y-63767867D01*
G37*
X167010713Y-63767867D02*
X167155434Y-63864566D01*
X167252133Y-64009287D01*
X167299981Y-64249834D01*
X167290025Y-100308403D01*
X167241794Y-100550878D01*
X167145095Y-100695599D01*
X167000374Y-100792298D01*
X166760559Y-100840000D01*
X104239931Y-100840000D01*
X103999287Y-100792133D01*
X103854566Y-100695434D01*
X103757867Y-100550713D01*
X103710000Y-100310069D01*
X103710000Y-99230355D01*
X105420373Y-99230355D01*
X105686932Y-99809726D01*
X106154916Y-100242987D01*
X106629646Y-100439619D01*
X106883000Y-100320265D01*
X106883000Y-98977000D01*
X107137000Y-98977000D01*
X107137000Y-100320265D01*
X107390354Y-100439619D01*
X107865084Y-100242987D01*
X108333068Y-99809726D01*
X108599627Y-99230355D01*
X108480807Y-98977000D01*
X107137000Y-98977000D01*
X106883000Y-98977000D01*
X105539193Y-98977000D01*
X105420373Y-99230355D01*
X103710000Y-99230355D01*
X103710000Y-90401094D01*
X103713303Y-90417699D01*
X103741553Y-90559723D01*
X103945320Y-90864680D01*
X105489247Y-92408608D01*
X105414079Y-92518620D01*
X105363070Y-92770510D01*
X105363070Y-94769490D01*
X105407348Y-95004807D01*
X105546420Y-95220931D01*
X105712473Y-95334390D01*
X105499928Y-95652486D01*
X105375510Y-96277978D01*
X105375510Y-96342022D01*
X105499928Y-96967514D01*
X105854241Y-97497781D01*
X106003300Y-97597379D01*
X105686932Y-97890274D01*
X105420373Y-98469645D01*
X105539193Y-98723000D01*
X106883000Y-98723000D01*
X106883000Y-98703000D01*
X107137000Y-98703000D01*
X107137000Y-98723000D01*
X108480807Y-98723000D01*
X108497429Y-98687556D01*
X116908120Y-98687556D01*
X117151455Y-99203976D01*
X117573893Y-99587966D01*
X117974444Y-99753880D01*
X118200898Y-99632268D01*
X118200898Y-98461102D01*
X118454898Y-98461102D01*
X118454898Y-99632268D01*
X118681352Y-99753880D01*
X119197772Y-99510545D01*
X119581762Y-99088107D01*
X119747676Y-98687556D01*
X124092324Y-98687556D01*
X124335659Y-99203976D01*
X124758097Y-99587966D01*
X125158648Y-99753880D01*
X125385102Y-99632268D01*
X125385102Y-98461102D01*
X125639102Y-98461102D01*
X125639102Y-99632268D01*
X125865556Y-99753880D01*
X126381976Y-99510545D01*
X126765966Y-99088107D01*
X126931880Y-98687556D01*
X126894682Y-98618289D01*
X143308650Y-98618289D01*
X143526655Y-99145902D01*
X143929975Y-99549926D01*
X144457207Y-99768852D01*
X145028085Y-99769350D01*
X145555698Y-99551345D01*
X145959722Y-99148025D01*
X146178648Y-98620793D01*
X146179146Y-98049915D01*
X145961141Y-97522302D01*
X145557821Y-97118278D01*
X145030589Y-96899352D01*
X144459711Y-96898854D01*
X143932098Y-97116859D01*
X143528074Y-97520179D01*
X143309148Y-98047411D01*
X143308650Y-98618289D01*
X126894682Y-98618289D01*
X126810268Y-98461102D01*
X125639102Y-98461102D01*
X125385102Y-98461102D01*
X124213936Y-98461102D01*
X124092324Y-98687556D01*
X119747676Y-98687556D01*
X119626064Y-98461102D01*
X118454898Y-98461102D01*
X118200898Y-98461102D01*
X117029732Y-98461102D01*
X116908120Y-98687556D01*
X108497429Y-98687556D01*
X108599627Y-98469645D01*
X108333068Y-97890274D01*
X108016700Y-97597379D01*
X108165759Y-97497781D01*
X108331321Y-97250000D01*
X117374087Y-97250000D01*
X117074034Y-97580097D01*
X116908120Y-97980648D01*
X117029732Y-98207102D01*
X118200898Y-98207102D01*
X118200898Y-97250000D01*
X118454898Y-97250000D01*
X118454898Y-98207102D01*
X119626064Y-98207102D01*
X119747676Y-97980648D01*
X119504341Y-97464228D01*
X119268663Y-97250000D01*
X124558291Y-97250000D01*
X124258238Y-97580097D01*
X124092324Y-97980648D01*
X124213936Y-98207102D01*
X125385102Y-98207102D01*
X125385102Y-97250000D01*
X125639102Y-97250000D01*
X125639102Y-98207102D01*
X126810268Y-98207102D01*
X126931880Y-97980648D01*
X126688545Y-97464228D01*
X126452867Y-97250000D01*
X133210000Y-97250000D01*
X133510041Y-97190318D01*
X133569723Y-97178447D01*
X133874680Y-96974680D01*
X137309360Y-93540000D01*
X145280000Y-93540000D01*
X145280000Y-95320000D01*
X145336190Y-95602486D01*
X145351553Y-95679723D01*
X145555320Y-95984680D01*
X146655320Y-97084680D01*
X146960277Y-97288447D01*
X147320000Y-97360000D01*
X150872737Y-97360000D01*
X150712278Y-97520179D01*
X150493352Y-98047411D01*
X150492854Y-98618289D01*
X150710859Y-99145902D01*
X151114179Y-99549926D01*
X151641411Y-99768852D01*
X152212289Y-99769350D01*
X152739902Y-99551345D01*
X153143926Y-99148025D01*
X153362852Y-98620793D01*
X153363350Y-98049915D01*
X153145345Y-97522302D01*
X152983326Y-97360000D01*
X162032957Y-97360000D01*
X161904079Y-97548620D01*
X161853070Y-97800510D01*
X161853070Y-99799490D01*
X161897348Y-100034807D01*
X162036420Y-100250931D01*
X162248620Y-100395921D01*
X162500510Y-100446930D01*
X164499490Y-100446930D01*
X164734807Y-100402652D01*
X164950931Y-100263580D01*
X165095921Y-100051380D01*
X165146930Y-99799490D01*
X165146930Y-97800510D01*
X165102652Y-97565193D01*
X164963580Y-97349069D01*
X164797527Y-97235610D01*
X165010072Y-96917514D01*
X165134490Y-96292022D01*
X165134490Y-96227978D01*
X165010072Y-95602486D01*
X164655759Y-95072219D01*
X164506700Y-94972621D01*
X164823068Y-94679726D01*
X165089627Y-94100355D01*
X164970807Y-93847000D01*
X163627000Y-93847000D01*
X163627000Y-93867000D01*
X163373000Y-93867000D01*
X163373000Y-93847000D01*
X162029193Y-93847000D01*
X161910373Y-94100355D01*
X162176932Y-94679726D01*
X162493300Y-94972621D01*
X162344241Y-95072219D01*
X162071771Y-95480000D01*
X156552950Y-95480000D01*
X156662680Y-95406680D01*
X158729715Y-93339645D01*
X161910373Y-93339645D01*
X162029193Y-93593000D01*
X163373000Y-93593000D01*
X163373000Y-92249735D01*
X163627000Y-92249735D01*
X163627000Y-93593000D01*
X164970807Y-93593000D01*
X165089627Y-93339645D01*
X164823068Y-92760274D01*
X164355084Y-92327013D01*
X163880354Y-92130381D01*
X163627000Y-92249735D01*
X163373000Y-92249735D01*
X163119646Y-92130381D01*
X162644916Y-92327013D01*
X162176932Y-92760274D01*
X161910373Y-93339645D01*
X158729715Y-93339645D01*
X161690125Y-90379235D01*
X161773910Y-90509441D01*
X161986110Y-90654431D01*
X162238000Y-90705440D01*
X163738000Y-90705440D01*
X163973317Y-90661162D01*
X164189441Y-90522090D01*
X164334431Y-90309890D01*
X164341191Y-90276510D01*
X164399673Y-90417699D01*
X164578302Y-90596327D01*
X164811691Y-90693000D01*
X165402250Y-90693000D01*
X165561000Y-90534250D01*
X165561000Y-89535000D01*
X165815000Y-89535000D01*
X165815000Y-90534250D01*
X165973750Y-90693000D01*
X166564309Y-90693000D01*
X166797698Y-90596327D01*
X166976327Y-90417699D01*
X167073000Y-90184310D01*
X167073000Y-89693750D01*
X166914250Y-89535000D01*
X165815000Y-89535000D01*
X165561000Y-89535000D01*
X165541000Y-89535000D01*
X165541000Y-89281000D01*
X165561000Y-89281000D01*
X165561000Y-88281750D01*
X165815000Y-88281750D01*
X165815000Y-89281000D01*
X166914250Y-89281000D01*
X167073000Y-89122250D01*
X167073000Y-88631690D01*
X166976327Y-88398301D01*
X166797698Y-88219673D01*
X166564309Y-88123000D01*
X165973750Y-88123000D01*
X165815000Y-88281750D01*
X165561000Y-88281750D01*
X165402250Y-88123000D01*
X164811691Y-88123000D01*
X164578302Y-88219673D01*
X164399673Y-88398301D01*
X164343346Y-88534287D01*
X164341162Y-88522683D01*
X164202090Y-88306559D01*
X163989890Y-88161569D01*
X163738000Y-88110560D01*
X162238000Y-88110560D01*
X162002683Y-88154838D01*
X161786559Y-88293910D01*
X161667608Y-88468000D01*
X161332000Y-88468000D01*
X161031959Y-88527682D01*
X160972277Y-88539553D01*
X160667320Y-88743320D01*
X156254996Y-93155644D01*
X156255162Y-92964833D01*
X156113117Y-92621057D01*
X155850327Y-92357808D01*
X155506799Y-92215162D01*
X155134833Y-92214838D01*
X154791057Y-92356883D01*
X154697777Y-92450000D01*
X152539368Y-92450000D01*
X152739902Y-92367141D01*
X153143926Y-91963821D01*
X153362852Y-91436589D01*
X153363350Y-90865711D01*
X153145345Y-90338098D01*
X152742025Y-89934074D01*
X152214793Y-89715148D01*
X151643915Y-89714650D01*
X151116302Y-89932655D01*
X150712278Y-90335975D01*
X150493352Y-90863207D01*
X150492854Y-91434085D01*
X150710859Y-91961698D01*
X151114179Y-92365722D01*
X151317143Y-92450000D01*
X149868000Y-92450000D01*
X149577160Y-92507852D01*
X149330599Y-92672599D01*
X148496059Y-93507139D01*
X148091421Y-93506786D01*
X147637343Y-93694408D01*
X147289629Y-94041515D01*
X147160000Y-94353696D01*
X147160000Y-93929361D01*
X147214680Y-93874681D01*
X147228855Y-93853466D01*
X147342192Y-93740327D01*
X147404148Y-93591122D01*
X147418446Y-93569723D01*
X147423423Y-93544702D01*
X147484838Y-93396799D01*
X147484979Y-93235239D01*
X147489999Y-93210000D01*
X147485023Y-93184981D01*
X147485162Y-93024833D01*
X147423467Y-92875519D01*
X147418446Y-92850277D01*
X147404272Y-92829065D01*
X147343117Y-92681057D01*
X147228978Y-92566719D01*
X147214680Y-92545320D01*
X147193468Y-92531146D01*
X147080327Y-92417808D01*
X146931122Y-92355852D01*
X146909723Y-92341554D01*
X146884702Y-92336577D01*
X146736799Y-92275162D01*
X146575239Y-92275021D01*
X146550000Y-92270001D01*
X146524981Y-92274977D01*
X146364833Y-92274838D01*
X146215519Y-92336533D01*
X146190277Y-92341554D01*
X146169065Y-92355728D01*
X146021057Y-92416883D01*
X145906721Y-92531020D01*
X145885319Y-92545320D01*
X145555320Y-92875320D01*
X145351553Y-93180277D01*
X145351553Y-93180278D01*
X145280000Y-93540000D01*
X137309360Y-93540000D01*
X140559361Y-90290000D01*
X143574129Y-90290000D01*
X143528074Y-90335975D01*
X143309148Y-90863207D01*
X143308650Y-91434085D01*
X143526655Y-91961698D01*
X143929975Y-92365722D01*
X144457207Y-92584648D01*
X145028085Y-92585146D01*
X145555698Y-92367141D01*
X145959722Y-91963821D01*
X146178648Y-91436589D01*
X146179146Y-90865711D01*
X145961141Y-90338098D01*
X145913127Y-90290000D01*
X148030000Y-90290000D01*
X148330041Y-90230318D01*
X148389723Y-90218447D01*
X148694680Y-90014680D01*
X149864680Y-88844680D01*
X149878854Y-88823468D01*
X149992192Y-88710327D01*
X150054146Y-88561126D01*
X150068447Y-88539723D01*
X150073425Y-88514698D01*
X150134838Y-88366799D01*
X150134979Y-88205244D01*
X150140000Y-88180000D01*
X150135023Y-88154976D01*
X150135162Y-87994833D01*
X150073469Y-87845524D01*
X150068447Y-87820277D01*
X150054271Y-87799061D01*
X149993117Y-87651057D01*
X149878979Y-87536719D01*
X149864680Y-87515320D01*
X149843468Y-87501146D01*
X149730327Y-87387808D01*
X149581126Y-87325854D01*
X149559723Y-87311553D01*
X149534698Y-87306575D01*
X149386799Y-87245162D01*
X149225244Y-87245021D01*
X149200000Y-87240000D01*
X149174976Y-87244977D01*
X149014833Y-87244838D01*
X148865524Y-87306531D01*
X148840277Y-87311553D01*
X148819061Y-87325729D01*
X148671057Y-87386883D01*
X148556719Y-87501021D01*
X148535320Y-87515320D01*
X147640640Y-88410000D01*
X140170000Y-88410000D01*
X139810278Y-88481553D01*
X139810276Y-88481554D01*
X139810277Y-88481554D01*
X139505319Y-88685320D01*
X132820640Y-95370000D01*
X125619360Y-95370000D01*
X130334680Y-90654680D01*
X130348854Y-90633468D01*
X130462192Y-90520327D01*
X130524146Y-90371126D01*
X130538447Y-90349723D01*
X130543425Y-90324698D01*
X130604838Y-90176799D01*
X130604979Y-90015244D01*
X130610000Y-89990000D01*
X130605023Y-89964976D01*
X130605162Y-89804833D01*
X130543469Y-89655524D01*
X130538447Y-89630277D01*
X130524271Y-89609061D01*
X130463117Y-89461057D01*
X130348979Y-89346719D01*
X130334680Y-89325320D01*
X130313468Y-89311146D01*
X130200327Y-89197808D01*
X130051126Y-89135854D01*
X130029723Y-89121553D01*
X130004698Y-89116575D01*
X129856799Y-89055162D01*
X129695244Y-89055021D01*
X129670000Y-89050000D01*
X129644976Y-89054977D01*
X129484833Y-89054838D01*
X129335524Y-89116531D01*
X129310277Y-89121553D01*
X129289061Y-89135729D01*
X129141057Y-89196883D01*
X129026719Y-89311021D01*
X129005320Y-89325320D01*
X126895336Y-91435304D01*
X126810268Y-91276898D01*
X125818710Y-91276898D01*
X125705851Y-91164039D01*
X125526243Y-91343647D01*
X125639102Y-91456506D01*
X125639102Y-92448064D01*
X125797508Y-92533132D01*
X124528640Y-93802000D01*
X122726670Y-93802000D01*
X122620485Y-93695629D01*
X122166734Y-93507215D01*
X121675421Y-93506786D01*
X121221343Y-93694408D01*
X121113563Y-93802000D01*
X116471360Y-93802000D01*
X114172712Y-91503352D01*
X116908120Y-91503352D01*
X117151455Y-92019772D01*
X117573893Y-92403762D01*
X117974444Y-92569676D01*
X118200898Y-92448064D01*
X118200898Y-91276898D01*
X118454898Y-91276898D01*
X118454898Y-92448064D01*
X118681352Y-92569676D01*
X119197772Y-92326341D01*
X119581762Y-91903903D01*
X119747676Y-91503352D01*
X124092324Y-91503352D01*
X124335659Y-92019772D01*
X124758097Y-92403762D01*
X125158648Y-92569676D01*
X125385102Y-92448064D01*
X125385102Y-91276898D01*
X124213936Y-91276898D01*
X124092324Y-91503352D01*
X119747676Y-91503352D01*
X119626064Y-91276898D01*
X118454898Y-91276898D01*
X118200898Y-91276898D01*
X117029732Y-91276898D01*
X116908120Y-91503352D01*
X114172712Y-91503352D01*
X113465804Y-90796444D01*
X116908120Y-90796444D01*
X117029732Y-91022898D01*
X118200898Y-91022898D01*
X118200898Y-89851732D01*
X118454898Y-89851732D01*
X118454898Y-91022898D01*
X119626064Y-91022898D01*
X119747676Y-90796444D01*
X124092324Y-90796444D01*
X124213936Y-91022898D01*
X125385102Y-91022898D01*
X125385102Y-89851732D01*
X125639102Y-89851732D01*
X125639102Y-91022898D01*
X126810268Y-91022898D01*
X126931880Y-90796444D01*
X126688545Y-90280024D01*
X126266107Y-89896034D01*
X125865556Y-89730120D01*
X125639102Y-89851732D01*
X125385102Y-89851732D01*
X125158648Y-89730120D01*
X124642228Y-89973455D01*
X124258238Y-90395893D01*
X124092324Y-90796444D01*
X119747676Y-90796444D01*
X119504341Y-90280024D01*
X119081903Y-89896034D01*
X118681352Y-89730120D01*
X118454898Y-89851732D01*
X118200898Y-89851732D01*
X117974444Y-89730120D01*
X117458024Y-89973455D01*
X117074034Y-90395893D01*
X116908120Y-90796444D01*
X113465804Y-90796444D01*
X111412680Y-88743320D01*
X111107723Y-88539553D01*
X111048041Y-88527682D01*
X110748000Y-88468000D01*
X110109974Y-88468000D01*
X110006090Y-88306559D01*
X109793890Y-88161569D01*
X109542000Y-88110560D01*
X108042000Y-88110560D01*
X107806683Y-88154838D01*
X107590559Y-88293910D01*
X107445569Y-88506110D01*
X107442919Y-88519197D01*
X107306090Y-88306559D01*
X107093890Y-88161569D01*
X107032000Y-88149036D01*
X107032000Y-87621689D01*
X107077317Y-87613162D01*
X107293441Y-87474090D01*
X107438431Y-87261890D01*
X107441081Y-87248803D01*
X107577910Y-87461441D01*
X107790110Y-87606431D01*
X108042000Y-87657440D01*
X109542000Y-87657440D01*
X109777317Y-87613162D01*
X109993441Y-87474090D01*
X110138431Y-87261890D01*
X110189440Y-87010000D01*
X110189440Y-86749556D01*
X110304120Y-86749556D01*
X110547455Y-87265976D01*
X110969893Y-87649966D01*
X111370444Y-87815880D01*
X111596898Y-87694268D01*
X111596898Y-86523102D01*
X111850898Y-86523102D01*
X111850898Y-87694268D01*
X112077352Y-87815880D01*
X112593772Y-87572545D01*
X112977762Y-87150107D01*
X113143676Y-86749556D01*
X117488324Y-86749556D01*
X117731659Y-87265976D01*
X118154097Y-87649966D01*
X118554648Y-87815880D01*
X118781102Y-87694268D01*
X118781102Y-86523102D01*
X119035102Y-86523102D01*
X119035102Y-87694268D01*
X119261556Y-87815880D01*
X119777976Y-87572545D01*
X120161966Y-87150107D01*
X120327880Y-86749556D01*
X123512120Y-86749556D01*
X123755455Y-87265976D01*
X124177893Y-87649966D01*
X124578444Y-87815880D01*
X124804898Y-87694268D01*
X124804898Y-86523102D01*
X125058898Y-86523102D01*
X125058898Y-87694268D01*
X125285352Y-87815880D01*
X125801772Y-87572545D01*
X126185762Y-87150107D01*
X126351676Y-86749556D01*
X130696324Y-86749556D01*
X130939659Y-87265976D01*
X131362097Y-87649966D01*
X131762648Y-87815880D01*
X131989102Y-87694268D01*
X131989102Y-86523102D01*
X132243102Y-86523102D01*
X132243102Y-87694268D01*
X132469556Y-87815880D01*
X132985976Y-87572545D01*
X133369966Y-87150107D01*
X133535880Y-86749556D01*
X133498682Y-86680289D01*
X136704650Y-86680289D01*
X136922655Y-87207902D01*
X137325975Y-87611926D01*
X137853207Y-87830852D01*
X138424085Y-87831350D01*
X138951698Y-87613345D01*
X139355722Y-87210025D01*
X139574648Y-86682793D01*
X139574650Y-86680289D01*
X143888854Y-86680289D01*
X144106859Y-87207902D01*
X144510179Y-87611926D01*
X145037411Y-87830852D01*
X145608289Y-87831350D01*
X146135902Y-87613345D01*
X146539926Y-87210025D01*
X146758852Y-86682793D01*
X146758854Y-86680289D01*
X149912650Y-86680289D01*
X150130655Y-87207902D01*
X150533975Y-87611926D01*
X151061207Y-87830852D01*
X151632085Y-87831350D01*
X152159698Y-87613345D01*
X152563722Y-87210025D01*
X152782648Y-86682793D01*
X152782650Y-86680289D01*
X157096854Y-86680289D01*
X157314859Y-87207902D01*
X157718179Y-87611926D01*
X158245411Y-87830852D01*
X158816289Y-87831350D01*
X159343902Y-87613345D01*
X159747926Y-87210025D01*
X159966852Y-86682793D01*
X159967350Y-86111915D01*
X159749345Y-85584302D01*
X159346025Y-85180278D01*
X158818793Y-84961352D01*
X158247915Y-84960854D01*
X157720302Y-85178859D01*
X157316278Y-85582179D01*
X157097352Y-86109411D01*
X157096854Y-86680289D01*
X152782650Y-86680289D01*
X152783146Y-86111915D01*
X152565141Y-85584302D01*
X152161821Y-85180278D01*
X151634589Y-84961352D01*
X151063711Y-84960854D01*
X150536098Y-85178859D01*
X150132074Y-85582179D01*
X149913148Y-86109411D01*
X149912650Y-86680289D01*
X146758854Y-86680289D01*
X146759350Y-86111915D01*
X146541345Y-85584302D01*
X146138025Y-85180278D01*
X145610793Y-84961352D01*
X145039915Y-84960854D01*
X144512302Y-85178859D01*
X144108278Y-85582179D01*
X143889352Y-86109411D01*
X143888854Y-86680289D01*
X139574650Y-86680289D01*
X139575146Y-86111915D01*
X139357141Y-85584302D01*
X138953821Y-85180278D01*
X138426589Y-84961352D01*
X137855711Y-84960854D01*
X137328098Y-85178859D01*
X136924074Y-85582179D01*
X136705148Y-86109411D01*
X136704650Y-86680289D01*
X133498682Y-86680289D01*
X133414268Y-86523102D01*
X132243102Y-86523102D01*
X131989102Y-86523102D01*
X130817936Y-86523102D01*
X130696324Y-86749556D01*
X126351676Y-86749556D01*
X126230064Y-86523102D01*
X125058898Y-86523102D01*
X124804898Y-86523102D01*
X123633732Y-86523102D01*
X123512120Y-86749556D01*
X120327880Y-86749556D01*
X120206268Y-86523102D01*
X119035102Y-86523102D01*
X118781102Y-86523102D01*
X117609936Y-86523102D01*
X117488324Y-86749556D01*
X113143676Y-86749556D01*
X113022064Y-86523102D01*
X111850898Y-86523102D01*
X111596898Y-86523102D01*
X110425732Y-86523102D01*
X110304120Y-86749556D01*
X110189440Y-86749556D01*
X110189440Y-86439920D01*
X110402856Y-86226504D01*
X110425732Y-86269102D01*
X111417290Y-86269102D01*
X111530149Y-86381961D01*
X111709757Y-86202353D01*
X111596898Y-86089494D01*
X111596898Y-85097936D01*
X111554301Y-85075060D01*
X111649361Y-84980000D01*
X112070507Y-84980000D01*
X111850898Y-85097936D01*
X111850898Y-86269102D01*
X113022064Y-86269102D01*
X113143676Y-86042648D01*
X112900341Y-85526228D01*
X112477903Y-85142238D01*
X112086227Y-84980000D01*
X118546847Y-84980000D01*
X118038228Y-85219659D01*
X117654238Y-85642097D01*
X117488324Y-86042648D01*
X117609936Y-86269102D01*
X118781102Y-86269102D01*
X118781102Y-85097936D01*
X118561493Y-84980000D01*
X119254711Y-84980000D01*
X119035102Y-85097936D01*
X119035102Y-86269102D01*
X120206268Y-86269102D01*
X120327880Y-86042648D01*
X120084545Y-85526228D01*
X119662107Y-85142238D01*
X119270431Y-84980000D01*
X124570643Y-84980000D01*
X124062024Y-85219659D01*
X123678034Y-85642097D01*
X123512120Y-86042648D01*
X123633732Y-86269102D01*
X124804898Y-86269102D01*
X124804898Y-85097936D01*
X124585289Y-84980000D01*
X125278507Y-84980000D01*
X125058898Y-85097936D01*
X125058898Y-86269102D01*
X126230064Y-86269102D01*
X126351676Y-86042648D01*
X130696324Y-86042648D01*
X130817936Y-86269102D01*
X131989102Y-86269102D01*
X131989102Y-85097936D01*
X132243102Y-85097936D01*
X132243102Y-86269102D01*
X133414268Y-86269102D01*
X133535880Y-86042648D01*
X133292545Y-85526228D01*
X132870107Y-85142238D01*
X132469556Y-84976324D01*
X132243102Y-85097936D01*
X131989102Y-85097936D01*
X131762648Y-84976324D01*
X131246228Y-85219659D01*
X130862238Y-85642097D01*
X130696324Y-86042648D01*
X126351676Y-86042648D01*
X126108341Y-85526228D01*
X125685903Y-85142238D01*
X125294227Y-84980000D01*
X127288000Y-84980000D01*
X127588041Y-84920318D01*
X127647723Y-84908447D01*
X127952680Y-84704680D01*
X128618277Y-84039083D01*
X128768579Y-84039214D01*
X129222657Y-83851592D01*
X129570371Y-83504485D01*
X129758785Y-83050734D01*
X129759214Y-82559421D01*
X129571592Y-82105343D01*
X129464000Y-81997563D01*
X129464000Y-79565352D01*
X130696324Y-79565352D01*
X130939659Y-80081772D01*
X131362097Y-80465762D01*
X131762648Y-80631676D01*
X131989102Y-80510064D01*
X131989102Y-79338898D01*
X132243102Y-79338898D01*
X132243102Y-80510064D01*
X132469556Y-80631676D01*
X132985976Y-80388341D01*
X133369966Y-79965903D01*
X133535880Y-79565352D01*
X133414268Y-79338898D01*
X132243102Y-79338898D01*
X131989102Y-79338898D01*
X130817936Y-79338898D01*
X130696324Y-79565352D01*
X129464000Y-79565352D01*
X129464000Y-79154000D01*
X129428936Y-78977723D01*
X129405211Y-78858444D01*
X130696324Y-78858444D01*
X130817936Y-79084898D01*
X131989102Y-79084898D01*
X131989102Y-77913732D01*
X132243102Y-77913732D01*
X132243102Y-79084898D01*
X133414268Y-79084898D01*
X133535880Y-78858444D01*
X133292545Y-78342024D01*
X132870107Y-77958034D01*
X132469556Y-77792120D01*
X132243102Y-77913732D01*
X131989102Y-77913732D01*
X131762648Y-77792120D01*
X131246228Y-78035455D01*
X130862238Y-78457893D01*
X130696324Y-78858444D01*
X129405211Y-78858444D01*
X129392447Y-78794277D01*
X129188680Y-78489320D01*
X127540000Y-76840640D01*
X127540000Y-75046363D01*
X127650054Y-74972827D01*
X127870000Y-74643654D01*
X128089946Y-74972827D01*
X128571715Y-75294734D01*
X129140000Y-75407773D01*
X129708285Y-75294734D01*
X130190054Y-74972827D01*
X130410000Y-74643654D01*
X130629946Y-74972827D01*
X131111715Y-75294734D01*
X131680000Y-75407773D01*
X132150000Y-75314284D01*
X132150000Y-76610000D01*
X132207852Y-76900839D01*
X132372599Y-77147401D01*
X138566599Y-83341401D01*
X138813161Y-83506148D01*
X139104000Y-83564000D01*
X140745644Y-83564000D01*
X141031515Y-83850371D01*
X141485266Y-84038785D01*
X141976579Y-84039214D01*
X142430657Y-83851592D01*
X142538437Y-83744000D01*
X152086000Y-83744000D01*
X152406358Y-83680277D01*
X152445723Y-83672447D01*
X152750680Y-83468680D01*
X153735835Y-82483526D01*
X153705215Y-82557266D01*
X153704786Y-83048579D01*
X153892408Y-83502657D01*
X154239515Y-83850371D01*
X154693266Y-84038785D01*
X155184579Y-84039214D01*
X155638657Y-83851592D01*
X155746437Y-83744000D01*
X159042640Y-83744000D01*
X161590560Y-86291921D01*
X161590560Y-87010000D01*
X161634838Y-87245317D01*
X161773910Y-87461441D01*
X161986110Y-87606431D01*
X162238000Y-87657440D01*
X163738000Y-87657440D01*
X163973317Y-87613162D01*
X164189441Y-87474090D01*
X164334431Y-87261890D01*
X164341191Y-87228510D01*
X164399673Y-87369699D01*
X164578302Y-87548327D01*
X164811691Y-87645000D01*
X165402250Y-87645000D01*
X165561000Y-87486250D01*
X165561000Y-86487000D01*
X165815000Y-86487000D01*
X165815000Y-87486250D01*
X165973750Y-87645000D01*
X166564309Y-87645000D01*
X166797698Y-87548327D01*
X166976327Y-87369699D01*
X167073000Y-87136310D01*
X167073000Y-86645750D01*
X166914250Y-86487000D01*
X165815000Y-86487000D01*
X165561000Y-86487000D01*
X165541000Y-86487000D01*
X165541000Y-86233000D01*
X165561000Y-86233000D01*
X165561000Y-85233750D01*
X165815000Y-85233750D01*
X165815000Y-86233000D01*
X166914250Y-86233000D01*
X167073000Y-86074250D01*
X167073000Y-85583690D01*
X166976327Y-85350301D01*
X166797698Y-85171673D01*
X166564309Y-85075000D01*
X165973750Y-85075000D01*
X165815000Y-85233750D01*
X165561000Y-85233750D01*
X165402250Y-85075000D01*
X164811691Y-85075000D01*
X164578302Y-85171673D01*
X164399673Y-85350301D01*
X164343346Y-85486287D01*
X164341162Y-85474683D01*
X164202090Y-85258559D01*
X163989890Y-85113569D01*
X163738000Y-85062560D01*
X163019921Y-85062560D01*
X162820801Y-84863440D01*
X163738000Y-84863440D01*
X163973317Y-84819162D01*
X164189441Y-84680090D01*
X164334431Y-84467890D01*
X164341191Y-84434510D01*
X164399673Y-84575699D01*
X164578302Y-84754327D01*
X164811691Y-84851000D01*
X165402250Y-84851000D01*
X165561000Y-84692250D01*
X165561000Y-83693000D01*
X165815000Y-83693000D01*
X165815000Y-84692250D01*
X165973750Y-84851000D01*
X166564309Y-84851000D01*
X166797698Y-84754327D01*
X166976327Y-84575699D01*
X167073000Y-84342310D01*
X167073000Y-83851750D01*
X166914250Y-83693000D01*
X165815000Y-83693000D01*
X165561000Y-83693000D01*
X165541000Y-83693000D01*
X165541000Y-83439000D01*
X165561000Y-83439000D01*
X165561000Y-82439750D01*
X165815000Y-82439750D01*
X165815000Y-83439000D01*
X166914250Y-83439000D01*
X167073000Y-83280250D01*
X167073000Y-82789690D01*
X166976327Y-82556301D01*
X166797698Y-82377673D01*
X166564309Y-82281000D01*
X165973750Y-82281000D01*
X165815000Y-82439750D01*
X165561000Y-82439750D01*
X165402250Y-82281000D01*
X164811691Y-82281000D01*
X164578302Y-82377673D01*
X164399673Y-82556301D01*
X164343346Y-82692287D01*
X164341162Y-82680683D01*
X164202090Y-82464559D01*
X163989890Y-82319569D01*
X163738000Y-82268560D01*
X163019921Y-82268560D01*
X161196680Y-80445320D01*
X160891723Y-80241553D01*
X160815779Y-80226447D01*
X160532000Y-80170000D01*
X159603495Y-80170000D01*
X159747926Y-80025821D01*
X159966852Y-79498589D01*
X159967350Y-78927711D01*
X159749345Y-78400098D01*
X159346025Y-77996074D01*
X158818793Y-77777148D01*
X158247915Y-77776650D01*
X157720302Y-77994655D01*
X157316278Y-78397975D01*
X157097352Y-78925207D01*
X157096854Y-79496085D01*
X157314859Y-80023698D01*
X157460906Y-80170000D01*
X157094940Y-80170000D01*
X157095162Y-79914833D01*
X156953117Y-79571057D01*
X156920000Y-79537882D01*
X156920000Y-77930000D01*
X156862148Y-77639161D01*
X156697401Y-77392599D01*
X155437401Y-76132599D01*
X155190839Y-75967852D01*
X154900000Y-75910000D01*
X142942463Y-75910000D01*
X142910327Y-75877808D01*
X142566799Y-75735162D01*
X142194833Y-75734838D01*
X141851057Y-75876883D01*
X141587808Y-76139673D01*
X141445162Y-76483201D01*
X141444838Y-76855167D01*
X141586883Y-77198943D01*
X141849673Y-77462192D01*
X142193201Y-77604838D01*
X142565167Y-77605162D01*
X142908943Y-77463117D01*
X142942118Y-77430000D01*
X147926491Y-77430000D01*
X147925162Y-77433201D01*
X147925021Y-77594756D01*
X147920000Y-77620000D01*
X147920000Y-81050000D01*
X147924977Y-81075024D01*
X147924838Y-81235167D01*
X147986531Y-81384477D01*
X147991553Y-81409722D01*
X148005728Y-81430936D01*
X148066883Y-81578943D01*
X148181022Y-81693281D01*
X148195320Y-81714680D01*
X148216532Y-81728854D01*
X148329673Y-81842192D01*
X148382192Y-81864000D01*
X142538670Y-81864000D01*
X142432485Y-81757629D01*
X141978734Y-81569215D01*
X141487421Y-81568786D01*
X141033343Y-81756408D01*
X140745248Y-82044000D01*
X139418802Y-82044000D01*
X138021597Y-80646795D01*
X138424085Y-80647146D01*
X138951698Y-80429141D01*
X139355722Y-80025821D01*
X139574648Y-79498589D01*
X139574650Y-79496085D01*
X143888854Y-79496085D01*
X144106859Y-80023698D01*
X144510179Y-80427722D01*
X145037411Y-80646648D01*
X145608289Y-80647146D01*
X146135902Y-80429141D01*
X146539926Y-80025821D01*
X146758852Y-79498589D01*
X146759350Y-78927711D01*
X146541345Y-78400098D01*
X146138025Y-77996074D01*
X145610793Y-77777148D01*
X145039915Y-77776650D01*
X144512302Y-77994655D01*
X144108278Y-78397975D01*
X143889352Y-78925207D01*
X143888854Y-79496085D01*
X139574650Y-79496085D01*
X139575146Y-78927711D01*
X139357141Y-78400098D01*
X138953821Y-77996074D01*
X138426589Y-77777148D01*
X137855711Y-77776650D01*
X137328098Y-77994655D01*
X136924074Y-78397975D01*
X136705148Y-78925207D01*
X136704795Y-79329993D01*
X133670000Y-76295198D01*
X133670000Y-75298371D01*
X134220000Y-75407773D01*
X134788285Y-75294734D01*
X135270054Y-74972827D01*
X135490000Y-74643654D01*
X135709946Y-74972827D01*
X136191715Y-75294734D01*
X136760000Y-75407773D01*
X137328285Y-75294734D01*
X137810054Y-74972827D01*
X138030000Y-74643654D01*
X138249946Y-74972827D01*
X138731715Y-75294734D01*
X139300000Y-75407773D01*
X139868285Y-75294734D01*
X140350054Y-74972827D01*
X140577702Y-74632127D01*
X140644817Y-74775038D01*
X141073076Y-75165325D01*
X141483110Y-75335156D01*
X141713000Y-75213835D01*
X141713000Y-74020680D01*
X141693000Y-74020680D01*
X141693000Y-73766680D01*
X141713000Y-73766680D01*
X141713000Y-73746680D01*
X141967000Y-73746680D01*
X141967000Y-73766680D01*
X141987000Y-73766680D01*
X141987000Y-74020680D01*
X141967000Y-74020680D01*
X141967000Y-75213835D01*
X142196890Y-75335156D01*
X142606924Y-75165325D01*
X143035183Y-74775038D01*
X143102298Y-74632127D01*
X143329946Y-74972827D01*
X143811715Y-75294734D01*
X144380000Y-75407773D01*
X144948285Y-75294734D01*
X145430054Y-74972827D01*
X145650000Y-74643654D01*
X145869946Y-74972827D01*
X146351715Y-75294734D01*
X146920000Y-75407773D01*
X147488285Y-75294734D01*
X147970054Y-74972827D01*
X148190000Y-74643654D01*
X148409946Y-74972827D01*
X148891715Y-75294734D01*
X149460000Y-75407773D01*
X150028285Y-75294734D01*
X150510054Y-74972827D01*
X150730000Y-74643654D01*
X150949946Y-74972827D01*
X151431715Y-75294734D01*
X152000000Y-75407773D01*
X152568285Y-75294734D01*
X153050054Y-74972827D01*
X153270000Y-74643654D01*
X153489946Y-74972827D01*
X153971715Y-75294734D01*
X154540000Y-75407773D01*
X155108285Y-75294734D01*
X155590054Y-74972827D01*
X155810000Y-74643654D01*
X156029946Y-74972827D01*
X156511715Y-75294734D01*
X157080000Y-75407773D01*
X157648285Y-75294734D01*
X158130054Y-74972827D01*
X158357702Y-74632127D01*
X158424817Y-74775038D01*
X158853076Y-75165325D01*
X159263110Y-75335156D01*
X159493000Y-75213835D01*
X159493000Y-74020680D01*
X159747000Y-74020680D01*
X159747000Y-75213835D01*
X159976890Y-75335156D01*
X160386924Y-75165325D01*
X160815183Y-74775038D01*
X161061486Y-74250572D01*
X160940819Y-74020680D01*
X159747000Y-74020680D01*
X159493000Y-74020680D01*
X159473000Y-74020680D01*
X159473000Y-73766680D01*
X159493000Y-73766680D01*
X159493000Y-73746680D01*
X159747000Y-73746680D01*
X159747000Y-73766680D01*
X160940819Y-73766680D01*
X161061486Y-73536788D01*
X160885389Y-73161815D01*
X162456630Y-73161815D01*
X162780980Y-73946800D01*
X163381041Y-74547909D01*
X164165459Y-74873628D01*
X165014815Y-74874370D01*
X165799800Y-74550020D01*
X166400909Y-73949959D01*
X166726628Y-73165541D01*
X166727370Y-72316185D01*
X166403020Y-71531200D01*
X165802959Y-70930091D01*
X165018541Y-70604372D01*
X164169185Y-70603630D01*
X163384200Y-70927980D01*
X162783091Y-71528041D01*
X162457372Y-72312459D01*
X162456630Y-73161815D01*
X160885389Y-73161815D01*
X160815183Y-73012322D01*
X160386924Y-72622035D01*
X160386899Y-72622025D01*
X160670054Y-72432827D01*
X160991961Y-71951058D01*
X161105000Y-71382773D01*
X161105000Y-71324587D01*
X160991961Y-70756302D01*
X160670054Y-70274533D01*
X160188285Y-69952626D01*
X159620000Y-69839587D01*
X159051715Y-69952626D01*
X158569946Y-70274533D01*
X158350000Y-70603706D01*
X158130054Y-70274533D01*
X157648285Y-69952626D01*
X157080000Y-69839587D01*
X156511715Y-69952626D01*
X156029946Y-70274533D01*
X155810000Y-70603706D01*
X155590054Y-70274533D01*
X155108285Y-69952626D01*
X154540000Y-69839587D01*
X153971715Y-69952626D01*
X153489946Y-70274533D01*
X153262298Y-70615233D01*
X153195183Y-70472322D01*
X152766924Y-70082035D01*
X152356890Y-69912204D01*
X152127000Y-70033525D01*
X152127000Y-71226680D01*
X152147000Y-71226680D01*
X152147000Y-71480680D01*
X152127000Y-71480680D01*
X152127000Y-71500680D01*
X151873000Y-71500680D01*
X151873000Y-71480680D01*
X151853000Y-71480680D01*
X151853000Y-71226680D01*
X151873000Y-71226680D01*
X151873000Y-70033525D01*
X151643110Y-69912204D01*
X151233076Y-70082035D01*
X150804817Y-70472322D01*
X150737702Y-70615233D01*
X150510054Y-70274533D01*
X150028285Y-69952626D01*
X149460000Y-69839587D01*
X148891715Y-69952626D01*
X148409946Y-70274533D01*
X148182298Y-70615233D01*
X148115183Y-70472322D01*
X147686924Y-70082035D01*
X147276890Y-69912204D01*
X147047000Y-70033525D01*
X147047000Y-71226680D01*
X147067000Y-71226680D01*
X147067000Y-71480680D01*
X147047000Y-71480680D01*
X147047000Y-71500680D01*
X146793000Y-71500680D01*
X146793000Y-71480680D01*
X146773000Y-71480680D01*
X146773000Y-71226680D01*
X146793000Y-71226680D01*
X146793000Y-70033525D01*
X146563110Y-69912204D01*
X146153076Y-70082035D01*
X145724817Y-70472322D01*
X145657702Y-70615233D01*
X145430054Y-70274533D01*
X144948285Y-69952626D01*
X144380000Y-69839587D01*
X143811715Y-69952626D01*
X143329946Y-70274533D01*
X143110000Y-70603706D01*
X142890054Y-70274533D01*
X142408285Y-69952626D01*
X141840000Y-69839587D01*
X141271715Y-69952626D01*
X140789946Y-70274533D01*
X140570000Y-70603706D01*
X140350054Y-70274533D01*
X139868285Y-69952626D01*
X139300000Y-69839587D01*
X138731715Y-69952626D01*
X138249946Y-70274533D01*
X138030000Y-70603706D01*
X137810054Y-70274533D01*
X137328285Y-69952626D01*
X136760000Y-69839587D01*
X136191715Y-69952626D01*
X135709946Y-70274533D01*
X135482298Y-70615233D01*
X135415183Y-70472322D01*
X134986924Y-70082035D01*
X134576890Y-69912204D01*
X134347000Y-70033525D01*
X134347000Y-71226680D01*
X134367000Y-71226680D01*
X134367000Y-71480680D01*
X134347000Y-71480680D01*
X134347000Y-71500680D01*
X134093000Y-71500680D01*
X134093000Y-71480680D01*
X134073000Y-71480680D01*
X134073000Y-71226680D01*
X134093000Y-71226680D01*
X134093000Y-70033525D01*
X133863110Y-69912204D01*
X133453076Y-70082035D01*
X133024817Y-70472322D01*
X132957702Y-70615233D01*
X132730054Y-70274533D01*
X132248285Y-69952626D01*
X131680000Y-69839587D01*
X131111715Y-69952626D01*
X130629946Y-70274533D01*
X130410000Y-70603706D01*
X130190054Y-70274533D01*
X129708285Y-69952626D01*
X129140000Y-69839587D01*
X128571715Y-69952626D01*
X128089946Y-70274533D01*
X127862298Y-70615233D01*
X127795183Y-70472322D01*
X127366924Y-70082035D01*
X126956890Y-69912204D01*
X126727000Y-70033525D01*
X126727000Y-71226680D01*
X126747000Y-71226680D01*
X126747000Y-71480680D01*
X126727000Y-71480680D01*
X126727000Y-71500680D01*
X126473000Y-71500680D01*
X126473000Y-71480680D01*
X126453000Y-71480680D01*
X126453000Y-71226680D01*
X126473000Y-71226680D01*
X126473000Y-70033525D01*
X126243110Y-69912204D01*
X125833076Y-70082035D01*
X125404817Y-70472322D01*
X125337702Y-70615233D01*
X125110054Y-70274533D01*
X124628285Y-69952626D01*
X124060000Y-69839587D01*
X123491715Y-69952626D01*
X123009946Y-70274533D01*
X122790000Y-70603706D01*
X122570054Y-70274533D01*
X122088285Y-69952626D01*
X121520000Y-69839587D01*
X120951715Y-69952626D01*
X120469946Y-70274533D01*
X120250000Y-70603706D01*
X120030054Y-70274533D01*
X119548285Y-69952626D01*
X118980000Y-69839587D01*
X118411715Y-69952626D01*
X117929946Y-70274533D01*
X117702298Y-70615233D01*
X117635183Y-70472322D01*
X117206924Y-70082035D01*
X116796890Y-69912204D01*
X116567000Y-70033525D01*
X116567000Y-71226680D01*
X116587000Y-71226680D01*
X116587000Y-71480680D01*
X116567000Y-71480680D01*
X116567000Y-71500680D01*
X116313000Y-71500680D01*
X116313000Y-71480680D01*
X116293000Y-71480680D01*
X116293000Y-71226680D01*
X116313000Y-71226680D01*
X116313000Y-70033525D01*
X116083110Y-69912204D01*
X115673076Y-70082035D01*
X115244817Y-70472322D01*
X115177702Y-70615233D01*
X114950054Y-70274533D01*
X114468285Y-69952626D01*
X113900000Y-69839587D01*
X113331715Y-69952626D01*
X112849946Y-70274533D01*
X112630000Y-70603706D01*
X112410054Y-70274533D01*
X111928285Y-69952626D01*
X111360000Y-69839587D01*
X110791715Y-69952626D01*
X110309946Y-70274533D01*
X109988039Y-70756302D01*
X109875000Y-71324587D01*
X109875000Y-71382773D01*
X109880453Y-71410187D01*
X109065320Y-72225320D01*
X108861553Y-72530277D01*
X108861553Y-72530278D01*
X108790000Y-72890000D01*
X108790000Y-74590640D01*
X105427320Y-77953320D01*
X105223553Y-78258277D01*
X105223553Y-78258278D01*
X105152000Y-78618000D01*
X105152000Y-80138639D01*
X103945320Y-81345320D01*
X103741553Y-81650277D01*
X103741553Y-81650278D01*
X103710000Y-81808906D01*
X103710000Y-73161815D01*
X104290630Y-73161815D01*
X104614980Y-73946800D01*
X105215041Y-74547909D01*
X105999459Y-74873628D01*
X106848815Y-74874370D01*
X107633800Y-74550020D01*
X108234909Y-73949959D01*
X108560628Y-73165541D01*
X108561370Y-72316185D01*
X108237020Y-71531200D01*
X107636959Y-70930091D01*
X106852541Y-70604372D01*
X106003185Y-70603630D01*
X105218200Y-70927980D01*
X104617091Y-71528041D01*
X104291372Y-72312459D01*
X104290630Y-73161815D01*
X103710000Y-73161815D01*
X103710000Y-68240815D01*
X104290630Y-68240815D01*
X104614980Y-69025800D01*
X105215041Y-69626909D01*
X105999459Y-69952628D01*
X106848815Y-69953370D01*
X107633800Y-69629020D01*
X108234909Y-69028959D01*
X108560628Y-68244541D01*
X108561370Y-67395185D01*
X108237020Y-66610200D01*
X107751189Y-66123520D01*
X110603600Y-66123520D01*
X110603600Y-66397840D01*
X110652317Y-66642757D01*
X110791052Y-66850388D01*
X110998683Y-66989123D01*
X111081120Y-67005521D01*
X111081120Y-67749120D01*
X111129837Y-67994037D01*
X111268572Y-68201668D01*
X111476203Y-68340403D01*
X111721120Y-68389120D01*
X112015760Y-68389120D01*
X112260677Y-68340403D01*
X112350515Y-68280375D01*
X112439423Y-68340187D01*
X112446721Y-68341663D01*
X112452995Y-68345678D01*
X112568839Y-68366353D01*
X112684185Y-68389675D01*
X112691496Y-68388245D01*
X112698826Y-68389553D01*
X112984558Y-68383915D01*
X113100976Y-68358361D01*
X113179985Y-68342511D01*
X113298662Y-68365205D01*
X113418892Y-68389120D01*
X113702320Y-68389120D01*
X113947237Y-68340403D01*
X114006704Y-68300669D01*
X114040948Y-68311079D01*
X114088190Y-68338047D01*
X114172068Y-68366062D01*
X114219984Y-68372132D01*
X114265039Y-68389541D01*
X114357201Y-68405587D01*
X114412821Y-68404254D01*
X114467395Y-68415072D01*
X114573181Y-68415003D01*
X114629758Y-68403711D01*
X114687441Y-68404645D01*
X114791614Y-68385672D01*
X114846118Y-68364123D01*
X114903919Y-68354427D01*
X115002794Y-68316922D01*
X115029163Y-68300430D01*
X115059202Y-68292363D01*
X115060259Y-68291841D01*
X115089455Y-68269412D01*
X115123697Y-68255879D01*
X115185019Y-68216338D01*
X115191444Y-68210119D01*
X115236451Y-68239572D01*
X115290250Y-68261255D01*
X115338279Y-68293784D01*
X115440540Y-68336895D01*
X115496048Y-68348298D01*
X115547812Y-68371355D01*
X115659012Y-68396536D01*
X115688186Y-68397305D01*
X115715807Y-68406730D01*
X115721104Y-68407436D01*
X115748605Y-68405678D01*
X115775349Y-68412328D01*
X115871089Y-68416867D01*
X115917002Y-68409976D01*
X115963197Y-68414594D01*
X116060810Y-68405124D01*
X116103927Y-68392113D01*
X116148929Y-68390308D01*
X116238052Y-68368834D01*
X116280067Y-68369909D01*
X116339759Y-68383729D01*
X116527181Y-68389571D01*
X116537178Y-68387904D01*
X116547120Y-68389882D01*
X116659995Y-68367430D01*
X116712214Y-68358724D01*
X116755786Y-68366513D01*
X116872240Y-68389677D01*
X116878457Y-68388440D01*
X116884699Y-68389556D01*
X117029479Y-68386737D01*
X117174254Y-68383919D01*
X117288240Y-68358930D01*
X117402831Y-68336918D01*
X117409904Y-68332259D01*
X117418177Y-68330445D01*
X117513916Y-68263743D01*
X117593567Y-68211275D01*
X117630094Y-68242673D01*
X117715762Y-68291008D01*
X117776729Y-68311032D01*
X117832734Y-68342366D01*
X117927068Y-68372974D01*
X117971669Y-68378234D01*
X118013526Y-68394506D01*
X118060232Y-68402736D01*
X118100326Y-68401857D01*
X118139213Y-68411641D01*
X118241006Y-68416750D01*
X118294991Y-68408801D01*
X118349398Y-68412989D01*
X118448447Y-68401094D01*
X118501404Y-68383787D01*
X118556853Y-68378423D01*
X118650135Y-68350304D01*
X118702119Y-68322634D01*
X118758721Y-68306375D01*
X118843213Y-68262808D01*
X118887539Y-68227516D01*
X118906729Y-68243941D01*
X118992675Y-68292191D01*
X119052328Y-68311642D01*
X119107015Y-68342409D01*
X119200643Y-68373033D01*
X119254425Y-68379505D01*
X119305419Y-68397776D01*
X119379998Y-68408872D01*
X119427621Y-68406553D01*
X119474387Y-68415840D01*
X119571295Y-68415809D01*
X119621808Y-68405745D01*
X119673277Y-68407598D01*
X119767773Y-68392314D01*
X119816717Y-68374075D01*
X119868531Y-68367495D01*
X119957020Y-68337909D01*
X120006085Y-68309880D01*
X120019586Y-68305673D01*
X120071563Y-68340403D01*
X120316480Y-68389120D01*
X120600960Y-68389120D01*
X120722960Y-68364853D01*
X120824387Y-68344706D01*
X120925801Y-68364813D01*
X121048000Y-68389120D01*
X121332480Y-68389120D01*
X121505200Y-68354764D01*
X121677920Y-68389120D01*
X122428559Y-68389120D01*
X122435157Y-68427028D01*
X122442136Y-68445091D01*
X122458529Y-68470949D01*
X122464939Y-68492809D01*
X122474688Y-68504917D01*
X122484353Y-68533541D01*
X122534801Y-68591255D01*
X122575844Y-68655994D01*
X122616212Y-68684393D01*
X122648696Y-68721555D01*
X122662100Y-68731875D01*
X122718066Y-68759588D01*
X122727878Y-68769075D01*
X122747717Y-68776904D01*
X122780084Y-68799674D01*
X122811733Y-68806763D01*
X122876579Y-68840101D01*
X122898485Y-68846365D01*
X122930386Y-68848992D01*
X122960160Y-68860742D01*
X122992643Y-68866637D01*
X123003056Y-68866462D01*
X123012865Y-68869974D01*
X123023250Y-68871517D01*
X123044362Y-68870485D01*
X123064683Y-68876299D01*
X123103142Y-68879472D01*
X123119268Y-68877625D01*
X123135074Y-68881304D01*
X123182867Y-68882850D01*
X123195843Y-68880703D01*
X123208766Y-68883164D01*
X123257928Y-68882764D01*
X123269682Y-68880326D01*
X123281546Y-68882135D01*
X123318498Y-68880469D01*
X123336944Y-68875928D01*
X123355860Y-68877687D01*
X123399677Y-68873131D01*
X123438496Y-68861125D01*
X123479110Y-68859776D01*
X123513681Y-68851698D01*
X123558210Y-68831497D01*
X123606271Y-68822501D01*
X123638252Y-68809676D01*
X123658112Y-68796728D01*
X123681034Y-68790675D01*
X123686154Y-68788173D01*
X123718811Y-68763301D01*
X123756849Y-68747868D01*
X123815266Y-68709446D01*
X123858493Y-68666843D01*
X123909448Y-68633865D01*
X123963712Y-68581168D01*
X123995620Y-68534896D01*
X124036774Y-68496617D01*
X124081172Y-68435109D01*
X124095397Y-68403999D01*
X124117841Y-68378188D01*
X124118108Y-68377721D01*
X124126803Y-68351747D01*
X124142966Y-68329631D01*
X124151361Y-68311554D01*
X124154307Y-68299433D01*
X124160782Y-68289819D01*
X124164846Y-68292768D01*
X124228041Y-68321854D01*
X124271081Y-68332158D01*
X124310117Y-68353000D01*
X124323062Y-68356921D01*
X124358127Y-68360358D01*
X124390825Y-68373470D01*
X124440778Y-68382819D01*
X124473800Y-68382445D01*
X124505546Y-68391546D01*
X124563983Y-68396399D01*
X124591261Y-68393290D01*
X124618203Y-68398594D01*
X124676467Y-68398480D01*
X124711265Y-68391487D01*
X124746631Y-68394484D01*
X124796066Y-68388933D01*
X124822462Y-68380531D01*
X124850164Y-68380502D01*
X124881915Y-68374152D01*
X124939821Y-68350095D01*
X125001317Y-68337863D01*
X125054004Y-68302659D01*
X125112521Y-68278348D01*
X125149975Y-68240815D01*
X162456630Y-68240815D01*
X162780980Y-69025800D01*
X163381041Y-69626909D01*
X164165459Y-69952628D01*
X165014815Y-69953370D01*
X165799800Y-69629020D01*
X166400909Y-69028959D01*
X166726628Y-68244541D01*
X166727370Y-67395185D01*
X166403020Y-66610200D01*
X165802959Y-66009091D01*
X165018541Y-65683372D01*
X164169185Y-65682630D01*
X163384200Y-66006980D01*
X162783091Y-66607041D01*
X162457372Y-67391459D01*
X162456630Y-68240815D01*
X125149975Y-68240815D01*
X125156812Y-68233964D01*
X125208948Y-68199128D01*
X125244152Y-68146442D01*
X125288912Y-68101588D01*
X125312847Y-68043633D01*
X125347683Y-67991497D01*
X125360045Y-67929349D01*
X125384233Y-67870781D01*
X125384167Y-67808077D01*
X125396400Y-67746580D01*
X125396400Y-67505280D01*
X125347683Y-67260363D01*
X125237469Y-67095417D01*
X125236164Y-66772060D01*
X125233414Y-66090458D01*
X125208808Y-65969313D01*
X125184702Y-65848123D01*
X125183971Y-65847029D01*
X125183709Y-65845739D01*
X125114650Y-65743283D01*
X125045967Y-65640492D01*
X125044872Y-65639760D01*
X125044137Y-65638670D01*
X124941192Y-65570484D01*
X124838336Y-65501757D01*
X124837044Y-65501500D01*
X124835948Y-65500774D01*
X124714657Y-65477156D01*
X124593419Y-65453040D01*
X124308841Y-65453040D01*
X124307612Y-65453284D01*
X124306384Y-65453045D01*
X124185289Y-65477616D01*
X124063924Y-65501757D01*
X124062882Y-65502453D01*
X124061656Y-65502702D01*
X123959180Y-65571745D01*
X123856293Y-65640492D01*
X123855597Y-65641534D01*
X123854559Y-65642233D01*
X123786273Y-65745284D01*
X123717558Y-65848123D01*
X123717314Y-65849351D01*
X123716622Y-65850395D01*
X123696719Y-65952500D01*
X123689946Y-65954610D01*
X123599397Y-65972826D01*
X123576876Y-65987945D01*
X123573444Y-65988781D01*
X123568415Y-65992460D01*
X123540281Y-66001223D01*
X123524962Y-65989496D01*
X123517838Y-65987596D01*
X123515554Y-65985885D01*
X123446728Y-65968293D01*
X123433058Y-65891106D01*
X123429369Y-65885325D01*
X123428032Y-65878603D01*
X123362349Y-65780301D01*
X123298725Y-65680600D01*
X123293105Y-65676671D01*
X123289297Y-65670972D01*
X123190982Y-65605280D01*
X123094061Y-65537525D01*
X123087367Y-65536046D01*
X123081666Y-65532237D01*
X122965680Y-65509166D01*
X122850224Y-65483662D01*
X122843473Y-65484858D01*
X122836749Y-65483520D01*
X121677920Y-65483520D01*
X121433003Y-65532237D01*
X121225372Y-65670972D01*
X121086637Y-65878603D01*
X121081277Y-65905550D01*
X121053802Y-65898536D01*
X121016833Y-65896552D01*
X121001744Y-65898720D01*
X120986809Y-65895646D01*
X120935433Y-65895303D01*
X120932396Y-65895886D01*
X120929365Y-65895292D01*
X120928652Y-65895294D01*
X120916254Y-65897796D01*
X120903755Y-65895848D01*
X120826567Y-65899070D01*
X120788314Y-65908353D01*
X120748974Y-65907067D01*
X120686353Y-65917409D01*
X120637744Y-65935707D01*
X120634795Y-65935570D01*
X120558533Y-65920400D01*
X120316480Y-65920400D01*
X120071563Y-65969117D01*
X120022498Y-66001901D01*
X120006710Y-65993946D01*
X119944290Y-65976643D01*
X119886285Y-65947813D01*
X119788797Y-65921365D01*
X119730476Y-65917360D01*
X119674288Y-65901242D01*
X119566497Y-65892274D01*
X119537323Y-65895595D01*
X119508478Y-65890089D01*
X119496339Y-65890183D01*
X119464994Y-65896671D01*
X119433112Y-65893806D01*
X119328945Y-65904967D01*
X119270953Y-65923103D01*
X119210495Y-65929142D01*
X119114925Y-65958278D01*
X119058907Y-65988320D01*
X118998132Y-66006960D01*
X118912185Y-66053240D01*
X118879056Y-66080599D01*
X118828253Y-66040524D01*
X118743119Y-65997113D01*
X118682373Y-65979961D01*
X118626134Y-65951303D01*
X118530349Y-65924285D01*
X118471736Y-65919670D01*
X118415371Y-65902954D01*
X118309692Y-65893209D01*
X118265652Y-65897823D01*
X118221876Y-65891165D01*
X118149488Y-65894454D01*
X118104231Y-65905613D01*
X118057618Y-65905321D01*
X117955706Y-65924929D01*
X117898092Y-65948371D01*
X117836980Y-65959963D01*
X117818373Y-65967477D01*
X117808037Y-65960571D01*
X117752892Y-65949602D01*
X117752555Y-65949380D01*
X117751759Y-65949227D01*
X117700405Y-65926752D01*
X117668773Y-65919805D01*
X117641433Y-65919263D01*
X117615545Y-65910451D01*
X117595597Y-65907808D01*
X117551106Y-65910687D01*
X117507323Y-65902278D01*
X117461485Y-65902580D01*
X117429500Y-65909161D01*
X117396975Y-65906267D01*
X117343405Y-65912053D01*
X117318173Y-65919967D01*
X117291726Y-65919780D01*
X117237663Y-65930136D01*
X117229367Y-65933503D01*
X117178512Y-65933139D01*
X117114460Y-65920399D01*
X116993347Y-65920400D01*
X116930885Y-65920400D01*
X116903691Y-65886680D01*
X116861480Y-65851430D01*
X116828053Y-65807762D01*
X116753823Y-65742511D01*
X116706370Y-65715040D01*
X116666136Y-65677786D01*
X116580316Y-65625097D01*
X116535965Y-65608693D01*
X116496942Y-65581986D01*
X116428083Y-65552562D01*
X116383879Y-65543257D01*
X116343405Y-65523203D01*
X116234397Y-65493775D01*
X116184803Y-65490431D01*
X116137403Y-65475475D01*
X116023297Y-65462954D01*
X115975924Y-65467088D01*
X115928960Y-65459605D01*
X115813505Y-65464033D01*
X115766858Y-65475186D01*
X115718897Y-65474749D01*
X115605840Y-65496169D01*
X115558667Y-65515207D01*
X115508366Y-65522754D01*
X115401457Y-65561207D01*
X115366141Y-65582454D01*
X115326495Y-65593712D01*
X115278188Y-65618434D01*
X115244413Y-65645158D01*
X115204916Y-65662336D01*
X115114463Y-65725098D01*
X115074527Y-65766461D01*
X115026720Y-65798410D01*
X114948973Y-65876170D01*
X114917824Y-65922796D01*
X114886849Y-65952446D01*
X114876029Y-65947099D01*
X114778580Y-65920904D01*
X114720746Y-65917067D01*
X114665023Y-65901128D01*
X114557136Y-65892234D01*
X114530255Y-65895314D01*
X114503711Y-65890071D01*
X114499156Y-65890077D01*
X114470464Y-65895823D01*
X114441358Y-65892768D01*
X114336222Y-65902442D01*
X114277483Y-65919849D01*
X114216445Y-65925122D01*
X114120220Y-65953055D01*
X114062100Y-65983229D01*
X113999352Y-66001972D01*
X113912047Y-66048160D01*
X113887776Y-66067906D01*
X113871642Y-66056450D01*
X113804170Y-66026232D01*
X113742452Y-65985532D01*
X113664136Y-65953647D01*
X113593969Y-65940131D01*
X113579665Y-65934747D01*
X113564076Y-65855065D01*
X113563508Y-65854209D01*
X113563308Y-65853203D01*
X113494526Y-65750264D01*
X113425995Y-65646998D01*
X113425143Y-65646425D01*
X113424573Y-65645572D01*
X113321553Y-65576736D01*
X113218801Y-65507611D01*
X113217796Y-65507408D01*
X113216942Y-65506837D01*
X113095257Y-65482632D01*
X112974039Y-65458124D01*
X112973034Y-65458321D01*
X112972025Y-65458120D01*
X112691400Y-65458120D01*
X112569905Y-65482287D01*
X112534048Y-65489302D01*
X112532056Y-65488781D01*
X112519627Y-65488040D01*
X112515742Y-65488575D01*
X112512928Y-65487928D01*
X112505498Y-65489178D01*
X112496024Y-65487070D01*
X112465191Y-65486372D01*
X112462270Y-65486885D01*
X112459371Y-65486267D01*
X112411884Y-65485624D01*
X112410504Y-65485879D01*
X112409128Y-65485592D01*
X112346742Y-65485016D01*
X112345895Y-65485176D01*
X112345053Y-65485003D01*
X112269520Y-65484505D01*
X112268908Y-65484623D01*
X112268297Y-65484498D01*
X112181368Y-65484091D01*
X112180884Y-65484185D01*
X112180399Y-65484087D01*
X112083830Y-65483781D01*
X112083403Y-65483864D01*
X112082978Y-65483779D01*
X111978518Y-65483587D01*
X111978121Y-65483665D01*
X111977724Y-65483586D01*
X111867128Y-65483520D01*
X111866937Y-65483558D01*
X111866746Y-65483520D01*
X111243600Y-65483520D01*
X110998683Y-65532237D01*
X110791052Y-65670972D01*
X110652317Y-65878603D01*
X110603600Y-66123520D01*
X107751189Y-66123520D01*
X107636959Y-66009091D01*
X106852541Y-65683372D01*
X106003185Y-65682630D01*
X105218200Y-66006980D01*
X104617091Y-66607041D01*
X104291372Y-67391459D01*
X104290630Y-68240815D01*
X103710000Y-68240815D01*
X103710000Y-64251470D01*
X103758206Y-64009122D01*
X103854905Y-63864401D01*
X103999626Y-63767702D01*
X104239441Y-63720000D01*
X166770069Y-63720000D01*
X167010713Y-63767867D01*
G36*
X125549946Y-74972827D02*
X125660000Y-75046363D01*
X125660000Y-77230000D01*
X125700419Y-77433201D01*
X125731553Y-77589723D01*
X125935320Y-77894680D01*
X127584000Y-79543360D01*
X127584000Y-81997330D01*
X127477629Y-82103515D01*
X127289215Y-82557266D01*
X127289082Y-82709558D01*
X126898640Y-83100000D01*
X116530328Y-83100000D01*
X116550785Y-83050734D01*
X116551214Y-82559421D01*
X116363592Y-82105343D01*
X116016485Y-81757629D01*
X115562734Y-81569215D01*
X115071421Y-81568786D01*
X114617343Y-81756408D01*
X114509563Y-81864000D01*
X109732000Y-81864000D01*
X109732000Y-79747360D01*
X109914008Y-79565352D01*
X110304120Y-79565352D01*
X110547455Y-80081772D01*
X110969893Y-80465762D01*
X111370444Y-80631676D01*
X111596898Y-80510064D01*
X111596898Y-79338898D01*
X111850898Y-79338898D01*
X111850898Y-80510064D01*
X112077352Y-80631676D01*
X112593772Y-80388341D01*
X112977762Y-79965903D01*
X113143676Y-79565352D01*
X117488324Y-79565352D01*
X117731659Y-80081772D01*
X118154097Y-80465762D01*
X118554648Y-80631676D01*
X118781102Y-80510064D01*
X118781102Y-79338898D01*
X119035102Y-79338898D01*
X119035102Y-80510064D01*
X119261556Y-80631676D01*
X119777976Y-80388341D01*
X120161966Y-79965903D01*
X120327880Y-79565352D01*
X123512120Y-79565352D01*
X123755455Y-80081772D01*
X124177893Y-80465762D01*
X124578444Y-80631676D01*
X124804898Y-80510064D01*
X124804898Y-79338898D01*
X125058898Y-79338898D01*
X125058898Y-80510064D01*
X125285352Y-80631676D01*
X125801772Y-80388341D01*
X126185762Y-79965903D01*
X126351676Y-79565352D01*
X126230064Y-79338898D01*
X125058898Y-79338898D01*
X124804898Y-79338898D01*
X123633732Y-79338898D01*
X123512120Y-79565352D01*
X120327880Y-79565352D01*
X120206268Y-79338898D01*
X119035102Y-79338898D01*
X118781102Y-79338898D01*
X117609936Y-79338898D01*
X117488324Y-79565352D01*
X113143676Y-79565352D01*
X113022064Y-79338898D01*
X111850898Y-79338898D01*
X111596898Y-79338898D01*
X110425732Y-79338898D01*
X110304120Y-79565352D01*
X109914008Y-79565352D01*
X110414806Y-79064554D01*
X110425732Y-79084898D01*
X111417290Y-79084898D01*
X111530149Y-79197757D01*
X111709757Y-79018149D01*
X111596898Y-78905290D01*
X111596898Y-77913732D01*
X111589949Y-77910000D01*
X111857847Y-77910000D01*
X111850898Y-77913732D01*
X111850898Y-79084898D01*
X113022064Y-79084898D01*
X113143676Y-78858444D01*
X112900341Y-78342024D01*
X112477903Y-77958034D01*
X112361939Y-77910000D01*
X118304476Y-77910000D01*
X118038228Y-78035455D01*
X117654238Y-78457893D01*
X117488324Y-78858444D01*
X117609936Y-79084898D01*
X118781102Y-79084898D01*
X118781102Y-77913732D01*
X118774153Y-77910000D01*
X119042051Y-77910000D01*
X119035102Y-77913732D01*
X119035102Y-79084898D01*
X120206268Y-79084898D01*
X120327880Y-78858444D01*
X123512120Y-78858444D01*
X123633732Y-79084898D01*
X124804898Y-79084898D01*
X124804898Y-77913732D01*
X125058898Y-77913732D01*
X125058898Y-79084898D01*
X126230064Y-79084898D01*
X126351676Y-78858444D01*
X126108341Y-78342024D01*
X125685903Y-77958034D01*
X125285352Y-77792120D01*
X125058898Y-77913732D01*
X124804898Y-77913732D01*
X124578444Y-77792120D01*
X124062024Y-78035455D01*
X123678034Y-78457893D01*
X123512120Y-78858444D01*
X120327880Y-78858444D01*
X120084545Y-78342024D01*
X119662107Y-77958034D01*
X119546143Y-77910000D01*
X121690000Y-77910000D01*
X121990041Y-77850318D01*
X122049723Y-77838447D01*
X122354680Y-77634680D01*
X124724680Y-75264680D01*
X124766150Y-75202615D01*
X125110054Y-74972827D01*
X125330000Y-74643654D01*
X125549946Y-74972827D01*
X125549946Y-74972827D01*
G37*
X125549946Y-74972827D02*
X125660000Y-75046363D01*
X125660000Y-77230000D01*
X125700419Y-77433201D01*
X125731553Y-77589723D01*
X125935320Y-77894680D01*
X127584000Y-79543360D01*
X127584000Y-81997330D01*
X127477629Y-82103515D01*
X127289215Y-82557266D01*
X127289082Y-82709558D01*
X126898640Y-83100000D01*
X116530328Y-83100000D01*
X116550785Y-83050734D01*
X116551214Y-82559421D01*
X116363592Y-82105343D01*
X116016485Y-81757629D01*
X115562734Y-81569215D01*
X115071421Y-81568786D01*
X114617343Y-81756408D01*
X114509563Y-81864000D01*
X109732000Y-81864000D01*
X109732000Y-79747360D01*
X109914008Y-79565352D01*
X110304120Y-79565352D01*
X110547455Y-80081772D01*
X110969893Y-80465762D01*
X111370444Y-80631676D01*
X111596898Y-80510064D01*
X111596898Y-79338898D01*
X111850898Y-79338898D01*
X111850898Y-80510064D01*
X112077352Y-80631676D01*
X112593772Y-80388341D01*
X112977762Y-79965903D01*
X113143676Y-79565352D01*
X117488324Y-79565352D01*
X117731659Y-80081772D01*
X118154097Y-80465762D01*
X118554648Y-80631676D01*
X118781102Y-80510064D01*
X118781102Y-79338898D01*
X119035102Y-79338898D01*
X119035102Y-80510064D01*
X119261556Y-80631676D01*
X119777976Y-80388341D01*
X120161966Y-79965903D01*
X120327880Y-79565352D01*
X123512120Y-79565352D01*
X123755455Y-80081772D01*
X124177893Y-80465762D01*
X124578444Y-80631676D01*
X124804898Y-80510064D01*
X124804898Y-79338898D01*
X125058898Y-79338898D01*
X125058898Y-80510064D01*
X125285352Y-80631676D01*
X125801772Y-80388341D01*
X126185762Y-79965903D01*
X126351676Y-79565352D01*
X126230064Y-79338898D01*
X125058898Y-79338898D01*
X124804898Y-79338898D01*
X123633732Y-79338898D01*
X123512120Y-79565352D01*
X120327880Y-79565352D01*
X120206268Y-79338898D01*
X119035102Y-79338898D01*
X118781102Y-79338898D01*
X117609936Y-79338898D01*
X117488324Y-79565352D01*
X113143676Y-79565352D01*
X113022064Y-79338898D01*
X111850898Y-79338898D01*
X111596898Y-79338898D01*
X110425732Y-79338898D01*
X110304120Y-79565352D01*
X109914008Y-79565352D01*
X110414806Y-79064554D01*
X110425732Y-79084898D01*
X111417290Y-79084898D01*
X111530149Y-79197757D01*
X111709757Y-79018149D01*
X111596898Y-78905290D01*
X111596898Y-77913732D01*
X111589949Y-77910000D01*
X111857847Y-77910000D01*
X111850898Y-77913732D01*
X111850898Y-79084898D01*
X113022064Y-79084898D01*
X113143676Y-78858444D01*
X112900341Y-78342024D01*
X112477903Y-77958034D01*
X112361939Y-77910000D01*
X118304476Y-77910000D01*
X118038228Y-78035455D01*
X117654238Y-78457893D01*
X117488324Y-78858444D01*
X117609936Y-79084898D01*
X118781102Y-79084898D01*
X118781102Y-77913732D01*
X118774153Y-77910000D01*
X119042051Y-77910000D01*
X119035102Y-77913732D01*
X119035102Y-79084898D01*
X120206268Y-79084898D01*
X120327880Y-78858444D01*
X123512120Y-78858444D01*
X123633732Y-79084898D01*
X124804898Y-79084898D01*
X124804898Y-77913732D01*
X125058898Y-77913732D01*
X125058898Y-79084898D01*
X126230064Y-79084898D01*
X126351676Y-78858444D01*
X126108341Y-78342024D01*
X125685903Y-77958034D01*
X125285352Y-77792120D01*
X125058898Y-77913732D01*
X124804898Y-77913732D01*
X124578444Y-77792120D01*
X124062024Y-78035455D01*
X123678034Y-78457893D01*
X123512120Y-78858444D01*
X120327880Y-78858444D01*
X120084545Y-78342024D01*
X119662107Y-77958034D01*
X119546143Y-77910000D01*
X121690000Y-77910000D01*
X121990041Y-77850318D01*
X122049723Y-77838447D01*
X122354680Y-77634680D01*
X124724680Y-75264680D01*
X124766150Y-75202615D01*
X125110054Y-74972827D01*
X125330000Y-74643654D01*
X125549946Y-74972827D01*
G36*
X121647000Y-73766680D02*
X121667000Y-73766680D01*
X121667000Y-74020680D01*
X121647000Y-74020680D01*
X121647000Y-75213835D01*
X121876890Y-75335156D01*
X122079334Y-75251306D01*
X121300640Y-76030000D01*
X111180000Y-76030000D01*
X110879959Y-76089682D01*
X110820277Y-76101553D01*
X110515320Y-76305320D01*
X108127320Y-78693320D01*
X107923553Y-78998277D01*
X107923553Y-78998278D01*
X107852000Y-79358000D01*
X107852000Y-82050311D01*
X107806683Y-82058838D01*
X107590559Y-82197910D01*
X107445569Y-82410110D01*
X107442919Y-82423197D01*
X107306090Y-82210559D01*
X107093890Y-82065569D01*
X107032000Y-82053036D01*
X107032000Y-79007360D01*
X110394680Y-75644680D01*
X110564104Y-75391120D01*
X112210000Y-75391120D01*
X112445317Y-75346842D01*
X112661441Y-75207770D01*
X112806431Y-74995570D01*
X112820086Y-74928139D01*
X112849946Y-74972827D01*
X113331715Y-75294734D01*
X113900000Y-75407773D01*
X114468285Y-75294734D01*
X114950054Y-74972827D01*
X115170000Y-74643654D01*
X115389946Y-74972827D01*
X115871715Y-75294734D01*
X116440000Y-75407773D01*
X117008285Y-75294734D01*
X117490054Y-74972827D01*
X117710000Y-74643654D01*
X117929946Y-74972827D01*
X118411715Y-75294734D01*
X118980000Y-75407773D01*
X119548285Y-75294734D01*
X120030054Y-74972827D01*
X120257702Y-74632127D01*
X120324817Y-74775038D01*
X120753076Y-75165325D01*
X121163110Y-75335156D01*
X121393000Y-75213835D01*
X121393000Y-74020680D01*
X121373000Y-74020680D01*
X121373000Y-73766680D01*
X121393000Y-73766680D01*
X121393000Y-73746680D01*
X121647000Y-73746680D01*
X121647000Y-73766680D01*
X121647000Y-73766680D01*
G37*
X121647000Y-73766680D02*
X121667000Y-73766680D01*
X121667000Y-74020680D01*
X121647000Y-74020680D01*
X121647000Y-75213835D01*
X121876890Y-75335156D01*
X122079334Y-75251306D01*
X121300640Y-76030000D01*
X111180000Y-76030000D01*
X110879959Y-76089682D01*
X110820277Y-76101553D01*
X110515320Y-76305320D01*
X108127320Y-78693320D01*
X107923553Y-78998277D01*
X107923553Y-78998278D01*
X107852000Y-79358000D01*
X107852000Y-82050311D01*
X107806683Y-82058838D01*
X107590559Y-82197910D01*
X107445569Y-82410110D01*
X107442919Y-82423197D01*
X107306090Y-82210559D01*
X107093890Y-82065569D01*
X107032000Y-82053036D01*
X107032000Y-79007360D01*
X110394680Y-75644680D01*
X110564104Y-75391120D01*
X112210000Y-75391120D01*
X112445317Y-75346842D01*
X112661441Y-75207770D01*
X112806431Y-74995570D01*
X112820086Y-74928139D01*
X112849946Y-74972827D01*
X113331715Y-75294734D01*
X113900000Y-75407773D01*
X114468285Y-75294734D01*
X114950054Y-74972827D01*
X115170000Y-74643654D01*
X115389946Y-74972827D01*
X115871715Y-75294734D01*
X116440000Y-75407773D01*
X117008285Y-75294734D01*
X117490054Y-74972827D01*
X117710000Y-74643654D01*
X117929946Y-74972827D01*
X118411715Y-75294734D01*
X118980000Y-75407773D01*
X119548285Y-75294734D01*
X120030054Y-74972827D01*
X120257702Y-74632127D01*
X120324817Y-74775038D01*
X120753076Y-75165325D01*
X121163110Y-75335156D01*
X121393000Y-75213835D01*
X121393000Y-74020680D01*
X121373000Y-74020680D01*
X121373000Y-73766680D01*
X121393000Y-73766680D01*
X121393000Y-73746680D01*
X121647000Y-73746680D01*
X121647000Y-73766680D01*
M02*
