M48
;DRILL file {KiCad 4.0.7} date Wednesday, 28. February 2018 'u13' 15:13:33
;FORMAT={-:-/ absolute / inch / decimal}
FMAT,2
INCH,TZ
T1C0.016
T2C0.030
T3C0.039
T4C0.043
%
G90
G05
M72
T1
X4.3921Y-3.6752
X5.1051Y-3.5429
X5.6055Y-3.0185
X5.7697Y-3.6697
X5.8606Y-3.0559
X5.8606Y-3.1909
X5.874Y-3.4717
X6.115Y-3.6673
X6.148Y-3.1535
T2
X4.3986Y-3.1186
X4.3986Y-3.4014
X4.54Y-3.26
X4.6586Y-3.5886
X4.6586Y-3.8714
X4.6814Y-3.1186
X4.6814Y-3.4014
X4.8Y-3.73
X4.9186Y-3.1186
X4.9186Y-3.4014
X4.9414Y-3.5886
X4.9414Y-3.8714
X5.06Y-3.26
X5.2014Y-3.1186
X5.2014Y-3.4014
X5.4386Y-3.1186
X5.4386Y-3.4014
X5.58Y-3.26
X5.6986Y-3.5886
X5.6986Y-3.8714
X5.7214Y-3.1186
X5.7214Y-3.4014
X5.84Y-3.73
X5.9586Y-3.1186
X5.9586Y-3.4014
X5.9814Y-3.5886
X5.9814Y-3.8714
X6.1Y-3.26
X6.2414Y-3.1186
X6.2414Y-3.4014
T3
X4.3843Y-2.8092
X4.3843Y-2.9092
X4.4843Y-2.8092
X4.4843Y-2.9092
X4.5843Y-2.8092
X4.5843Y-2.9092
X4.6843Y-2.8092
X4.6843Y-2.9092
X4.7843Y-2.8092
X4.7843Y-2.9092
X4.8843Y-2.8092
X4.8843Y-2.9092
X4.9843Y-2.8092
X4.9843Y-2.9092
X5.0843Y-2.8092
X5.0843Y-2.9092
X5.1843Y-2.8092
X5.1843Y-2.9092
X5.2843Y-2.8092
X5.2843Y-2.9092
X5.3843Y-2.8092
X5.3843Y-2.9092
X5.4843Y-2.8092
X5.4843Y-2.9092
X5.5843Y-2.8092
X5.5843Y-2.9092
X5.6843Y-2.8092
X5.6843Y-2.9092
X5.7843Y-2.8092
X5.7843Y-2.9092
X5.8843Y-2.8092
X5.8843Y-2.9092
X5.9843Y-2.8092
X5.9843Y-2.9092
X6.0843Y-2.8092
X6.0843Y-2.9092
X6.1843Y-2.8092
X6.1843Y-2.9092
X6.2843Y-2.8092
X6.2843Y-2.9092
T4
X4.213Y-3.6917
X4.213Y-3.7917
X4.213Y-3.8917
X6.437Y-3.6898
X6.437Y-3.7898
X6.437Y-3.8898
T0
M30
